M48
; DRILL file {KiCad (7.0.0-rc1-156-g4c5a344629-dirty)} date Sat 04 Mar 2023 11:45:49 AM PST
; FORMAT={-:-/ absolute / inch / decimal}
; #@! TF.CreationDate,2023-03-04T11:45:49-08:00
; #@! TF.GenerationSoftware,Kicad,Pcbnew,(7.0.0-rc1-156-g4c5a344629-dirty)
; #@! TF.FileFunction,MixedPlating,1,2
FMAT,2
INCH
; #@! TA.AperFunction,Plated,PTH,ViaDrill
T1C0.0100
; #@! TA.AperFunction,Plated,PTH,ComponentDrill
T2C0.0157
; #@! TA.AperFunction,Plated,PTH,ViaDrill
T3C0.0197
; #@! TA.AperFunction,Plated,PTH,ComponentDrill
T4C0.0197
; #@! TA.AperFunction,Plated,PTH,ComponentDrill
T5C0.0276
; #@! TA.AperFunction,Plated,PTH,ComponentDrill
T6C0.0394
; #@! TA.AperFunction,Plated,PTH,ComponentDrill
T7C0.0866
%
G90
G05
T1
X2.3787Y-4.1906
X2.3787Y-4.3906
X2.5287Y-4.1906
X2.5287Y-4.3906
X2.5487Y-3.5956
X2.5787Y-3.3906
X2.5787Y-3.5406
X2.6287Y-4.0406
X2.6787Y-4.1906
X2.6787Y-4.3906
X2.6787Y-4.4906
X2.7287Y-3.3906
X2.7287Y-3.6406
X2.7287Y-3.6906
X2.7787Y-4.0406
X2.7787Y-4.2906
X2.7787Y-4.4906
X2.8287Y-3.6906
X2.9287Y-3.9406
X2.9287Y-4.0406
X2.9287Y-4.2906
X3.0287Y-3.9406
X3.0287Y-4.0906
X3.0287Y-4.1906
X3.0287Y-4.3406
X3.0537Y-3.2906
X3.0537Y-3.5656
X3.0537Y-3.6656
X3.0887Y-3.9206
X3.1187Y-3.9606
X3.1237Y-4.0306
X3.1237Y-4.0906
X3.1287Y-4.1906
X3.1287Y-4.2406
X3.1537Y-3.8156
X3.1587Y-4.1406
X3.1687Y-3.8817
X3.1887Y-4.0306
X3.1887Y-4.0956
X3.2237Y-3.9606
X3.2237Y-4.0006
X3.2237Y-4.0406
X3.2237Y-4.0956
X3.2337Y-3.8355
X3.2366Y-3.8097
X3.2387Y-3.7836
X3.2437Y-3.9406
X3.2437Y-3.9805
X3.2437Y-4.0205
X3.2437Y-4.0656
X3.2657Y-3.7825
X3.2787Y-3.2906
X3.2787Y-3.4906
X3.2787Y-3.6906
X3.2787Y-4.1906
X3.3587Y-4.0206
X3.4007Y-3.3226
X3.4787Y-3.7606
X3.4787Y-4.0206
X3.5287Y-4.4256
X3.5287Y-4.6406
X3.5787Y-4.1906
X3.6087Y-3.8906
X3.6087Y-4.0206
X3.6287Y-4.4256
X3.7007Y-3.9198
X3.7277Y-3.9046
X3.7287Y-4.2906
X3.7287Y-4.4406
X3.8287Y-3.9206
X3.8337Y-4.0006
X3.8787Y-3.7906
X3.8787Y-3.8906
X3.9187Y-3.9806
X3.9787Y-3.6906
X4.0287Y-4.1906
X4.0287Y-4.3906
X4.0287Y-4.5406
X4.0287Y-4.6406
X4.0787Y-3.4906
X4.0787Y-3.6906
X4.1447Y-3.6766
X4.2787Y-3.3406
X4.3787Y-3.5406
X4.3787Y-4.1906
X4.3787Y-4.3906
X4.4287Y-3.6906
X4.4287Y-4.0406
X4.5287Y-3.6906
X4.5287Y-4.0406
T2
X2.3638Y-3.1906
X2.3638Y-4.5906
X2.3828Y-3.1446
X2.3828Y-3.2365
X2.3828Y-4.5446
X2.3828Y-4.6365
X2.4287Y-3.1256
X2.4287Y-3.2555
X2.4287Y-4.5256
X2.4287Y-4.6555
X2.4747Y-3.1446
X2.4747Y-3.2365
X2.4747Y-4.5446
X2.4747Y-4.6365
X2.4937Y-3.1906
X2.4937Y-4.5906
X4.4638Y-3.1906
X4.4638Y-4.5906
X4.4828Y-3.1446
X4.4828Y-3.2365
X4.4828Y-4.5446
X4.4828Y-4.6365
X4.5287Y-3.1256
X4.5287Y-3.2555
X4.5287Y-4.5256
X4.5287Y-4.6555
X4.5747Y-3.1446
X4.5747Y-3.2365
X4.5747Y-4.5446
X4.5747Y-4.6365
X4.5937Y-3.1906
X4.5937Y-4.5906
T3
X2.8787Y-3.8756
T5
X2.4531Y-3.7882
X2.4531Y-3.9929
T6
X2.6291Y-4.5407
X2.6291Y-4.6407
X2.6293Y-3.1407
X2.6293Y-3.2407
X2.7291Y-4.5407
X2.7291Y-4.6407
X2.7293Y-3.1407
X2.7293Y-3.2407
X2.8291Y-4.5407
X2.8291Y-4.6407
X2.8293Y-3.1407
X2.8293Y-3.2407
X2.9291Y-4.5407
X2.9291Y-4.6407
X2.9293Y-3.1407
X2.9293Y-3.2407
X3.0291Y-4.5407
X3.0291Y-4.6407
X3.0293Y-3.1407
X3.0293Y-3.2407
X3.1291Y-4.5407
X3.1291Y-4.6407
X3.1293Y-3.1407
X3.1293Y-3.2407
X3.2291Y-4.5407
X3.2291Y-4.6407
X3.2293Y-3.1407
X3.2293Y-3.2407
X3.3291Y-4.5407
X3.3291Y-4.6407
X3.3293Y-3.1407
X3.3293Y-3.2407
X3.4291Y-4.5407
X3.4291Y-4.6407
X3.4293Y-3.1407
X3.4293Y-3.2407
X3.5293Y-3.1407
X3.5293Y-3.2407
X3.6291Y-4.5407
X3.6291Y-4.6407
X3.6293Y-3.1407
X3.6293Y-3.2407
X3.7291Y-4.5407
X3.7291Y-4.6407
X3.7293Y-3.1407
X3.7293Y-3.2407
X3.8291Y-4.5407
X3.8291Y-4.6407
X3.8293Y-3.1407
X3.8293Y-3.2407
X3.9291Y-4.5407
X3.9291Y-4.6407
X3.9293Y-3.1407
X3.9293Y-3.2407
X4.0103Y-4.0156
X4.0293Y-3.1407
X4.0293Y-3.2407
X4.1293Y-3.1407
X4.1293Y-3.2407
X4.1293Y-4.5407
X4.1293Y-4.6407
X4.2072Y-4.0156
X4.2293Y-3.1407
X4.2293Y-3.2407
X4.2293Y-4.5407
X4.2293Y-4.6407
X4.3293Y-3.1407
X4.3293Y-3.2407
X4.3293Y-4.5407
X4.3293Y-4.6407
T7
X2.4287Y-3.1906
X2.4287Y-4.5906
X4.5287Y-3.1906
X4.5287Y-4.5906
T4
G00X2.3645Y-3.7488
M15
G01X2.333Y-3.7488
M16
G05
G00X2.3645Y-4.0323
M15
G01X2.333Y-4.0323
M16
G05
T0
M30
