%TF.GenerationSoftware,KiCad,Pcbnew,(7.0.0-rc1-156-g4c5a344629-dirty)*%
%TF.CreationDate,2023-03-04T11:45:46-08:00*%
%TF.ProjectId,powerpic-devboard,706f7765-7270-4696-932d-646576626f61,2.0*%
%TF.SameCoordinates,Original*%
%TF.FileFunction,Copper,L2,Bot*%
%TF.FilePolarity,Positive*%
%FSLAX46Y46*%
G04 Gerber Fmt 4.6, Leading zero omitted, Abs format (unit mm)*
G04 Created by KiCad (PCBNEW (7.0.0-rc1-156-g4c5a344629-dirty)) date 2023-03-04 11:45:46*
%MOMM*%
%LPD*%
G01*
G04 APERTURE LIST*
G04 Aperture macros list*
%AMFreePoly0*
4,1,19,0.500000,-0.750000,0.000000,-0.750000,0.000000,-0.744911,-0.071157,-0.744911,-0.207708,-0.704816,-0.327430,-0.627875,-0.420627,-0.520320,-0.479746,-0.390866,-0.500000,-0.250000,-0.500000,0.250000,-0.479746,0.390866,-0.420627,0.520320,-0.327430,0.627875,-0.207708,0.704816,-0.071157,0.744911,0.000000,0.744911,0.000000,0.750000,0.500000,0.750000,0.500000,-0.750000,0.500000,-0.750000,
$1*%
%AMFreePoly1*
4,1,19,0.000000,0.744911,0.071157,0.744911,0.207708,0.704816,0.327430,0.627875,0.420627,0.520320,0.479746,0.390866,0.500000,0.250000,0.500000,-0.250000,0.479746,-0.390866,0.420627,-0.520320,0.327430,-0.627875,0.207708,-0.704816,0.071157,-0.744911,0.000000,-0.744911,0.000000,-0.750000,-0.500000,-0.750000,-0.500000,0.750000,0.000000,0.750000,0.000000,0.744911,0.000000,0.744911,
$1*%
G04 Aperture macros list end*
%TA.AperFunction,ComponentPad*%
%ADD10R,1.700000X1.700000*%
%TD*%
%TA.AperFunction,ComponentPad*%
%ADD11O,1.700000X1.700000*%
%TD*%
%TA.AperFunction,ComponentPad*%
%ADD12C,0.700000*%
%TD*%
%TA.AperFunction,ComponentPad*%
%ADD13C,4.400000*%
%TD*%
%TA.AperFunction,SMDPad,CuDef*%
%ADD14FreePoly0,0.000000*%
%TD*%
%TA.AperFunction,SMDPad,CuDef*%
%ADD15FreePoly1,0.000000*%
%TD*%
%TA.AperFunction,SMDPad,CuDef*%
%ADD16FreePoly0,315.000000*%
%TD*%
%TA.AperFunction,SMDPad,CuDef*%
%ADD17FreePoly1,315.000000*%
%TD*%
%TA.AperFunction,ComponentPad*%
%ADD18C,1.300000*%
%TD*%
%TA.AperFunction,ComponentPad*%
%ADD19O,1.900000X1.100000*%
%TD*%
%TA.AperFunction,ComponentPad*%
%ADD20C,2.000000*%
%TD*%
%TA.AperFunction,ComponentPad*%
%ADD21R,2.000000X2.000000*%
%TD*%
%TA.AperFunction,ViaPad*%
%ADD22C,0.508000*%
%TD*%
%TA.AperFunction,ViaPad*%
%ADD23C,1.000000*%
%TD*%
%TA.AperFunction,Conductor*%
%ADD24C,0.152400*%
%TD*%
%TA.AperFunction,Conductor*%
%ADD25C,0.200000*%
%TD*%
%TA.AperFunction,Conductor*%
%ADD26C,0.450000*%
%TD*%
%TA.AperFunction,Conductor*%
%ADD27C,1.000000*%
%TD*%
G04 APERTURE END LIST*
%TO.C,JP3*%
G36*
X82260000Y-112120000D02*
G01*
X81760000Y-112120000D01*
X81760000Y-111720000D01*
X82260000Y-111720000D01*
X82260000Y-112120000D01*
G37*
G36*
X82260000Y-111320000D02*
G01*
X81760000Y-111320000D01*
X81760000Y-110920000D01*
X82260000Y-110920000D01*
X82260000Y-111320000D01*
G37*
%TO.C,JP4*%
G36*
X87340000Y-111320000D02*
G01*
X86840000Y-111320000D01*
X86840000Y-110920000D01*
X87340000Y-110920000D01*
X87340000Y-111320000D01*
G37*
G36*
X87340000Y-112120000D02*
G01*
X86840000Y-112120000D01*
X86840000Y-111720000D01*
X87340000Y-111720000D01*
X87340000Y-112120000D01*
G37*
%TO.C,JP1*%
G36*
X73508909Y-105134645D02*
G01*
X73084645Y-105558909D01*
X72731091Y-105205355D01*
X73155355Y-104781091D01*
X73508909Y-105134645D01*
G37*
%TO.C,JP2*%
G36*
X77180000Y-112120000D02*
G01*
X76680000Y-112120000D01*
X76680000Y-111720000D01*
X77180000Y-111720000D01*
X77180000Y-112120000D01*
G37*
G36*
X77180000Y-111320000D02*
G01*
X76680000Y-111320000D01*
X76680000Y-110920000D01*
X77180000Y-110920000D01*
X77180000Y-111320000D01*
G37*
%TD*%
D10*
%TO.P,J4,1,Pin_1*%
%TO.N,VCC*%
X104884999Y-117874999D03*
D11*
%TO.P,J4,2,Pin_2*%
%TO.N,/ICSP_DAT*%
X104884999Y-115334999D03*
%TO.P,J4,3,Pin_3*%
%TO.N,GND*%
X107424999Y-117874999D03*
%TO.P,J4,4,Pin_4*%
%TO.N,/ICSP_CLK*%
X107424999Y-115334999D03*
%TO.P,J4,5,Pin_5*%
%TO.N,GND*%
X109964999Y-117874999D03*
%TO.P,J4,6,Pin_6*%
%TO.N,/~{MCLR}*%
X109964999Y-115334999D03*
%TD*%
D10*
%TO.P,J2,1,Pin_1*%
%TO.N,GND*%
X66779999Y-117874999D03*
D11*
%TO.P,J2,2,Pin_2*%
%TO.N,+3V3*%
X66779999Y-115334999D03*
%TO.P,J2,3,Pin_3*%
%TO.N,GND*%
X69319999Y-117874999D03*
%TO.P,J2,4,Pin_4*%
%TO.N,VCC*%
X69319999Y-115334999D03*
%TO.P,J2,5,Pin_5*%
%TO.N,GND*%
X71859999Y-117874999D03*
%TO.P,J2,6,Pin_6*%
%TO.N,VCC*%
X71859999Y-115334999D03*
%TO.P,J2,7,Pin_7*%
%TO.N,GND*%
X74399999Y-117874999D03*
%TO.P,J2,8,Pin_8*%
X74399999Y-115334999D03*
%TO.P,J2,9,Pin_9*%
%TO.N,/UART_TX*%
X76939999Y-117874999D03*
%TO.P,J2,10,Pin_10*%
%TO.N,/DEBUG*%
X76939999Y-115334999D03*
%TO.P,J2,11,Pin_11*%
%TO.N,/UART_RX*%
X79479999Y-117874999D03*
%TO.P,J2,12,Pin_12*%
%TO.N,/DEBUG*%
X79479999Y-115334999D03*
%TO.P,J2,13,Pin_13*%
%TO.N,/BUZZER*%
X82019999Y-117874999D03*
%TO.P,J2,14,Pin_14*%
%TO.N,/BACKLIGHT*%
X82019999Y-115334999D03*
%TO.P,J2,15,Pin_15*%
%TO.N,/BUZZER_ONB*%
X84559999Y-117874999D03*
%TO.P,J2,16,Pin_16*%
%TO.N,/BACKLIGHT_LED*%
X84559999Y-115334999D03*
%TO.P,J2,17,Pin_17*%
%TO.N,GND*%
X87099999Y-117874999D03*
%TO.P,J2,18,Pin_18*%
X87099999Y-115334999D03*
%TD*%
D10*
%TO.P,J1,1,Pin_1*%
%TO.N,/COM0*%
X66784999Y-82314999D03*
D11*
%TO.P,J1,2,Pin_2*%
%TO.N,/COM1*%
X66784999Y-79774999D03*
%TO.P,J1,3,Pin_3*%
%TO.N,/COM2*%
X69324999Y-82314999D03*
%TO.P,J1,4,Pin_4*%
%TO.N,/COM3*%
X69324999Y-79774999D03*
%TO.P,J1,5,Pin_5*%
%TO.N,/SEG0*%
X71864999Y-82314999D03*
%TO.P,J1,6,Pin_6*%
%TO.N,/SEG1*%
X71864999Y-79774999D03*
%TO.P,J1,7,Pin_7*%
%TO.N,/SEG2*%
X74404999Y-82314999D03*
%TO.P,J1,8,Pin_8*%
%TO.N,/SEG3*%
X74404999Y-79774999D03*
%TO.P,J1,9,Pin_9*%
%TO.N,/SEG4*%
X76944999Y-82314999D03*
%TO.P,J1,10,Pin_10*%
%TO.N,/SEG5*%
X76944999Y-79774999D03*
%TO.P,J1,11,Pin_11*%
%TO.N,/SEG6*%
X79484999Y-82314999D03*
%TO.P,J1,12,Pin_12*%
%TO.N,/SEG7*%
X79484999Y-79774999D03*
%TO.P,J1,13,Pin_13*%
%TO.N,/SEG8*%
X82024999Y-82314999D03*
%TO.P,J1,14,Pin_14*%
%TO.N,/SEG9*%
X82024999Y-79774999D03*
%TO.P,J1,15,Pin_15*%
%TO.N,/SEG10*%
X84564999Y-82314999D03*
%TO.P,J1,16,Pin_16*%
%TO.N,/SEG11*%
X84564999Y-79774999D03*
%TO.P,J1,17,Pin_17*%
%TO.N,/SEG12*%
X87104999Y-82314999D03*
%TO.P,J1,18,Pin_18*%
%TO.N,/SEG13*%
X87104999Y-79774999D03*
%TO.P,J1,19,Pin_19*%
%TO.N,/SEG14*%
X89644999Y-82314999D03*
%TO.P,J1,20,Pin_20*%
%TO.N,/SEG15*%
X89644999Y-79774999D03*
%TO.P,J1,21,Pin_21*%
%TO.N,/SEG16*%
X92184999Y-82314999D03*
%TO.P,J1,22,Pin_22*%
%TO.N,/SEG17*%
X92184999Y-79774999D03*
%TO.P,J1,23,Pin_23*%
%TO.N,/SEG18*%
X94724999Y-82314999D03*
%TO.P,J1,24,Pin_24*%
%TO.N,/SEG19*%
X94724999Y-79774999D03*
%TO.P,J1,25,Pin_25*%
%TO.N,/SEG20*%
X97264999Y-82314999D03*
%TO.P,J1,26,Pin_26*%
%TO.N,/SEG21*%
X97264999Y-79774999D03*
%TO.P,J1,27,Pin_27*%
%TO.N,/SEG22*%
X99804999Y-82314999D03*
%TO.P,J1,28,Pin_28*%
%TO.N,/SEG23*%
X99804999Y-79774999D03*
%TO.P,J1,29,Pin_29*%
%TO.N,/SEG24*%
X102344999Y-82314999D03*
%TO.P,J1,30,Pin_30*%
%TO.N,/SEG25*%
X102344999Y-79774999D03*
%TO.P,J1,31,Pin_31*%
%TO.N,/SEG26*%
X104884999Y-82314999D03*
%TO.P,J1,32,Pin_32*%
%TO.N,/SEG27*%
X104884999Y-79774999D03*
%TO.P,J1,33,Pin_33*%
%TO.N,/SEG28*%
X107424999Y-82314999D03*
%TO.P,J1,34,Pin_34*%
%TO.N,/SEG29*%
X107424999Y-79774999D03*
%TO.P,J1,35,Pin_35*%
%TO.N,/SEG30*%
X109964999Y-82314999D03*
%TO.P,J1,36,Pin_36*%
%TO.N,GND*%
X109964999Y-79774999D03*
%TD*%
D12*
%TO.P,H4,1,1*%
%TO.N,GND*%
X116196726Y-117766726D03*
X115030000Y-114950000D03*
X113863274Y-115433274D03*
X113380000Y-116600000D03*
X116196726Y-115433274D03*
X113863274Y-117766726D03*
X115030000Y-118250000D03*
D13*
X115030000Y-116600000D03*
D12*
X116680000Y-116600000D03*
%TD*%
%TO.P,H3,1,1*%
%TO.N,GND*%
X62856726Y-117766726D03*
X61690000Y-114950000D03*
X60523274Y-115433274D03*
X60040000Y-116600000D03*
X62856726Y-115433274D03*
X60523274Y-117766726D03*
X61690000Y-118250000D03*
D13*
X61690000Y-116600000D03*
D12*
X63340000Y-116600000D03*
%TD*%
%TO.P,H2,1,1*%
%TO.N,GND*%
X116196726Y-82206726D03*
X115030000Y-79390000D03*
X113863274Y-79873274D03*
X113380000Y-81040000D03*
X116196726Y-79873274D03*
X113863274Y-82206726D03*
X115030000Y-82690000D03*
D13*
X115030000Y-81040000D03*
D12*
X116680000Y-81040000D03*
%TD*%
%TO.P,H1,1,1*%
%TO.N,GND*%
X62856726Y-82206726D03*
X61690000Y-79390000D03*
X60523274Y-79873274D03*
X60040000Y-81040000D03*
X62856726Y-79873274D03*
X60523274Y-82206726D03*
X61690000Y-82690000D03*
D13*
X61690000Y-81040000D03*
D12*
X63340000Y-81040000D03*
%TD*%
D14*
%TO.P,JP3,1,A*%
%TO.N,/BACKLIGHT*%
X81360000Y-111520000D03*
D15*
%TO.P,JP3,2,B*%
%TO.N,/BACKLIGHT_LED*%
X82660000Y-111520000D03*
%TD*%
%TO.P,JP4,2,B*%
%TO.N,/BUZZER_ONB*%
X87740000Y-111520000D03*
D14*
%TO.P,JP4,1,A*%
%TO.N,/BUZZER*%
X86440000Y-111520000D03*
%TD*%
D16*
%TO.P,JP1,1,A*%
%TO.N,+3V3*%
X72660381Y-104710381D03*
D17*
%TO.P,JP1,2,B*%
%TO.N,VCC*%
X73579619Y-105629619D03*
%TD*%
D14*
%TO.P,JP2,1,A*%
%TO.N,/UART_RX*%
X76280000Y-111520000D03*
D15*
%TO.P,JP2,2,B*%
%TO.N,/DEBUG*%
X77580000Y-111520000D03*
%TD*%
D18*
%TO.P,J5,6,Shield*%
%TO.N,GND*%
X62308000Y-101420000D03*
X62308000Y-96220000D03*
D19*
X59657999Y-102419999D03*
X59657999Y-95219999D03*
%TD*%
D20*
%TO.P,BZ1,2,+*%
%TO.N,GND*%
X106862000Y-101995000D03*
D21*
%TO.P,BZ1,1,-*%
%TO.N,/BUZZER_ONB*%
X101861999Y-101994999D03*
%TD*%
D11*
%TO.P,J3,8,Pin_8*%
%TO.N,/COL3*%
X99799999Y-115334999D03*
%TO.P,J3,7,Pin_7*%
%TO.N,/COL2*%
X99799999Y-117874999D03*
%TO.P,J3,6,Pin_6*%
%TO.N,/COL1*%
X97259999Y-115334999D03*
%TO.P,J3,5,Pin_5*%
%TO.N,/COL0*%
X97259999Y-117874999D03*
%TO.P,J3,4,Pin_4*%
%TO.N,/ROW0*%
X94719999Y-115334999D03*
%TO.P,J3,3,Pin_3*%
%TO.N,/ROW1*%
X94719999Y-117874999D03*
%TO.P,J3,2,Pin_2*%
%TO.N,/ROW2*%
X92179999Y-115334999D03*
D10*
%TO.P,J3,1,Pin_1*%
%TO.N,/ROW3*%
X92179999Y-117874999D03*
%TD*%
D22*
%TO.N,GND*%
X88360000Y-95518000D03*
X91662000Y-98820000D03*
X85312000Y-102122000D03*
X88360000Y-102122000D03*
X91662000Y-102122000D03*
X79216000Y-100598000D03*
X83280000Y-93740000D03*
X83280000Y-83580000D03*
X77565000Y-83580000D03*
X77565000Y-90565000D03*
X77565000Y-93105000D03*
X80105000Y-96915000D03*
X83280000Y-88660000D03*
X108680000Y-84850000D03*
X111220000Y-89930000D03*
X103600000Y-88660000D03*
X103600000Y-93740000D03*
X98520000Y-98820000D03*
X98520000Y-96280000D03*
X101060000Y-93740000D03*
X112490000Y-93740000D03*
X112490000Y-102630000D03*
X115030000Y-93740000D03*
X115030000Y-102630000D03*
X102330000Y-106440000D03*
X111220000Y-106440000D03*
X111220000Y-111520000D03*
X102330000Y-111520000D03*
X102330000Y-115330000D03*
X102330000Y-117870000D03*
X89630000Y-117870000D03*
X94710000Y-108980000D03*
X94710000Y-112790000D03*
X90900000Y-106440000D03*
X79470000Y-107710000D03*
X79470000Y-106440000D03*
X83280000Y-106440000D03*
X60420000Y-111520000D03*
X60420000Y-106440000D03*
X64230000Y-111520000D03*
X64230000Y-106440000D03*
X68040000Y-111520000D03*
X68040000Y-106440000D03*
X68040000Y-114060000D03*
X70580000Y-114060000D03*
X70580000Y-108980000D03*
X74390000Y-108980000D03*
X74390000Y-102630000D03*
X76930000Y-110250000D03*
X76930000Y-106440000D03*
X76930000Y-100090000D03*
X74390000Y-100090000D03*
X76930000Y-103900000D03*
X66770000Y-102630000D03*
X70580000Y-102630000D03*
X65500000Y-89930000D03*
X65500000Y-86120000D03*
X69310000Y-86120000D03*
X69310000Y-92470000D03*
X69310000Y-93740000D03*
X71850000Y-93740000D03*
X80994000Y-104027000D03*
X79343000Y-103900000D03*
X80994000Y-102376000D03*
X79343000Y-102376000D03*
%TO.N,/~{MCLR}*%
X78454000Y-99582000D03*
%TO.N,GND*%
X92170000Y-112409000D03*
X89630000Y-112409000D03*
%TO.N,/BACKLIGHT_LED*%
X105276400Y-93384400D03*
%TO.N,/SEG5*%
X82134811Y-97422077D03*
%TO.N,/SEG6*%
X82209402Y-96766404D03*
%TO.N,/SEG7*%
X82262123Y-96103674D03*
%TO.N,/SEG8*%
X82949800Y-96075900D03*
%TO.N,/SEG13*%
X93998800Y-99564100D03*
%TO.N,/SEG14*%
X94684600Y-99175600D03*
%TO.N,/SEG9*%
X86378800Y-84392800D03*
%TO.N,/DEBUG*%
X97377000Y-101614000D03*
%TO.N,/SEG12*%
X81883000Y-104027000D03*
%TO.N,/SEG9*%
X82391000Y-103265000D03*
%TO.N,VCC*%
X80232000Y-105170000D03*
%TO.N,/SEG30*%
X99536000Y-101106000D03*
%TO.N,VCC*%
X97250000Y-99582000D03*
%TO.N,/~{MCLR}*%
X64738000Y-91327000D03*
D23*
%TO.N,+3V3*%
X73120000Y-98439000D03*
D22*
%TO.N,/SEG11*%
X81883000Y-102630000D03*
%TO.N,/SEG10*%
X82391000Y-102119900D03*
%TO.N,/SEG0*%
X81883000Y-101614000D03*
%TO.N,/SEG1*%
X82391000Y-101103900D03*
%TO.N,/SEG2*%
X81883000Y-100598000D03*
%TO.N,/SEG3*%
X82391000Y-100090000D03*
%TO.N,/SEG4*%
X80486000Y-98594100D03*
%TD*%
D24*
%TO.N,/~{MCLR}*%
X78454000Y-99582000D02*
X78500593Y-99535407D01*
D25*
X78500593Y-99535407D02*
X78500593Y-99318323D01*
X78500593Y-99318323D02*
X73465635Y-94283365D01*
X73465635Y-94283365D02*
X70509270Y-91327000D01*
X70509270Y-91327000D02*
X64738000Y-91327000D01*
%TO.N,/BACKLIGHT_LED*%
X105276400Y-94584336D02*
X105276400Y-93384400D01*
X91191936Y-108668800D02*
X105276400Y-94584336D01*
X85511200Y-108668800D02*
X91191936Y-108668800D01*
%TO.N,/BUZZER_ONB*%
X101862000Y-101995000D02*
X99363158Y-101995000D01*
X98116079Y-103242079D02*
X89838158Y-111520000D01*
X99363158Y-101995000D02*
X98116079Y-103242079D01*
%TO.N,/BACKLIGHT_LED*%
X82660000Y-111520000D02*
X85511200Y-108668800D01*
D26*
%TO.N,VCC*%
X104885000Y-117875000D02*
X103657600Y-119102400D01*
X103657600Y-119102400D02*
X73891594Y-119102400D01*
X73891594Y-119102400D02*
X73087400Y-118298206D01*
X73087400Y-118298206D02*
X73087400Y-116562400D01*
X73087400Y-116562400D02*
X71860000Y-115335000D01*
D25*
%TO.N,/SEG30*%
X99536000Y-101106000D02*
X109965000Y-90677000D01*
X109965000Y-90677000D02*
X109965000Y-82315000D01*
%TO.N,/BUZZER_ONB*%
X87740000Y-111520000D02*
X88995000Y-111520000D01*
X89838158Y-111520000D02*
X88995000Y-111520000D01*
X84560000Y-117875000D02*
X85662400Y-116772600D01*
X85662400Y-116772600D02*
X87221430Y-116772600D01*
X87221430Y-116772600D02*
X88360000Y-115634030D01*
%TO.N,/BUZZER*%
X85820000Y-115634030D02*
X85016630Y-116437400D01*
X85016630Y-116437400D02*
X83457600Y-116437400D01*
X83457600Y-116437400D02*
X82020000Y-117875000D01*
%TO.N,/DEBUG*%
X77580000Y-111520000D02*
X77580000Y-114695000D01*
X77580000Y-114695000D02*
X76940000Y-115335000D01*
X97377000Y-101614000D02*
X91027000Y-107964000D01*
X91027000Y-107964000D02*
X81136000Y-107964000D01*
X81136000Y-107964000D02*
X77580000Y-111520000D01*
%TO.N,/BACKLIGHT_LED*%
X82660000Y-111520000D02*
X82660000Y-113435000D01*
X82660000Y-113435000D02*
X84560000Y-115335000D01*
%TO.N,/BACKLIGHT*%
X82020000Y-115335000D02*
X81360000Y-114675000D01*
X81360000Y-114675000D02*
X81360000Y-111520000D01*
%TO.N,/UART_RX*%
X79480000Y-117875000D02*
X78377600Y-116772600D01*
X78377600Y-116772600D02*
X76467600Y-116772600D01*
X76467600Y-116772600D02*
X75660000Y-115965000D01*
X75660000Y-115965000D02*
X75660000Y-112140000D01*
X75660000Y-112140000D02*
X76280000Y-111520000D01*
%TO.N,/DEBUG*%
X76940000Y-115335000D02*
X79480000Y-115335000D01*
D27*
%TO.N,VCC*%
X71850000Y-107710000D02*
X74390000Y-105170000D01*
X71860000Y-115335000D02*
X71860000Y-108754800D01*
X71860000Y-108754800D02*
X71850000Y-108744800D01*
X71850000Y-108744800D02*
X71850000Y-107710000D01*
X71860000Y-115335000D02*
X69320000Y-115335000D01*
%TO.N,+3V3*%
X68040000Y-108980000D02*
X73120000Y-103900000D01*
X66780000Y-115335000D02*
X66780000Y-110240000D01*
X66780000Y-110240000D02*
X68040000Y-108980000D01*
D25*
%TO.N,/SEG5*%
X78382600Y-93181200D02*
X78382600Y-81212600D01*
X82134811Y-97422077D02*
X78382600Y-93669866D01*
X78382600Y-93669866D02*
X78382600Y-93181200D01*
%TO.N,/SEG6*%
X82209402Y-96766404D02*
X79485000Y-94042002D01*
X79485000Y-93409800D02*
X79485000Y-82315000D01*
X79485000Y-94042002D02*
X79485000Y-93409800D01*
%TO.N,/SEG7*%
X82262123Y-96103674D02*
X80922600Y-94764151D01*
X80922600Y-94764151D02*
X80922600Y-81212600D01*
X80922600Y-81212600D02*
X79485000Y-79775000D01*
%TO.N,/SEG8*%
X82949800Y-96075900D02*
X82025000Y-95151100D01*
X82025000Y-95151100D02*
X82025000Y-82315000D01*
%TO.N,/SEG10*%
X82391000Y-102119900D02*
X84565000Y-99945900D01*
X84565000Y-99945900D02*
X84565000Y-82315000D01*
%TO.N,/SEG13*%
X88542600Y-94107900D02*
X88542600Y-81212600D01*
X93998800Y-99564100D02*
X88542600Y-94107900D01*
X88542600Y-81212600D02*
X87105000Y-79775000D01*
%TO.N,/SEG14*%
X94684600Y-99074000D02*
X89645000Y-94034400D01*
X89645000Y-94034400D02*
X89645000Y-82315000D01*
%TO.N,/SEG9*%
X86378800Y-84392800D02*
X86378800Y-99346626D01*
X82460426Y-103265000D02*
X82391000Y-103265000D01*
X86378800Y-99346626D02*
X82460426Y-103265000D01*
%TO.N,/SEG11*%
X82597058Y-102630000D02*
X83129029Y-102098029D01*
X83129029Y-102098029D02*
X83280000Y-101947058D01*
X85667400Y-80877400D02*
X85667400Y-99559658D01*
X84565000Y-79775000D02*
X85667400Y-80877400D01*
X85667400Y-99559658D02*
X83129029Y-102098029D01*
%TO.N,/SEG12*%
X82345158Y-104027000D02*
X84146079Y-102226079D01*
X87105000Y-82315000D02*
X87105000Y-99267158D01*
X87105000Y-99267158D02*
X84146079Y-102226079D01*
X81883000Y-104027000D02*
X82345158Y-104027000D01*
D27*
%TO.N,VCC*%
X74390000Y-105170000D02*
X80232000Y-105170000D01*
X80232000Y-105170000D02*
X91662000Y-105170000D01*
X91662000Y-105170000D02*
X97250000Y-99582000D01*
%TO.N,+3V3*%
X73120000Y-103900000D02*
X73120000Y-98439000D01*
D25*
%TO.N,/BACKLIGHT*%
X81360000Y-111520000D02*
X81360000Y-110963052D01*
%TO.N,/BUZZER_ONB*%
X88360000Y-115634030D02*
X88360000Y-112140000D01*
X88360000Y-112140000D02*
X87740000Y-111520000D01*
%TO.N,/BUZZER*%
X85820000Y-115634030D02*
X85820000Y-112140000D01*
X85820000Y-112140000D02*
X86440000Y-111520000D01*
%TO.N,/SEG11*%
X81883000Y-102630000D02*
X82597058Y-102630000D01*
%TO.N,/SEG0*%
X81294638Y-101614000D02*
X71865000Y-92184362D01*
X71865000Y-92184362D02*
X71865000Y-82315000D01*
X81883000Y-101614000D02*
X81294638Y-101614000D01*
%TO.N,/SEG1*%
X82391000Y-101103900D02*
X82390500Y-101104400D01*
X73120000Y-81030000D02*
X71865000Y-79775000D01*
X73120000Y-92940994D02*
X73120000Y-81030000D01*
X82390500Y-101104400D02*
X81283406Y-101104400D01*
X81283406Y-101104400D02*
X73120000Y-92940994D01*
%TO.N,/SEG2*%
X81275374Y-100598000D02*
X74405000Y-93727626D01*
X81883000Y-100598000D02*
X81275374Y-100598000D01*
X74405000Y-93727626D02*
X74405000Y-82315000D01*
%TO.N,/SEG3*%
X82391000Y-100090000D02*
X81265742Y-100090000D01*
X81265742Y-100090000D02*
X75660000Y-94484258D01*
X75660000Y-94484258D02*
X75660000Y-81030000D01*
X75660000Y-81030000D02*
X74405000Y-79775000D01*
%TO.N,/SEG4*%
X80486000Y-98594100D02*
X76945000Y-95053100D01*
X76945000Y-95053100D02*
X76945000Y-82315000D01*
%TO.N,/SEG5*%
X78382600Y-81212600D02*
X76945000Y-79775000D01*
%TD*%
%TA.AperFunction,Conductor*%
%TO.N,GND*%
G36*
X87133976Y-112505241D02*
G01*
X87140699Y-112509734D01*
X87240000Y-112529486D01*
X87807383Y-112529486D01*
X87811889Y-112529486D01*
X87861568Y-112522343D01*
X87914998Y-112526164D01*
X87962012Y-112551835D01*
X87994114Y-112594718D01*
X88005500Y-112647060D01*
X88005500Y-114381216D01*
X87992291Y-114437379D01*
X87955432Y-114481766D01*
X87902652Y-114505071D01*
X87845018Y-114502406D01*
X87794614Y-114474331D01*
X87772466Y-114454140D01*
X87763203Y-114447145D01*
X87599153Y-114345571D01*
X87588771Y-114340401D01*
X87408853Y-114270700D01*
X87397692Y-114267524D01*
X87367641Y-114261907D01*
X87356440Y-114262295D01*
X87354000Y-114273237D01*
X87354000Y-115463000D01*
X87337119Y-115526000D01*
X87291000Y-115572119D01*
X87228000Y-115589000D01*
X86972000Y-115589000D01*
X86909000Y-115572119D01*
X86862881Y-115526000D01*
X86846000Y-115463000D01*
X86846000Y-114273237D01*
X86843559Y-114262295D01*
X86832358Y-114261907D01*
X86802307Y-114267524D01*
X86791146Y-114270700D01*
X86611228Y-114340401D01*
X86600846Y-114345571D01*
X86436796Y-114447145D01*
X86427527Y-114454145D01*
X86385385Y-114492563D01*
X86334981Y-114520638D01*
X86277347Y-114523303D01*
X86224568Y-114499998D01*
X86187709Y-114455611D01*
X86174500Y-114399448D01*
X86174500Y-112647060D01*
X86185886Y-112594718D01*
X86217988Y-112551835D01*
X86265002Y-112526164D01*
X86318431Y-112522343D01*
X86368111Y-112529486D01*
X86933813Y-112529486D01*
X86940000Y-112529486D01*
X87039301Y-112509734D01*
X87046023Y-112505241D01*
X87090000Y-112496494D01*
X87133976Y-112505241D01*
G37*
%TD.AperFunction*%
%TA.AperFunction,Conductor*%
G36*
X118395500Y-77628381D02*
G01*
X118441619Y-77674500D01*
X118458500Y-77737500D01*
X118458500Y-119902500D01*
X118441619Y-119965500D01*
X118395500Y-120011619D01*
X118332500Y-120028500D01*
X58387500Y-120028500D01*
X58324500Y-120011619D01*
X58278381Y-119965500D01*
X58261500Y-119902500D01*
X58261500Y-114060000D01*
X59150000Y-114060000D01*
X59150000Y-119140000D01*
X64230000Y-119140000D01*
X64230000Y-118743828D01*
X65676001Y-118743828D01*
X65677208Y-118756087D01*
X65688315Y-118811930D01*
X65697633Y-118834426D01*
X65739983Y-118897808D01*
X65757191Y-118915016D01*
X65820574Y-118957367D01*
X65843066Y-118966684D01*
X65898914Y-118977792D01*
X65911170Y-118979000D01*
X66509410Y-118979000D01*
X66522493Y-118975493D01*
X66526000Y-118962410D01*
X66526000Y-118962409D01*
X67034000Y-118962409D01*
X67037506Y-118975492D01*
X67050590Y-118978999D01*
X67648828Y-118978999D01*
X67661087Y-118977791D01*
X67716930Y-118966684D01*
X67739426Y-118957366D01*
X67802808Y-118915016D01*
X67820016Y-118897808D01*
X67862367Y-118834425D01*
X67871684Y-118811933D01*
X67882792Y-118756085D01*
X67884000Y-118743830D01*
X67884000Y-118145590D01*
X67880493Y-118132506D01*
X67877187Y-118131620D01*
X68247922Y-118131620D01*
X68248451Y-118143061D01*
X68284546Y-118269918D01*
X68288734Y-118280729D01*
X68374742Y-118453456D01*
X68380850Y-118463321D01*
X68497126Y-118617296D01*
X68504944Y-118625872D01*
X68647533Y-118755859D01*
X68656796Y-118762854D01*
X68820846Y-118864428D01*
X68831228Y-118869598D01*
X69011146Y-118939299D01*
X69022307Y-118942475D01*
X69052358Y-118948092D01*
X69063559Y-118947704D01*
X69066000Y-118936763D01*
X69574000Y-118936763D01*
X69576440Y-118947704D01*
X69587641Y-118948092D01*
X69617692Y-118942475D01*
X69628853Y-118939299D01*
X69808771Y-118869598D01*
X69819153Y-118864428D01*
X69983203Y-118762854D01*
X69992466Y-118755859D01*
X70135055Y-118625872D01*
X70142873Y-118617296D01*
X70259149Y-118463321D01*
X70265257Y-118453456D01*
X70351265Y-118280729D01*
X70355453Y-118269918D01*
X70391548Y-118143061D01*
X70392077Y-118131620D01*
X70787922Y-118131620D01*
X70788451Y-118143061D01*
X70824546Y-118269918D01*
X70828734Y-118280729D01*
X70914742Y-118453456D01*
X70920850Y-118463321D01*
X71037126Y-118617296D01*
X71044944Y-118625872D01*
X71187533Y-118755859D01*
X71196796Y-118762854D01*
X71360846Y-118864428D01*
X71371228Y-118869598D01*
X71551146Y-118939299D01*
X71562307Y-118942475D01*
X71592358Y-118948092D01*
X71603559Y-118947704D01*
X71606000Y-118936763D01*
X71606000Y-118145590D01*
X71602493Y-118132506D01*
X71589410Y-118129000D01*
X70799067Y-118129000D01*
X70787922Y-118131620D01*
X70392077Y-118131620D01*
X70380933Y-118129000D01*
X69590590Y-118129000D01*
X69577506Y-118132506D01*
X69574000Y-118145590D01*
X69574000Y-118936763D01*
X69066000Y-118936763D01*
X69066000Y-118145590D01*
X69062493Y-118132506D01*
X69049410Y-118129000D01*
X68259067Y-118129000D01*
X68247922Y-118131620D01*
X67877187Y-118131620D01*
X67867410Y-118129000D01*
X67050590Y-118129000D01*
X67037506Y-118132506D01*
X67034000Y-118145590D01*
X67034000Y-118962409D01*
X66526000Y-118962409D01*
X66526000Y-118145590D01*
X66522493Y-118132506D01*
X66509410Y-118129000D01*
X65692591Y-118129000D01*
X65679507Y-118132506D01*
X65676001Y-118145590D01*
X65676001Y-118743828D01*
X64230000Y-118743828D01*
X64230000Y-117604410D01*
X65676000Y-117604410D01*
X65679506Y-117617493D01*
X65692590Y-117621000D01*
X66509410Y-117621000D01*
X66522493Y-117617493D01*
X66526000Y-117604410D01*
X67034000Y-117604410D01*
X67037506Y-117617493D01*
X67050590Y-117621000D01*
X67867409Y-117621000D01*
X67877187Y-117618379D01*
X68247922Y-117618379D01*
X68259067Y-117621000D01*
X69049410Y-117621000D01*
X69062493Y-117617493D01*
X69066000Y-117604410D01*
X69574000Y-117604410D01*
X69577506Y-117617493D01*
X69590590Y-117621000D01*
X70380933Y-117621000D01*
X70392077Y-117618379D01*
X70787922Y-117618379D01*
X70799067Y-117621000D01*
X71589410Y-117621000D01*
X71602493Y-117617493D01*
X71606000Y-117604410D01*
X71606000Y-116813237D01*
X71603559Y-116802295D01*
X71592358Y-116801907D01*
X71562307Y-116807524D01*
X71551146Y-116810700D01*
X71371228Y-116880401D01*
X71360846Y-116885571D01*
X71196796Y-116987145D01*
X71187533Y-116994140D01*
X71044944Y-117124127D01*
X71037126Y-117132703D01*
X70920850Y-117286678D01*
X70914742Y-117296543D01*
X70828734Y-117469270D01*
X70824546Y-117480081D01*
X70788451Y-117606938D01*
X70787922Y-117618379D01*
X70392077Y-117618379D01*
X70391548Y-117606938D01*
X70355453Y-117480081D01*
X70351265Y-117469270D01*
X70265257Y-117296543D01*
X70259149Y-117286678D01*
X70142873Y-117132703D01*
X70135055Y-117124127D01*
X69992466Y-116994140D01*
X69983203Y-116987145D01*
X69819153Y-116885571D01*
X69808771Y-116880401D01*
X69628853Y-116810700D01*
X69617692Y-116807524D01*
X69587641Y-116801907D01*
X69576440Y-116802295D01*
X69574000Y-116813237D01*
X69574000Y-117604410D01*
X69066000Y-117604410D01*
X69066000Y-116813237D01*
X69063559Y-116802295D01*
X69052358Y-116801907D01*
X69022307Y-116807524D01*
X69011146Y-116810700D01*
X68831228Y-116880401D01*
X68820846Y-116885571D01*
X68656796Y-116987145D01*
X68647533Y-116994140D01*
X68504944Y-117124127D01*
X68497126Y-117132703D01*
X68380850Y-117286678D01*
X68374742Y-117296543D01*
X68288734Y-117469270D01*
X68284546Y-117480081D01*
X68248451Y-117606938D01*
X68247922Y-117618379D01*
X67877187Y-117618379D01*
X67880492Y-117617493D01*
X67883999Y-117604410D01*
X67883999Y-117006172D01*
X67882791Y-116993912D01*
X67871684Y-116938069D01*
X67862366Y-116915573D01*
X67820016Y-116852191D01*
X67802808Y-116834983D01*
X67739425Y-116792632D01*
X67716933Y-116783315D01*
X67661085Y-116772207D01*
X67648830Y-116771000D01*
X67050590Y-116771000D01*
X67037506Y-116774506D01*
X67034000Y-116787590D01*
X67034000Y-117604410D01*
X66526000Y-117604410D01*
X66526000Y-116787591D01*
X66522493Y-116774507D01*
X66509410Y-116771001D01*
X65911172Y-116771001D01*
X65898912Y-116772208D01*
X65843069Y-116783315D01*
X65820573Y-116792633D01*
X65757191Y-116834983D01*
X65739983Y-116852191D01*
X65697632Y-116915574D01*
X65688315Y-116938066D01*
X65677207Y-116993914D01*
X65676000Y-117006170D01*
X65676000Y-117604410D01*
X64230000Y-117604410D01*
X64230000Y-114060000D01*
X59150000Y-114060000D01*
X58261500Y-114060000D01*
X58261500Y-102748052D01*
X58280813Y-102681016D01*
X58332831Y-102634530D01*
X58401608Y-102622844D01*
X58466060Y-102649541D01*
X58506429Y-102706437D01*
X58526700Y-102764370D01*
X58532802Y-102777041D01*
X58621662Y-102918461D01*
X58630438Y-102929465D01*
X58748534Y-103047561D01*
X58759538Y-103056337D01*
X58900958Y-103145197D01*
X58913629Y-103151299D01*
X59071281Y-103206463D01*
X59084989Y-103209592D01*
X59209342Y-103223604D01*
X59216388Y-103224000D01*
X59387410Y-103224000D01*
X59400493Y-103220493D01*
X59404000Y-103207410D01*
X59912000Y-103207410D01*
X59915506Y-103220493D01*
X59928590Y-103224000D01*
X60099612Y-103224000D01*
X60106657Y-103223604D01*
X60231010Y-103209592D01*
X60244718Y-103206463D01*
X60402370Y-103151299D01*
X60415041Y-103145197D01*
X60556461Y-103056337D01*
X60567465Y-103047561D01*
X60685561Y-102929465D01*
X60694337Y-102918461D01*
X60783197Y-102777041D01*
X60789299Y-102764370D01*
X60815936Y-102688245D01*
X60817070Y-102676732D01*
X60805827Y-102674000D01*
X59928590Y-102674000D01*
X59915506Y-102677506D01*
X59912000Y-102690590D01*
X59912000Y-103207410D01*
X59404000Y-103207410D01*
X59404000Y-102214466D01*
X61876682Y-102214466D01*
X61885852Y-102221599D01*
X62021074Y-102281802D01*
X62033574Y-102285864D01*
X62206527Y-102322627D01*
X62219586Y-102324000D01*
X62396414Y-102324000D01*
X62409472Y-102322627D01*
X62582425Y-102285864D01*
X62594925Y-102281802D01*
X62730145Y-102221599D01*
X62739316Y-102214466D01*
X62733311Y-102204521D01*
X62319729Y-101790939D01*
X62307999Y-101784167D01*
X62296271Y-101790938D01*
X61882687Y-102204521D01*
X61876682Y-102214466D01*
X59404000Y-102214466D01*
X59404000Y-102149410D01*
X59912000Y-102149410D01*
X59915506Y-102162493D01*
X59928590Y-102166000D01*
X60805827Y-102166000D01*
X60817070Y-102163267D01*
X60815936Y-102151754D01*
X60789299Y-102075629D01*
X60783197Y-102062958D01*
X60694337Y-101921538D01*
X60685561Y-101910534D01*
X60567465Y-101792438D01*
X60556461Y-101783662D01*
X60415041Y-101694802D01*
X60402370Y-101688700D01*
X60244718Y-101633536D01*
X60231010Y-101630407D01*
X60106657Y-101616395D01*
X60099612Y-101616000D01*
X59928590Y-101616000D01*
X59915506Y-101619506D01*
X59912000Y-101632590D01*
X59912000Y-102149410D01*
X59404000Y-102149410D01*
X59404000Y-101632590D01*
X59400493Y-101619506D01*
X59387410Y-101616000D01*
X59216388Y-101616000D01*
X59209342Y-101616395D01*
X59084989Y-101630407D01*
X59071281Y-101633536D01*
X58913629Y-101688700D01*
X58900958Y-101694802D01*
X58759538Y-101783662D01*
X58748534Y-101792438D01*
X58630438Y-101910534D01*
X58621662Y-101921538D01*
X58532802Y-102062958D01*
X58526700Y-102075629D01*
X58506429Y-102133563D01*
X58466060Y-102190459D01*
X58401608Y-102217156D01*
X58332831Y-102205470D01*
X58280813Y-102158984D01*
X58261500Y-102091948D01*
X58261500Y-101426565D01*
X61399711Y-101426565D01*
X61418194Y-101602423D01*
X61420923Y-101615264D01*
X61475563Y-101783430D01*
X61480910Y-101795437D01*
X61507498Y-101841490D01*
X61515301Y-101849821D01*
X61524994Y-101843794D01*
X61937059Y-101431730D01*
X61943832Y-101419999D01*
X62672167Y-101419999D01*
X62678939Y-101431729D01*
X63091000Y-101843790D01*
X63100697Y-101849820D01*
X63108501Y-101841489D01*
X63135089Y-101795437D01*
X63140436Y-101783430D01*
X63195076Y-101615264D01*
X63197805Y-101602423D01*
X63216289Y-101426565D01*
X63216289Y-101413435D01*
X63197805Y-101237576D01*
X63195076Y-101224735D01*
X63140433Y-101056561D01*
X63135095Y-101044571D01*
X63108500Y-100998509D01*
X63100697Y-100990177D01*
X63091003Y-100996205D01*
X62678938Y-101408271D01*
X62672167Y-101419999D01*
X61943832Y-101419999D01*
X61937060Y-101408270D01*
X61524996Y-100996206D01*
X61515301Y-100990177D01*
X61507499Y-100998508D01*
X61480910Y-101044561D01*
X61475563Y-101056569D01*
X61420923Y-101224735D01*
X61418194Y-101237576D01*
X61399711Y-101413435D01*
X61399711Y-101426565D01*
X58261500Y-101426565D01*
X58261500Y-100625533D01*
X61876683Y-100625533D01*
X61882688Y-100635478D01*
X62296270Y-101049060D01*
X62307999Y-101055832D01*
X62319730Y-101049059D01*
X62733313Y-100635475D01*
X62739317Y-100625532D01*
X62730146Y-100618399D01*
X62594925Y-100558197D01*
X62582425Y-100554135D01*
X62409472Y-100517372D01*
X62396414Y-100516000D01*
X62219586Y-100516000D01*
X62206527Y-100517372D01*
X62033574Y-100554135D01*
X62021074Y-100558197D01*
X61885854Y-100618400D01*
X61876683Y-100625533D01*
X58261500Y-100625533D01*
X58261500Y-97014466D01*
X61876682Y-97014466D01*
X61885852Y-97021599D01*
X62021074Y-97081802D01*
X62033574Y-97085864D01*
X62206527Y-97122627D01*
X62219586Y-97124000D01*
X62396414Y-97124000D01*
X62409472Y-97122627D01*
X62582425Y-97085864D01*
X62594925Y-97081802D01*
X62730145Y-97021599D01*
X62739316Y-97014466D01*
X62733311Y-97004521D01*
X62319729Y-96590939D01*
X62307999Y-96584167D01*
X62296271Y-96590938D01*
X61882687Y-97004521D01*
X61876682Y-97014466D01*
X58261500Y-97014466D01*
X58261500Y-96226565D01*
X61399711Y-96226565D01*
X61418194Y-96402423D01*
X61420923Y-96415264D01*
X61475563Y-96583430D01*
X61480910Y-96595437D01*
X61507498Y-96641490D01*
X61515301Y-96649821D01*
X61524994Y-96643794D01*
X61937059Y-96231730D01*
X61943832Y-96219999D01*
X62672167Y-96219999D01*
X62678939Y-96231729D01*
X63091000Y-96643790D01*
X63100697Y-96649820D01*
X63108501Y-96641489D01*
X63135089Y-96595437D01*
X63140436Y-96583430D01*
X63195076Y-96415264D01*
X63197805Y-96402423D01*
X63216289Y-96226565D01*
X63216289Y-96213435D01*
X63197805Y-96037576D01*
X63195076Y-96024735D01*
X63140433Y-95856561D01*
X63135095Y-95844571D01*
X63108500Y-95798509D01*
X63100697Y-95790177D01*
X63091003Y-95796205D01*
X62678938Y-96208271D01*
X62672167Y-96219999D01*
X61943832Y-96219999D01*
X61937060Y-96208270D01*
X61524996Y-95796206D01*
X61515301Y-95790177D01*
X61507499Y-95798508D01*
X61480910Y-95844561D01*
X61475563Y-95856569D01*
X61420923Y-96024735D01*
X61418194Y-96037576D01*
X61399711Y-96213435D01*
X61399711Y-96226565D01*
X58261500Y-96226565D01*
X58261500Y-95548052D01*
X58280813Y-95481016D01*
X58332831Y-95434530D01*
X58401608Y-95422844D01*
X58466060Y-95449541D01*
X58506429Y-95506437D01*
X58526700Y-95564370D01*
X58532802Y-95577041D01*
X58621662Y-95718461D01*
X58630438Y-95729465D01*
X58748534Y-95847561D01*
X58759538Y-95856337D01*
X58900958Y-95945197D01*
X58913629Y-95951299D01*
X59071281Y-96006463D01*
X59084989Y-96009592D01*
X59209342Y-96023604D01*
X59216388Y-96024000D01*
X59387410Y-96024000D01*
X59400493Y-96020493D01*
X59404000Y-96007410D01*
X59912000Y-96007410D01*
X59915506Y-96020493D01*
X59928590Y-96024000D01*
X60099612Y-96024000D01*
X60106657Y-96023604D01*
X60231010Y-96009592D01*
X60244718Y-96006463D01*
X60402370Y-95951299D01*
X60415041Y-95945197D01*
X60556461Y-95856337D01*
X60567465Y-95847561D01*
X60685561Y-95729465D01*
X60694337Y-95718461D01*
X60783197Y-95577041D01*
X60789299Y-95564370D01*
X60815936Y-95488245D01*
X60817070Y-95476732D01*
X60805827Y-95474000D01*
X59928590Y-95474000D01*
X59915506Y-95477506D01*
X59912000Y-95490590D01*
X59912000Y-96007410D01*
X59404000Y-96007410D01*
X59404000Y-95425533D01*
X61876683Y-95425533D01*
X61882688Y-95435478D01*
X62296270Y-95849060D01*
X62307999Y-95855832D01*
X62319730Y-95849059D01*
X62733313Y-95435475D01*
X62739317Y-95425532D01*
X62730146Y-95418399D01*
X62594925Y-95358197D01*
X62582425Y-95354135D01*
X62409472Y-95317372D01*
X62396414Y-95316000D01*
X62219586Y-95316000D01*
X62206527Y-95317372D01*
X62033574Y-95354135D01*
X62021074Y-95358197D01*
X61885854Y-95418400D01*
X61876683Y-95425533D01*
X59404000Y-95425533D01*
X59404000Y-94949410D01*
X59912000Y-94949410D01*
X59915506Y-94962493D01*
X59928590Y-94966000D01*
X60805827Y-94966000D01*
X60817070Y-94963267D01*
X60815936Y-94951754D01*
X60789299Y-94875629D01*
X60783197Y-94862958D01*
X60694337Y-94721538D01*
X60685561Y-94710534D01*
X60567465Y-94592438D01*
X60556461Y-94583662D01*
X60415041Y-94494802D01*
X60402370Y-94488700D01*
X60244718Y-94433536D01*
X60231010Y-94430407D01*
X60106657Y-94416395D01*
X60099612Y-94416000D01*
X59928590Y-94416000D01*
X59915506Y-94419506D01*
X59912000Y-94432590D01*
X59912000Y-94949410D01*
X59404000Y-94949410D01*
X59404000Y-94432590D01*
X59400493Y-94419506D01*
X59387410Y-94416000D01*
X59216388Y-94416000D01*
X59209342Y-94416395D01*
X59084989Y-94430407D01*
X59071281Y-94433536D01*
X58913629Y-94488700D01*
X58900958Y-94494802D01*
X58759538Y-94583662D01*
X58748534Y-94592438D01*
X58630438Y-94710534D01*
X58621662Y-94721538D01*
X58532802Y-94862958D01*
X58526700Y-94875629D01*
X58506429Y-94933563D01*
X58466060Y-94990459D01*
X58401608Y-95017156D01*
X58332831Y-95005470D01*
X58280813Y-94958984D01*
X58261500Y-94891948D01*
X58261500Y-91327000D01*
X64224271Y-91327000D01*
X64245081Y-91471734D01*
X64248822Y-91479926D01*
X64248824Y-91479932D01*
X64294480Y-91579904D01*
X64305824Y-91604743D01*
X64401579Y-91715250D01*
X64524589Y-91794304D01*
X64664889Y-91835500D01*
X64802102Y-91835500D01*
X64811111Y-91835500D01*
X64951411Y-91794304D01*
X65074421Y-91715250D01*
X65078165Y-91710928D01*
X65114375Y-91689444D01*
X65158408Y-91681500D01*
X70310241Y-91681500D01*
X70358459Y-91691091D01*
X70399336Y-91718405D01*
X77948477Y-99267546D01*
X77976356Y-99309810D01*
X77985346Y-99359636D01*
X77973998Y-99408979D01*
X77964825Y-99429066D01*
X77964823Y-99429070D01*
X77961081Y-99437266D01*
X77959798Y-99446188D01*
X77959798Y-99446189D01*
X77959290Y-99449724D01*
X77940271Y-99582000D01*
X77961081Y-99726734D01*
X77964822Y-99734926D01*
X77964824Y-99734932D01*
X78009905Y-99833645D01*
X78021824Y-99859743D01*
X78039482Y-99880121D01*
X78102068Y-99952350D01*
X78117579Y-99970250D01*
X78240589Y-100049304D01*
X78380889Y-100090500D01*
X78518102Y-100090500D01*
X78527111Y-100090500D01*
X78667411Y-100049304D01*
X78790421Y-99970250D01*
X78868520Y-99880118D01*
X78925376Y-99842616D01*
X78993447Y-99840185D01*
X79052837Y-99873538D01*
X81008728Y-101829429D01*
X81023257Y-101847320D01*
X81024510Y-101848681D01*
X81030217Y-101857416D01*
X81038453Y-101863826D01*
X81054093Y-101876000D01*
X81058137Y-101879285D01*
X81061058Y-101881759D01*
X81064741Y-101885442D01*
X81068975Y-101888465D01*
X81068981Y-101888470D01*
X81080562Y-101896738D01*
X81084721Y-101899838D01*
X81123582Y-101930085D01*
X81130680Y-101932521D01*
X81136790Y-101936884D01*
X81178390Y-101949269D01*
X81183973Y-101950931D01*
X81188932Y-101952520D01*
X81213424Y-101960927D01*
X81235482Y-101968500D01*
X81242987Y-101968500D01*
X81250182Y-101970642D01*
X81299352Y-101968607D01*
X81304560Y-101968500D01*
X81462592Y-101968500D01*
X81506625Y-101976444D01*
X81542834Y-101997928D01*
X81546579Y-102002250D01*
X81554159Y-102007121D01*
X81554161Y-102007123D01*
X81567978Y-102016003D01*
X81610444Y-102061615D01*
X81625856Y-102122000D01*
X81610444Y-102182385D01*
X81567978Y-102227997D01*
X81554161Y-102236876D01*
X81554155Y-102236881D01*
X81546579Y-102241750D01*
X81540681Y-102248555D01*
X81540678Y-102248559D01*
X81456726Y-102345445D01*
X81456724Y-102345447D01*
X81450824Y-102352257D01*
X81447081Y-102360450D01*
X81447080Y-102360454D01*
X81393824Y-102477067D01*
X81393821Y-102477075D01*
X81390081Y-102485266D01*
X81369271Y-102630000D01*
X81390081Y-102774734D01*
X81393822Y-102782926D01*
X81393824Y-102782932D01*
X81447080Y-102899545D01*
X81450824Y-102907743D01*
X81546579Y-103018250D01*
X81669589Y-103097304D01*
X81788052Y-103132088D01*
X81835067Y-103157760D01*
X81867168Y-103200642D01*
X81878554Y-103252984D01*
X81878554Y-103256077D01*
X81877271Y-103265000D01*
X81893975Y-103381181D01*
X81888328Y-103440321D01*
X81856208Y-103490301D01*
X81804757Y-103520006D01*
X81669589Y-103559696D01*
X81662011Y-103564566D01*
X81662009Y-103564567D01*
X81554159Y-103633878D01*
X81554156Y-103633880D01*
X81546579Y-103638750D01*
X81540681Y-103645555D01*
X81540678Y-103645559D01*
X81456726Y-103742445D01*
X81456724Y-103742447D01*
X81450824Y-103749257D01*
X81447081Y-103757450D01*
X81447080Y-103757454D01*
X81393824Y-103874067D01*
X81393821Y-103874075D01*
X81390081Y-103882266D01*
X81369271Y-104027000D01*
X81390081Y-104171734D01*
X81393822Y-104179926D01*
X81393824Y-104179932D01*
X81419959Y-104237158D01*
X81431024Y-104298489D01*
X81411343Y-104357621D01*
X81365730Y-104400088D01*
X81305345Y-104415500D01*
X80320188Y-104415500D01*
X74454140Y-104415500D01*
X74435879Y-104414170D01*
X74419353Y-104411749D01*
X74419349Y-104411748D01*
X74412093Y-104410686D01*
X74404787Y-104411325D01*
X74404783Y-104411325D01*
X74362543Y-104415021D01*
X74351562Y-104415500D01*
X74346059Y-104415500D01*
X74315080Y-104419120D01*
X74311471Y-104419488D01*
X74243699Y-104425418D01*
X74243696Y-104425418D01*
X74236388Y-104426058D01*
X74229427Y-104428364D01*
X74226231Y-104429024D01*
X74225739Y-104429103D01*
X74225261Y-104429239D01*
X74222099Y-104429988D01*
X74214816Y-104430840D01*
X74207924Y-104433348D01*
X74207925Y-104433348D01*
X74143955Y-104456629D01*
X74140500Y-104457829D01*
X74075931Y-104479226D01*
X74075921Y-104479230D01*
X74068964Y-104481536D01*
X74062722Y-104485385D01*
X74059777Y-104486759D01*
X74059307Y-104486953D01*
X74058876Y-104487194D01*
X74055961Y-104488657D01*
X74049076Y-104491164D01*
X74042956Y-104495188D01*
X74042950Y-104495192D01*
X74010217Y-104516721D01*
X73964961Y-104535145D01*
X73916100Y-104534967D01*
X73870980Y-104516214D01*
X73866016Y-104512897D01*
X73866015Y-104512896D01*
X73855697Y-104506002D01*
X73847765Y-104504424D01*
X73810483Y-104479512D01*
X73785575Y-104442231D01*
X73783998Y-104434303D01*
X73775890Y-104422168D01*
X73757351Y-104378090D01*
X73756571Y-104330276D01*
X73768305Y-104299616D01*
X73766538Y-104298792D01*
X73766537Y-104298792D01*
X73766539Y-104298791D01*
X73798445Y-104230365D01*
X73799940Y-104227276D01*
X73833824Y-104159811D01*
X73835518Y-104152658D01*
X73836615Y-104149647D01*
X73836819Y-104149153D01*
X73836959Y-104148662D01*
X73837975Y-104145594D01*
X73841079Y-104138940D01*
X73856329Y-104065081D01*
X73857120Y-104061515D01*
X73874500Y-103988188D01*
X73874500Y-103980844D01*
X73874875Y-103977637D01*
X73874958Y-103977122D01*
X73874980Y-103976624D01*
X73875262Y-103973388D01*
X73876746Y-103966206D01*
X73874553Y-103890839D01*
X73874500Y-103887174D01*
X73874500Y-98488448D01*
X73875292Y-98474340D01*
X73878482Y-98446029D01*
X73879274Y-98439000D01*
X73874627Y-98397763D01*
X73874500Y-98396269D01*
X73874500Y-98395059D01*
X73869579Y-98352965D01*
X73860237Y-98270046D01*
X73859713Y-98268549D01*
X73859160Y-98263816D01*
X73830861Y-98186064D01*
X73830341Y-98184608D01*
X73818627Y-98151132D01*
X73804082Y-98109563D01*
X73801936Y-98106148D01*
X73801345Y-98104973D01*
X73798836Y-98098076D01*
X73775606Y-98062757D01*
X73755404Y-98032041D01*
X73753988Y-98029839D01*
X73717390Y-97971593D01*
X73717388Y-97971590D01*
X73713624Y-97965600D01*
X73709416Y-97961392D01*
X73707215Y-97958357D01*
X73705947Y-97956847D01*
X73701915Y-97950715D01*
X73647078Y-97898979D01*
X73644449Y-97896425D01*
X73598402Y-97850378D01*
X73593400Y-97845376D01*
X73587415Y-97841615D01*
X73584151Y-97839012D01*
X73580627Y-97835954D01*
X73578958Y-97834712D01*
X73573623Y-97829678D01*
X73528312Y-97803517D01*
X73511508Y-97793815D01*
X73507474Y-97791384D01*
X73455428Y-97758682D01*
X73455425Y-97758680D01*
X73449437Y-97754918D01*
X73442759Y-97752581D01*
X73436386Y-97749512D01*
X73436515Y-97749244D01*
X73433603Y-97747908D01*
X73427233Y-97745160D01*
X73420876Y-97741490D01*
X73413848Y-97739386D01*
X73413839Y-97739382D01*
X73355665Y-97721966D01*
X73350198Y-97720193D01*
X73288954Y-97698763D01*
X73281928Y-97697971D01*
X73278366Y-97697158D01*
X73260833Y-97693576D01*
X73258943Y-97693010D01*
X73258936Y-97693008D01*
X73251909Y-97690905D01*
X73244583Y-97690478D01*
X73244582Y-97690478D01*
X73187619Y-97687159D01*
X73180843Y-97686580D01*
X73127032Y-97680518D01*
X73127030Y-97680518D01*
X73120000Y-97679726D01*
X73112970Y-97680518D01*
X73112965Y-97680518D01*
X73110229Y-97680826D01*
X73088815Y-97681404D01*
X73083164Y-97681075D01*
X73083155Y-97681075D01*
X73075831Y-97680649D01*
X73068607Y-97681922D01*
X73068601Y-97681923D01*
X73016017Y-97691195D01*
X73008248Y-97692317D01*
X72958077Y-97697970D01*
X72958070Y-97697971D01*
X72951046Y-97698763D01*
X72944371Y-97701098D01*
X72944364Y-97701100D01*
X72938283Y-97703228D01*
X72918569Y-97708378D01*
X72909361Y-97710002D01*
X72909356Y-97710003D01*
X72902134Y-97711277D01*
X72895404Y-97714179D01*
X72895397Y-97714182D01*
X72849727Y-97733882D01*
X72841440Y-97737115D01*
X72810596Y-97747908D01*
X72790563Y-97754918D01*
X72784576Y-97758679D01*
X72784573Y-97758681D01*
X72776002Y-97764066D01*
X72758885Y-97773067D01*
X72746919Y-97778229D01*
X72746914Y-97778231D01*
X72740182Y-97781136D01*
X72734301Y-97785513D01*
X72734296Y-97785517D01*
X72697346Y-97813025D01*
X72689145Y-97818642D01*
X72652590Y-97841611D01*
X72652583Y-97841616D01*
X72646600Y-97845376D01*
X72641598Y-97850377D01*
X72641590Y-97850384D01*
X72631839Y-97860135D01*
X72617992Y-97872102D01*
X72604595Y-97882075D01*
X72604586Y-97882082D01*
X72598706Y-97886461D01*
X72593993Y-97892077D01*
X72593985Y-97892085D01*
X72566729Y-97924567D01*
X72559308Y-97932666D01*
X72531381Y-97960594D01*
X72531377Y-97960598D01*
X72526376Y-97965600D01*
X72522612Y-97971589D01*
X72522608Y-97971595D01*
X72513312Y-97986389D01*
X72503152Y-98000336D01*
X72490050Y-98015950D01*
X72490045Y-98015956D01*
X72485333Y-98021573D01*
X72482040Y-98028128D01*
X72482039Y-98028131D01*
X72464648Y-98062757D01*
X72458742Y-98073237D01*
X72439682Y-98103572D01*
X72435918Y-98109563D01*
X72433583Y-98116235D01*
X72433579Y-98116244D01*
X72426594Y-98136206D01*
X72420265Y-98151132D01*
X72406176Y-98179189D01*
X72404486Y-98186317D01*
X72404484Y-98186324D01*
X72396394Y-98220458D01*
X72392722Y-98233008D01*
X72379763Y-98270046D01*
X72378970Y-98277075D01*
X72378969Y-98277084D01*
X72376190Y-98301741D01*
X72373587Y-98316683D01*
X72367192Y-98343666D01*
X72367190Y-98343679D01*
X72365500Y-98350812D01*
X72365500Y-98358149D01*
X72365500Y-98389552D01*
X72364708Y-98403659D01*
X72360726Y-98439000D01*
X72361518Y-98446029D01*
X72364708Y-98474340D01*
X72365500Y-98488448D01*
X72365500Y-103535286D01*
X72355909Y-103583504D01*
X72328595Y-103624380D01*
X67568846Y-108384130D01*
X66470537Y-109482438D01*
X66291844Y-109661131D01*
X66277996Y-109673099D01*
X66264593Y-109683077D01*
X66264587Y-109683082D01*
X66258706Y-109687461D01*
X66253990Y-109693080D01*
X66253989Y-109693082D01*
X66226727Y-109725570D01*
X66219326Y-109733648D01*
X66218016Y-109734958D01*
X66218002Y-109734973D01*
X66215417Y-109737559D01*
X66213148Y-109740428D01*
X66213144Y-109740433D01*
X66196114Y-109761970D01*
X66193804Y-109764806D01*
X66150046Y-109816955D01*
X66150042Y-109816960D01*
X66145333Y-109822573D01*
X66142044Y-109829119D01*
X66140247Y-109831853D01*
X66139960Y-109832250D01*
X66139716Y-109832688D01*
X66138006Y-109835459D01*
X66133461Y-109841209D01*
X66130363Y-109847851D01*
X66130362Y-109847854D01*
X66101597Y-109909540D01*
X66100018Y-109912800D01*
X66066176Y-109980189D01*
X66064484Y-109987325D01*
X66063373Y-109990378D01*
X66063178Y-109990848D01*
X66063046Y-109991315D01*
X66062017Y-109994417D01*
X66058921Y-110001060D01*
X66057440Y-110008231D01*
X66057436Y-110008244D01*
X66043671Y-110074903D01*
X66042879Y-110078476D01*
X66027192Y-110144667D01*
X66027190Y-110144678D01*
X66025500Y-110151812D01*
X66025500Y-110159146D01*
X66025124Y-110162364D01*
X66025041Y-110162873D01*
X66025020Y-110163376D01*
X66024736Y-110166613D01*
X66023254Y-110173794D01*
X66023467Y-110181120D01*
X66023467Y-110181123D01*
X66025447Y-110249161D01*
X66025500Y-110252826D01*
X66025500Y-114472613D01*
X66014764Y-114523506D01*
X65984387Y-114565727D01*
X65964574Y-114583788D01*
X65964565Y-114583797D01*
X65960268Y-114587715D01*
X65956763Y-114592355D01*
X65956755Y-114592365D01*
X65840422Y-114746416D01*
X65840418Y-114746421D01*
X65836912Y-114751065D01*
X65834317Y-114756274D01*
X65834314Y-114756281D01*
X65748271Y-114929079D01*
X65745672Y-114934299D01*
X65744078Y-114939899D01*
X65744076Y-114939906D01*
X65703932Y-115081000D01*
X65689655Y-115131179D01*
X65689118Y-115136972D01*
X65689116Y-115136984D01*
X65671306Y-115329194D01*
X65670768Y-115335000D01*
X65671306Y-115340806D01*
X65689116Y-115533015D01*
X65689117Y-115533025D01*
X65689655Y-115538821D01*
X65691249Y-115544426D01*
X65691250Y-115544427D01*
X65744026Y-115729918D01*
X65745672Y-115735701D01*
X65779727Y-115804093D01*
X65825283Y-115895582D01*
X65836912Y-115918935D01*
X65840421Y-115923582D01*
X65840422Y-115923583D01*
X65956755Y-116077634D01*
X65956759Y-116077638D01*
X65960268Y-116082285D01*
X65964570Y-116086207D01*
X65964573Y-116086210D01*
X66028954Y-116144901D01*
X66111538Y-116220186D01*
X66116489Y-116223251D01*
X66116491Y-116223253D01*
X66190992Y-116269382D01*
X66285573Y-116327944D01*
X66476444Y-116401888D01*
X66677653Y-116439500D01*
X66876519Y-116439500D01*
X66882347Y-116439500D01*
X67083556Y-116401888D01*
X67274427Y-116327944D01*
X67448462Y-116220186D01*
X67599732Y-116082285D01*
X67723088Y-115918935D01*
X67814328Y-115735701D01*
X67870345Y-115538821D01*
X67889232Y-115335000D01*
X67872837Y-115158072D01*
X67870883Y-115136984D01*
X67870882Y-115136983D01*
X67870345Y-115131179D01*
X67814328Y-114934299D01*
X67723088Y-114751065D01*
X67654430Y-114660147D01*
X67603244Y-114592365D01*
X67603241Y-114592361D01*
X67599732Y-114587715D01*
X67595428Y-114583791D01*
X67595425Y-114583788D01*
X67575613Y-114565727D01*
X67545236Y-114523506D01*
X67534500Y-114472613D01*
X67534500Y-110604714D01*
X67544091Y-110556496D01*
X67571405Y-110515619D01*
X68085964Y-110001060D01*
X68604583Y-109482441D01*
X68604582Y-109482441D01*
X72233799Y-105853223D01*
X72274671Y-105825913D01*
X72322887Y-105816321D01*
X72371104Y-105825910D01*
X72373983Y-105827102D01*
X72384303Y-105833998D01*
X72392232Y-105835575D01*
X72429513Y-105860485D01*
X72454425Y-105897769D01*
X72456002Y-105905697D01*
X72462894Y-105916012D01*
X72464088Y-105918894D01*
X72473677Y-105967111D01*
X72464085Y-106015327D01*
X72436772Y-106056202D01*
X71361844Y-107131130D01*
X71347996Y-107143099D01*
X71334593Y-107153077D01*
X71334587Y-107153082D01*
X71328706Y-107157461D01*
X71323990Y-107163080D01*
X71323989Y-107163082D01*
X71296727Y-107195570D01*
X71289326Y-107203648D01*
X71288016Y-107204958D01*
X71288002Y-107204973D01*
X71285417Y-107207559D01*
X71283148Y-107210428D01*
X71283144Y-107210433D01*
X71266114Y-107231970D01*
X71263804Y-107234806D01*
X71220046Y-107286955D01*
X71220042Y-107286960D01*
X71215333Y-107292573D01*
X71212044Y-107299119D01*
X71210247Y-107301853D01*
X71209960Y-107302250D01*
X71209716Y-107302688D01*
X71208006Y-107305459D01*
X71203461Y-107311209D01*
X71200363Y-107317851D01*
X71200362Y-107317854D01*
X71171597Y-107379540D01*
X71170018Y-107382800D01*
X71136176Y-107450189D01*
X71134484Y-107457325D01*
X71133373Y-107460378D01*
X71133178Y-107460848D01*
X71133046Y-107461315D01*
X71132017Y-107464417D01*
X71128921Y-107471060D01*
X71127440Y-107478231D01*
X71127436Y-107478244D01*
X71113671Y-107544903D01*
X71112879Y-107548476D01*
X71097192Y-107614667D01*
X71097190Y-107614678D01*
X71095500Y-107621812D01*
X71095500Y-107629146D01*
X71095124Y-107632364D01*
X71095041Y-107632873D01*
X71095020Y-107633376D01*
X71094736Y-107636613D01*
X71093254Y-107643794D01*
X71093467Y-107651120D01*
X71093467Y-107651123D01*
X71095447Y-107719161D01*
X71095500Y-107722826D01*
X71095500Y-108680653D01*
X71094170Y-108698915D01*
X71091748Y-108715445D01*
X71091747Y-108715450D01*
X71090685Y-108722706D01*
X71091324Y-108730011D01*
X71091324Y-108730015D01*
X71095021Y-108772268D01*
X71095500Y-108783249D01*
X71095500Y-108788741D01*
X71099116Y-108819692D01*
X71099484Y-108823294D01*
X71105020Y-108886558D01*
X71105500Y-108897542D01*
X71105500Y-114454500D01*
X71088619Y-114517500D01*
X71042500Y-114563619D01*
X70979500Y-114580500D01*
X70180631Y-114580500D01*
X70135115Y-114571992D01*
X70095746Y-114547615D01*
X69992770Y-114453741D01*
X69992768Y-114453739D01*
X69988462Y-114449814D01*
X69983512Y-114446749D01*
X69983508Y-114446746D01*
X69819387Y-114345127D01*
X69819386Y-114345126D01*
X69814427Y-114342056D01*
X69757760Y-114320103D01*
X69628989Y-114270216D01*
X69628981Y-114270213D01*
X69623556Y-114268112D01*
X69617839Y-114267043D01*
X69617831Y-114267041D01*
X69428073Y-114231570D01*
X69428069Y-114231569D01*
X69422347Y-114230500D01*
X69217653Y-114230500D01*
X69211931Y-114231569D01*
X69211926Y-114231570D01*
X69022168Y-114267041D01*
X69022157Y-114267043D01*
X69016444Y-114268112D01*
X69011021Y-114270212D01*
X69011010Y-114270216D01*
X68831011Y-114339949D01*
X68831008Y-114339950D01*
X68825573Y-114342056D01*
X68820617Y-114345124D01*
X68820612Y-114345127D01*
X68656491Y-114446746D01*
X68656481Y-114446752D01*
X68651538Y-114449814D01*
X68647239Y-114453732D01*
X68647235Y-114453736D01*
X68504573Y-114583789D01*
X68504565Y-114583797D01*
X68500268Y-114587715D01*
X68496763Y-114592355D01*
X68496755Y-114592365D01*
X68380422Y-114746416D01*
X68380418Y-114746421D01*
X68376912Y-114751065D01*
X68374317Y-114756274D01*
X68374314Y-114756281D01*
X68288271Y-114929079D01*
X68285672Y-114934299D01*
X68284078Y-114939899D01*
X68284076Y-114939906D01*
X68243932Y-115081000D01*
X68229655Y-115131179D01*
X68229118Y-115136972D01*
X68229116Y-115136984D01*
X68211306Y-115329194D01*
X68210768Y-115335000D01*
X68211306Y-115340806D01*
X68229116Y-115533015D01*
X68229117Y-115533025D01*
X68229655Y-115538821D01*
X68231249Y-115544426D01*
X68231250Y-115544427D01*
X68284026Y-115729918D01*
X68285672Y-115735701D01*
X68319727Y-115804093D01*
X68365283Y-115895582D01*
X68376912Y-115918935D01*
X68380421Y-115923582D01*
X68380422Y-115923583D01*
X68496755Y-116077634D01*
X68496759Y-116077638D01*
X68500268Y-116082285D01*
X68504570Y-116086207D01*
X68504573Y-116086210D01*
X68568954Y-116144901D01*
X68651538Y-116220186D01*
X68656489Y-116223251D01*
X68656491Y-116223253D01*
X68730992Y-116269382D01*
X68825573Y-116327944D01*
X69016444Y-116401888D01*
X69217653Y-116439500D01*
X69416519Y-116439500D01*
X69422347Y-116439500D01*
X69623556Y-116401888D01*
X69814427Y-116327944D01*
X69988462Y-116220186D01*
X70058914Y-116155961D01*
X70095746Y-116122385D01*
X70135115Y-116098008D01*
X70180631Y-116089500D01*
X70999369Y-116089500D01*
X71044885Y-116098008D01*
X71084254Y-116122385D01*
X71172691Y-116203005D01*
X71191538Y-116220186D01*
X71196489Y-116223251D01*
X71196491Y-116223253D01*
X71270992Y-116269382D01*
X71365573Y-116327944D01*
X71556444Y-116401888D01*
X71757653Y-116439500D01*
X71956519Y-116439500D01*
X71962347Y-116439500D01*
X72163556Y-116401888D01*
X72163723Y-116402782D01*
X72224385Y-116402073D01*
X72281819Y-116434935D01*
X72570995Y-116724111D01*
X72598309Y-116764988D01*
X72607900Y-116813206D01*
X72607900Y-116813374D01*
X72590531Y-116877212D01*
X72543213Y-116923450D01*
X72478991Y-116939340D01*
X72415571Y-116920502D01*
X72359158Y-116885573D01*
X72348771Y-116880401D01*
X72168853Y-116810700D01*
X72157692Y-116807524D01*
X72127641Y-116801907D01*
X72116440Y-116802295D01*
X72114000Y-116813237D01*
X72114000Y-118936763D01*
X72116440Y-118947704D01*
X72127641Y-118948092D01*
X72157692Y-118942475D01*
X72168853Y-118939299D01*
X72348771Y-118869598D01*
X72359153Y-118864428D01*
X72523203Y-118762854D01*
X72532466Y-118755859D01*
X72618094Y-118677799D01*
X72665450Y-118650633D01*
X72719851Y-118646049D01*
X72771084Y-118664905D01*
X72773388Y-118666386D01*
X72794374Y-118683296D01*
X73506502Y-119395424D01*
X73514537Y-119405395D01*
X73514712Y-119405244D01*
X73520612Y-119412052D01*
X73525485Y-119419635D01*
X73561250Y-119450625D01*
X73567833Y-119456755D01*
X73576787Y-119465709D01*
X73580394Y-119468409D01*
X73586929Y-119473301D01*
X73593932Y-119478944D01*
X73593944Y-119478954D01*
X73629691Y-119509929D01*
X73637891Y-119513674D01*
X73644909Y-119518184D01*
X73652213Y-119522172D01*
X73659431Y-119527575D01*
X73703786Y-119544118D01*
X73712059Y-119547545D01*
X73755114Y-119567208D01*
X73764034Y-119568490D01*
X73772032Y-119570838D01*
X73780174Y-119572609D01*
X73788621Y-119575760D01*
X73835821Y-119579135D01*
X73844752Y-119580095D01*
X73857298Y-119581900D01*
X73869964Y-119581900D01*
X73878952Y-119582220D01*
X73926153Y-119585597D01*
X73934956Y-119583681D01*
X73943949Y-119583039D01*
X73943965Y-119583268D01*
X73956696Y-119581900D01*
X103592498Y-119581900D01*
X103605228Y-119583268D01*
X103605245Y-119583039D01*
X103614237Y-119583682D01*
X103623041Y-119585597D01*
X103670241Y-119582220D01*
X103679230Y-119581900D01*
X103687394Y-119581900D01*
X103691896Y-119581900D01*
X103704435Y-119580096D01*
X103713377Y-119579135D01*
X103760573Y-119575760D01*
X103769025Y-119572606D01*
X103777177Y-119570833D01*
X103785153Y-119568490D01*
X103794080Y-119567208D01*
X103837150Y-119547537D01*
X103845400Y-119544120D01*
X103889763Y-119527575D01*
X103896980Y-119522171D01*
X103904286Y-119518183D01*
X103911301Y-119513674D01*
X103919503Y-119509929D01*
X103955262Y-119478942D01*
X103962264Y-119473301D01*
X103972407Y-119465709D01*
X103981374Y-119456740D01*
X103987930Y-119450636D01*
X104023709Y-119419635D01*
X104028581Y-119412051D01*
X104034483Y-119405242D01*
X104034657Y-119405393D01*
X104042683Y-119395431D01*
X104421714Y-119016400D01*
X104462588Y-118989090D01*
X104510806Y-118979499D01*
X105753878Y-118979499D01*
X105760066Y-118979499D01*
X105834301Y-118964734D01*
X105918484Y-118908484D01*
X105974734Y-118824301D01*
X105989500Y-118750067D01*
X105989499Y-118131620D01*
X106352922Y-118131620D01*
X106353451Y-118143061D01*
X106389546Y-118269918D01*
X106393734Y-118280729D01*
X106479742Y-118453456D01*
X106485850Y-118463321D01*
X106602126Y-118617296D01*
X106609944Y-118625872D01*
X106752533Y-118755859D01*
X106761796Y-118762854D01*
X106925846Y-118864428D01*
X106936228Y-118869598D01*
X107116146Y-118939299D01*
X107127307Y-118942475D01*
X107157358Y-118948092D01*
X107168559Y-118947704D01*
X107171000Y-118936763D01*
X107679000Y-118936763D01*
X107681440Y-118947704D01*
X107692641Y-118948092D01*
X107722692Y-118942475D01*
X107733853Y-118939299D01*
X107913771Y-118869598D01*
X107924153Y-118864428D01*
X108088203Y-118762854D01*
X108097466Y-118755859D01*
X108240055Y-118625872D01*
X108247873Y-118617296D01*
X108364149Y-118463321D01*
X108370257Y-118453456D01*
X108456265Y-118280729D01*
X108460453Y-118269918D01*
X108496548Y-118143061D01*
X108497077Y-118131620D01*
X108892922Y-118131620D01*
X108893451Y-118143061D01*
X108929546Y-118269918D01*
X108933734Y-118280729D01*
X109019742Y-118453456D01*
X109025850Y-118463321D01*
X109142126Y-118617296D01*
X109149944Y-118625872D01*
X109292533Y-118755859D01*
X109301796Y-118762854D01*
X109465846Y-118864428D01*
X109476228Y-118869598D01*
X109656146Y-118939299D01*
X109667307Y-118942475D01*
X109697358Y-118948092D01*
X109708559Y-118947704D01*
X109711000Y-118936763D01*
X110219000Y-118936763D01*
X110221440Y-118947704D01*
X110232641Y-118948092D01*
X110262692Y-118942475D01*
X110273853Y-118939299D01*
X110453771Y-118869598D01*
X110464153Y-118864428D01*
X110628203Y-118762854D01*
X110637466Y-118755859D01*
X110780055Y-118625872D01*
X110787873Y-118617296D01*
X110904149Y-118463321D01*
X110910257Y-118453456D01*
X110996265Y-118280729D01*
X111000453Y-118269918D01*
X111036548Y-118143061D01*
X111037077Y-118131620D01*
X111025933Y-118129000D01*
X110235590Y-118129000D01*
X110222506Y-118132506D01*
X110219000Y-118145590D01*
X110219000Y-118936763D01*
X109711000Y-118936763D01*
X109711000Y-118145590D01*
X109707493Y-118132506D01*
X109694410Y-118129000D01*
X108904067Y-118129000D01*
X108892922Y-118131620D01*
X108497077Y-118131620D01*
X108485933Y-118129000D01*
X107695590Y-118129000D01*
X107682506Y-118132506D01*
X107679000Y-118145590D01*
X107679000Y-118936763D01*
X107171000Y-118936763D01*
X107171000Y-118145590D01*
X107167493Y-118132506D01*
X107154410Y-118129000D01*
X106364067Y-118129000D01*
X106352922Y-118131620D01*
X105989499Y-118131620D01*
X105989499Y-117618379D01*
X106352922Y-117618379D01*
X106364067Y-117621000D01*
X107154410Y-117621000D01*
X107167493Y-117617493D01*
X107171000Y-117604410D01*
X107679000Y-117604410D01*
X107682506Y-117617493D01*
X107695590Y-117621000D01*
X108485933Y-117621000D01*
X108497077Y-117618379D01*
X108892922Y-117618379D01*
X108904067Y-117621000D01*
X109694410Y-117621000D01*
X109707493Y-117617493D01*
X109711000Y-117604410D01*
X110219000Y-117604410D01*
X110222506Y-117617493D01*
X110235590Y-117621000D01*
X111025933Y-117621000D01*
X111037077Y-117618379D01*
X111036548Y-117606938D01*
X111000453Y-117480081D01*
X110996265Y-117469270D01*
X110910257Y-117296543D01*
X110904149Y-117286678D01*
X110787873Y-117132703D01*
X110780055Y-117124127D01*
X110637466Y-116994140D01*
X110628203Y-116987145D01*
X110464153Y-116885571D01*
X110453771Y-116880401D01*
X110273853Y-116810700D01*
X110262692Y-116807524D01*
X110232641Y-116801907D01*
X110221440Y-116802295D01*
X110219000Y-116813237D01*
X110219000Y-117604410D01*
X109711000Y-117604410D01*
X109711000Y-116813237D01*
X109708559Y-116802295D01*
X109697358Y-116801907D01*
X109667307Y-116807524D01*
X109656146Y-116810700D01*
X109476228Y-116880401D01*
X109465846Y-116885571D01*
X109301796Y-116987145D01*
X109292533Y-116994140D01*
X109149944Y-117124127D01*
X109142126Y-117132703D01*
X109025850Y-117286678D01*
X109019742Y-117296543D01*
X108933734Y-117469270D01*
X108929546Y-117480081D01*
X108893451Y-117606938D01*
X108892922Y-117618379D01*
X108497077Y-117618379D01*
X108496548Y-117606938D01*
X108460453Y-117480081D01*
X108456265Y-117469270D01*
X108370257Y-117296543D01*
X108364149Y-117286678D01*
X108247873Y-117132703D01*
X108240055Y-117124127D01*
X108097466Y-116994140D01*
X108088203Y-116987145D01*
X107924153Y-116885571D01*
X107913771Y-116880401D01*
X107733853Y-116810700D01*
X107722692Y-116807524D01*
X107692641Y-116801907D01*
X107681440Y-116802295D01*
X107679000Y-116813237D01*
X107679000Y-117604410D01*
X107171000Y-117604410D01*
X107171000Y-116813237D01*
X107168559Y-116802295D01*
X107157358Y-116801907D01*
X107127307Y-116807524D01*
X107116146Y-116810700D01*
X106936228Y-116880401D01*
X106925846Y-116885571D01*
X106761796Y-116987145D01*
X106752533Y-116994140D01*
X106609944Y-117124127D01*
X106602126Y-117132703D01*
X106485850Y-117286678D01*
X106479742Y-117296543D01*
X106393734Y-117469270D01*
X106389546Y-117480081D01*
X106353451Y-117606938D01*
X106352922Y-117618379D01*
X105989499Y-117618379D01*
X105989499Y-116999934D01*
X105974734Y-116925699D01*
X105918484Y-116841516D01*
X105899459Y-116828804D01*
X105844620Y-116792161D01*
X105844619Y-116792160D01*
X105834301Y-116785266D01*
X105822131Y-116782845D01*
X105822128Y-116782844D01*
X105766135Y-116771707D01*
X105760067Y-116770500D01*
X105753880Y-116770500D01*
X104016122Y-116770500D01*
X104016111Y-116770500D01*
X104009934Y-116770501D01*
X104003868Y-116771707D01*
X104003862Y-116771708D01*
X103947874Y-116782844D01*
X103947871Y-116782844D01*
X103935699Y-116785266D01*
X103925379Y-116792161D01*
X103925378Y-116792162D01*
X103861832Y-116834622D01*
X103861829Y-116834624D01*
X103851516Y-116841516D01*
X103844624Y-116851829D01*
X103844622Y-116851832D01*
X103802161Y-116915379D01*
X103802159Y-116915381D01*
X103795266Y-116925699D01*
X103792845Y-116937867D01*
X103792844Y-116937871D01*
X103781707Y-116993864D01*
X103780500Y-116999933D01*
X103780500Y-117006119D01*
X103780500Y-117006120D01*
X103780500Y-118249192D01*
X103770909Y-118297410D01*
X103743596Y-118338287D01*
X103495889Y-118585995D01*
X103455011Y-118613309D01*
X103406793Y-118622900D01*
X100864940Y-118622900D01*
X100803628Y-118606976D01*
X100757813Y-118563230D01*
X100739074Y-118502719D01*
X100752148Y-118440738D01*
X100834328Y-118275701D01*
X100890345Y-118078821D01*
X100909232Y-117875000D01*
X100890345Y-117671179D01*
X100834328Y-117474299D01*
X100743088Y-117291065D01*
X100685849Y-117215268D01*
X100623244Y-117132365D01*
X100623241Y-117132361D01*
X100619732Y-117127715D01*
X100615429Y-117123792D01*
X100615426Y-117123789D01*
X100472957Y-116993912D01*
X100468462Y-116989814D01*
X100463512Y-116986749D01*
X100463508Y-116986746D01*
X100299387Y-116885127D01*
X100299386Y-116885126D01*
X100294427Y-116882056D01*
X100217337Y-116852191D01*
X100108989Y-116810216D01*
X100108981Y-116810213D01*
X100103556Y-116808112D01*
X100097839Y-116807043D01*
X100097831Y-116807041D01*
X99908073Y-116771570D01*
X99908069Y-116771569D01*
X99902347Y-116770500D01*
X99697653Y-116770500D01*
X99691931Y-116771569D01*
X99691926Y-116771570D01*
X99502168Y-116807041D01*
X99502157Y-116807043D01*
X99496444Y-116808112D01*
X99491021Y-116810212D01*
X99491010Y-116810216D01*
X99311011Y-116879949D01*
X99311008Y-116879950D01*
X99305573Y-116882056D01*
X99300617Y-116885124D01*
X99300612Y-116885127D01*
X99136491Y-116986746D01*
X99136481Y-116986752D01*
X99131538Y-116989814D01*
X99127239Y-116993732D01*
X99127235Y-116993736D01*
X98984573Y-117123789D01*
X98984565Y-117123797D01*
X98980268Y-117127715D01*
X98976763Y-117132355D01*
X98976755Y-117132365D01*
X98860422Y-117286416D01*
X98860418Y-117286421D01*
X98856912Y-117291065D01*
X98854317Y-117296274D01*
X98854314Y-117296281D01*
X98768271Y-117469079D01*
X98765672Y-117474299D01*
X98764078Y-117479899D01*
X98764076Y-117479906D01*
X98723932Y-117621000D01*
X98709655Y-117671179D01*
X98709118Y-117676972D01*
X98709116Y-117676984D01*
X98698838Y-117787908D01*
X98690768Y-117875000D01*
X98691306Y-117880806D01*
X98709116Y-118073015D01*
X98709117Y-118073025D01*
X98709655Y-118078821D01*
X98711249Y-118084426D01*
X98711250Y-118084427D01*
X98764026Y-118269918D01*
X98765672Y-118275701D01*
X98847851Y-118440738D01*
X98860926Y-118502719D01*
X98842187Y-118563230D01*
X98796372Y-118606976D01*
X98735060Y-118622900D01*
X98324940Y-118622900D01*
X98263628Y-118606976D01*
X98217813Y-118563230D01*
X98199074Y-118502719D01*
X98212148Y-118440738D01*
X98294328Y-118275701D01*
X98350345Y-118078821D01*
X98369232Y-117875000D01*
X98350345Y-117671179D01*
X98294328Y-117474299D01*
X98203088Y-117291065D01*
X98145849Y-117215268D01*
X98083244Y-117132365D01*
X98083241Y-117132361D01*
X98079732Y-117127715D01*
X98075429Y-117123792D01*
X98075426Y-117123789D01*
X97932957Y-116993912D01*
X97928462Y-116989814D01*
X97923512Y-116986749D01*
X97923508Y-116986746D01*
X97759387Y-116885127D01*
X97759386Y-116885126D01*
X97754427Y-116882056D01*
X97677337Y-116852191D01*
X97568989Y-116810216D01*
X97568981Y-116810213D01*
X97563556Y-116808112D01*
X97557839Y-116807043D01*
X97557831Y-116807041D01*
X97368073Y-116771570D01*
X97368069Y-116771569D01*
X97362347Y-116770500D01*
X97157653Y-116770500D01*
X97151931Y-116771569D01*
X97151926Y-116771570D01*
X96962168Y-116807041D01*
X96962157Y-116807043D01*
X96956444Y-116808112D01*
X96951021Y-116810212D01*
X96951010Y-116810216D01*
X96771011Y-116879949D01*
X96771008Y-116879950D01*
X96765573Y-116882056D01*
X96760617Y-116885124D01*
X96760612Y-116885127D01*
X96596491Y-116986746D01*
X96596481Y-116986752D01*
X96591538Y-116989814D01*
X96587239Y-116993732D01*
X96587235Y-116993736D01*
X96444573Y-117123789D01*
X96444565Y-117123797D01*
X96440268Y-117127715D01*
X96436763Y-117132355D01*
X96436755Y-117132365D01*
X96320422Y-117286416D01*
X96320418Y-117286421D01*
X96316912Y-117291065D01*
X96314317Y-117296274D01*
X96314314Y-117296281D01*
X96228271Y-117469079D01*
X96225672Y-117474299D01*
X96224078Y-117479899D01*
X96224076Y-117479906D01*
X96183932Y-117621000D01*
X96169655Y-117671179D01*
X96169118Y-117676972D01*
X96169116Y-117676984D01*
X96158838Y-117787908D01*
X96150768Y-117875000D01*
X96151306Y-117880806D01*
X96169116Y-118073015D01*
X96169117Y-118073025D01*
X96169655Y-118078821D01*
X96171249Y-118084426D01*
X96171250Y-118084427D01*
X96224026Y-118269918D01*
X96225672Y-118275701D01*
X96307851Y-118440738D01*
X96320926Y-118502719D01*
X96302187Y-118563230D01*
X96256372Y-118606976D01*
X96195060Y-118622900D01*
X95784940Y-118622900D01*
X95723628Y-118606976D01*
X95677813Y-118563230D01*
X95659074Y-118502719D01*
X95672148Y-118440738D01*
X95754328Y-118275701D01*
X95810345Y-118078821D01*
X95829232Y-117875000D01*
X95810345Y-117671179D01*
X95754328Y-117474299D01*
X95663088Y-117291065D01*
X95605849Y-117215268D01*
X95543244Y-117132365D01*
X95543241Y-117132361D01*
X95539732Y-117127715D01*
X95535429Y-117123792D01*
X95535426Y-117123789D01*
X95392957Y-116993912D01*
X95388462Y-116989814D01*
X95383512Y-116986749D01*
X95383508Y-116986746D01*
X95219387Y-116885127D01*
X95219386Y-116885126D01*
X95214427Y-116882056D01*
X95137337Y-116852191D01*
X95028989Y-116810216D01*
X95028981Y-116810213D01*
X95023556Y-116808112D01*
X95017839Y-116807043D01*
X95017831Y-116807041D01*
X94828073Y-116771570D01*
X94828069Y-116771569D01*
X94822347Y-116770500D01*
X94617653Y-116770500D01*
X94611931Y-116771569D01*
X94611926Y-116771570D01*
X94422168Y-116807041D01*
X94422157Y-116807043D01*
X94416444Y-116808112D01*
X94411021Y-116810212D01*
X94411010Y-116810216D01*
X94231011Y-116879949D01*
X94231008Y-116879950D01*
X94225573Y-116882056D01*
X94220617Y-116885124D01*
X94220612Y-116885127D01*
X94056491Y-116986746D01*
X94056481Y-116986752D01*
X94051538Y-116989814D01*
X94047239Y-116993732D01*
X94047235Y-116993736D01*
X93904573Y-117123789D01*
X93904565Y-117123797D01*
X93900268Y-117127715D01*
X93896763Y-117132355D01*
X93896755Y-117132365D01*
X93780422Y-117286416D01*
X93780418Y-117286421D01*
X93776912Y-117291065D01*
X93774317Y-117296274D01*
X93774314Y-117296281D01*
X93688271Y-117469079D01*
X93685672Y-117474299D01*
X93684078Y-117479899D01*
X93684076Y-117479906D01*
X93643932Y-117621000D01*
X93629655Y-117671179D01*
X93629118Y-117676972D01*
X93629116Y-117676984D01*
X93618838Y-117787908D01*
X93610768Y-117875000D01*
X93611306Y-117880806D01*
X93629116Y-118073015D01*
X93629117Y-118073025D01*
X93629655Y-118078821D01*
X93631249Y-118084426D01*
X93631250Y-118084427D01*
X93684026Y-118269918D01*
X93685672Y-118275701D01*
X93767851Y-118440738D01*
X93780926Y-118502719D01*
X93762187Y-118563230D01*
X93716372Y-118606976D01*
X93655060Y-118622900D01*
X93410500Y-118622900D01*
X93347500Y-118606019D01*
X93301381Y-118559900D01*
X93284500Y-118496900D01*
X93284499Y-117006122D01*
X93284499Y-117006119D01*
X93284499Y-116999934D01*
X93269734Y-116925699D01*
X93213484Y-116841516D01*
X93194459Y-116828804D01*
X93139620Y-116792161D01*
X93139619Y-116792160D01*
X93129301Y-116785266D01*
X93117131Y-116782845D01*
X93117128Y-116782844D01*
X93061135Y-116771707D01*
X93055067Y-116770500D01*
X93048880Y-116770500D01*
X91311122Y-116770500D01*
X91311111Y-116770500D01*
X91304934Y-116770501D01*
X91298868Y-116771707D01*
X91298862Y-116771708D01*
X91242874Y-116782844D01*
X91242871Y-116782844D01*
X91230699Y-116785266D01*
X91220379Y-116792161D01*
X91220378Y-116792162D01*
X91156832Y-116834622D01*
X91156829Y-116834624D01*
X91146516Y-116841516D01*
X91139624Y-116851829D01*
X91139622Y-116851832D01*
X91097161Y-116915379D01*
X91097159Y-116915381D01*
X91090266Y-116925699D01*
X91087845Y-116937867D01*
X91087844Y-116937871D01*
X91076707Y-116993864D01*
X91075500Y-116999933D01*
X91075500Y-117787908D01*
X91075501Y-118496900D01*
X91058620Y-118559900D01*
X91012501Y-118606019D01*
X90949501Y-118622900D01*
X88164382Y-118622900D01*
X88103070Y-118606976D01*
X88057255Y-118563230D01*
X88038516Y-118502719D01*
X88051591Y-118440737D01*
X88131265Y-118280729D01*
X88135453Y-118269918D01*
X88171548Y-118143061D01*
X88172077Y-118131620D01*
X88160933Y-118129000D01*
X86039067Y-118129000D01*
X86027922Y-118131620D01*
X86028451Y-118143061D01*
X86064546Y-118269918D01*
X86068734Y-118280729D01*
X86148409Y-118440737D01*
X86161484Y-118502719D01*
X86142745Y-118563230D01*
X86096930Y-118606976D01*
X86035618Y-118622900D01*
X85624940Y-118622900D01*
X85563628Y-118606976D01*
X85517813Y-118563230D01*
X85499074Y-118502719D01*
X85512148Y-118440738D01*
X85594328Y-118275701D01*
X85650345Y-118078821D01*
X85669232Y-117875000D01*
X85650345Y-117671179D01*
X85594328Y-117474299D01*
X85590764Y-117467141D01*
X85590327Y-117465458D01*
X85589626Y-117463649D01*
X85589835Y-117463567D01*
X85577688Y-117416796D01*
X85586061Y-117365459D01*
X85614455Y-117321882D01*
X85772334Y-117164004D01*
X85813212Y-117136691D01*
X85861430Y-117127100D01*
X86035618Y-117127100D01*
X86096930Y-117143024D01*
X86142745Y-117186770D01*
X86161484Y-117247281D01*
X86148409Y-117309263D01*
X86068734Y-117469270D01*
X86064546Y-117480081D01*
X86028451Y-117606938D01*
X86027922Y-117618379D01*
X86039067Y-117621000D01*
X88160933Y-117621000D01*
X88172077Y-117618379D01*
X88171548Y-117606938D01*
X88135453Y-117480081D01*
X88131265Y-117469270D01*
X88045257Y-117296543D01*
X88039149Y-117286678D01*
X87922873Y-117132703D01*
X87915055Y-117124127D01*
X87772466Y-116994140D01*
X87763200Y-116987143D01*
X87740972Y-116973380D01*
X87700949Y-116933816D01*
X87682142Y-116880773D01*
X87688305Y-116824834D01*
X87718202Y-116777165D01*
X88575436Y-115919931D01*
X88593306Y-115905421D01*
X88594672Y-115904163D01*
X88603416Y-115898451D01*
X88622017Y-115874551D01*
X88625277Y-115870537D01*
X88627745Y-115867623D01*
X88631442Y-115863927D01*
X88642740Y-115848103D01*
X88645856Y-115843923D01*
X88676085Y-115805086D01*
X88678521Y-115797987D01*
X88682884Y-115791878D01*
X88696931Y-115744694D01*
X88698511Y-115739757D01*
X88714500Y-115693186D01*
X88714500Y-115685681D01*
X88716642Y-115678486D01*
X88714607Y-115629315D01*
X88714500Y-115624108D01*
X88714500Y-115335000D01*
X91070768Y-115335000D01*
X91071306Y-115340806D01*
X91089116Y-115533015D01*
X91089117Y-115533025D01*
X91089655Y-115538821D01*
X91091249Y-115544426D01*
X91091250Y-115544427D01*
X91144026Y-115729918D01*
X91145672Y-115735701D01*
X91179727Y-115804093D01*
X91225283Y-115895582D01*
X91236912Y-115918935D01*
X91240421Y-115923582D01*
X91240422Y-115923583D01*
X91356755Y-116077634D01*
X91356759Y-116077638D01*
X91360268Y-116082285D01*
X91364570Y-116086207D01*
X91364573Y-116086210D01*
X91428954Y-116144901D01*
X91511538Y-116220186D01*
X91516489Y-116223251D01*
X91516491Y-116223253D01*
X91590992Y-116269382D01*
X91685573Y-116327944D01*
X91876444Y-116401888D01*
X92077653Y-116439500D01*
X92276519Y-116439500D01*
X92282347Y-116439500D01*
X92483556Y-116401888D01*
X92674427Y-116327944D01*
X92848462Y-116220186D01*
X92999732Y-116082285D01*
X93123088Y-115918935D01*
X93214328Y-115735701D01*
X93270345Y-115538821D01*
X93289232Y-115335000D01*
X93610768Y-115335000D01*
X93611306Y-115340806D01*
X93629116Y-115533015D01*
X93629117Y-115533025D01*
X93629655Y-115538821D01*
X93631249Y-115544426D01*
X93631250Y-115544427D01*
X93684026Y-115729918D01*
X93685672Y-115735701D01*
X93719727Y-115804093D01*
X93765283Y-115895582D01*
X93776912Y-115918935D01*
X93780421Y-115923582D01*
X93780422Y-115923583D01*
X93896755Y-116077634D01*
X93896759Y-116077638D01*
X93900268Y-116082285D01*
X93904570Y-116086207D01*
X93904573Y-116086210D01*
X93968954Y-116144901D01*
X94051538Y-116220186D01*
X94056489Y-116223251D01*
X94056491Y-116223253D01*
X94130992Y-116269382D01*
X94225573Y-116327944D01*
X94416444Y-116401888D01*
X94617653Y-116439500D01*
X94816519Y-116439500D01*
X94822347Y-116439500D01*
X95023556Y-116401888D01*
X95214427Y-116327944D01*
X95388462Y-116220186D01*
X95539732Y-116082285D01*
X95663088Y-115918935D01*
X95754328Y-115735701D01*
X95810345Y-115538821D01*
X95829232Y-115335000D01*
X96150768Y-115335000D01*
X96151306Y-115340806D01*
X96169116Y-115533015D01*
X96169117Y-115533025D01*
X96169655Y-115538821D01*
X96171249Y-115544426D01*
X96171250Y-115544427D01*
X96224026Y-115729918D01*
X96225672Y-115735701D01*
X96259727Y-115804093D01*
X96305283Y-115895582D01*
X96316912Y-115918935D01*
X96320421Y-115923582D01*
X96320422Y-115923583D01*
X96436755Y-116077634D01*
X96436759Y-116077638D01*
X96440268Y-116082285D01*
X96444570Y-116086207D01*
X96444573Y-116086210D01*
X96508954Y-116144901D01*
X96591538Y-116220186D01*
X96596489Y-116223251D01*
X96596491Y-116223253D01*
X96670992Y-116269382D01*
X96765573Y-116327944D01*
X96956444Y-116401888D01*
X97157653Y-116439500D01*
X97356519Y-116439500D01*
X97362347Y-116439500D01*
X97563556Y-116401888D01*
X97754427Y-116327944D01*
X97928462Y-116220186D01*
X98079732Y-116082285D01*
X98203088Y-115918935D01*
X98294328Y-115735701D01*
X98350345Y-115538821D01*
X98369232Y-115335000D01*
X98690768Y-115335000D01*
X98691306Y-115340806D01*
X98709116Y-115533015D01*
X98709117Y-115533025D01*
X98709655Y-115538821D01*
X98711249Y-115544426D01*
X98711250Y-115544427D01*
X98764026Y-115729918D01*
X98765672Y-115735701D01*
X98799727Y-115804093D01*
X98845283Y-115895582D01*
X98856912Y-115918935D01*
X98860421Y-115923582D01*
X98860422Y-115923583D01*
X98976755Y-116077634D01*
X98976759Y-116077638D01*
X98980268Y-116082285D01*
X98984570Y-116086207D01*
X98984573Y-116086210D01*
X99048954Y-116144901D01*
X99131538Y-116220186D01*
X99136489Y-116223251D01*
X99136491Y-116223253D01*
X99210992Y-116269382D01*
X99305573Y-116327944D01*
X99496444Y-116401888D01*
X99697653Y-116439500D01*
X99896519Y-116439500D01*
X99902347Y-116439500D01*
X100103556Y-116401888D01*
X100294427Y-116327944D01*
X100468462Y-116220186D01*
X100619732Y-116082285D01*
X100743088Y-115918935D01*
X100834328Y-115735701D01*
X100890345Y-115538821D01*
X100909232Y-115335000D01*
X103775768Y-115335000D01*
X103776306Y-115340806D01*
X103794116Y-115533015D01*
X103794117Y-115533025D01*
X103794655Y-115538821D01*
X103796249Y-115544426D01*
X103796250Y-115544427D01*
X103849026Y-115729918D01*
X103850672Y-115735701D01*
X103884727Y-115804093D01*
X103930283Y-115895582D01*
X103941912Y-115918935D01*
X103945421Y-115923582D01*
X103945422Y-115923583D01*
X104061755Y-116077634D01*
X104061759Y-116077638D01*
X104065268Y-116082285D01*
X104069570Y-116086207D01*
X104069573Y-116086210D01*
X104133954Y-116144901D01*
X104216538Y-116220186D01*
X104221489Y-116223251D01*
X104221491Y-116223253D01*
X104295992Y-116269382D01*
X104390573Y-116327944D01*
X104581444Y-116401888D01*
X104782653Y-116439500D01*
X104981519Y-116439500D01*
X104987347Y-116439500D01*
X105188556Y-116401888D01*
X105379427Y-116327944D01*
X105553462Y-116220186D01*
X105704732Y-116082285D01*
X105828088Y-115918935D01*
X105919328Y-115735701D01*
X105975345Y-115538821D01*
X105994232Y-115335000D01*
X106315768Y-115335000D01*
X106316306Y-115340806D01*
X106334116Y-115533015D01*
X106334117Y-115533025D01*
X106334655Y-115538821D01*
X106336249Y-115544426D01*
X106336250Y-115544427D01*
X106389026Y-115729918D01*
X106390672Y-115735701D01*
X106424727Y-115804093D01*
X106470283Y-115895582D01*
X106481912Y-115918935D01*
X106485421Y-115923582D01*
X106485422Y-115923583D01*
X106601755Y-116077634D01*
X106601759Y-116077638D01*
X106605268Y-116082285D01*
X106609570Y-116086207D01*
X106609573Y-116086210D01*
X106673954Y-116144901D01*
X106756538Y-116220186D01*
X106761489Y-116223251D01*
X106761491Y-116223253D01*
X106835992Y-116269382D01*
X106930573Y-116327944D01*
X107121444Y-116401888D01*
X107322653Y-116439500D01*
X107521519Y-116439500D01*
X107527347Y-116439500D01*
X107728556Y-116401888D01*
X107919427Y-116327944D01*
X108093462Y-116220186D01*
X108244732Y-116082285D01*
X108368088Y-115918935D01*
X108459328Y-115735701D01*
X108515345Y-115538821D01*
X108534232Y-115335000D01*
X108855768Y-115335000D01*
X108856306Y-115340806D01*
X108874116Y-115533015D01*
X108874117Y-115533025D01*
X108874655Y-115538821D01*
X108876249Y-115544426D01*
X108876250Y-115544427D01*
X108929026Y-115729918D01*
X108930672Y-115735701D01*
X108964727Y-115804093D01*
X109010283Y-115895582D01*
X109021912Y-115918935D01*
X109025421Y-115923582D01*
X109025422Y-115923583D01*
X109141755Y-116077634D01*
X109141759Y-116077638D01*
X109145268Y-116082285D01*
X109149570Y-116086207D01*
X109149573Y-116086210D01*
X109213954Y-116144901D01*
X109296538Y-116220186D01*
X109301489Y-116223251D01*
X109301491Y-116223253D01*
X109375992Y-116269382D01*
X109470573Y-116327944D01*
X109661444Y-116401888D01*
X109862653Y-116439500D01*
X110061519Y-116439500D01*
X110067347Y-116439500D01*
X110268556Y-116401888D01*
X110459427Y-116327944D01*
X110633462Y-116220186D01*
X110784732Y-116082285D01*
X110908088Y-115918935D01*
X110999328Y-115735701D01*
X111055345Y-115538821D01*
X111074232Y-115335000D01*
X111057837Y-115158072D01*
X111055883Y-115136984D01*
X111055882Y-115136983D01*
X111055345Y-115131179D01*
X110999328Y-114934299D01*
X110908088Y-114751065D01*
X110839430Y-114660147D01*
X110788244Y-114592365D01*
X110788241Y-114592361D01*
X110784732Y-114587715D01*
X110780429Y-114583792D01*
X110780426Y-114583789D01*
X110638207Y-114454140D01*
X110633462Y-114449814D01*
X110628512Y-114446749D01*
X110628508Y-114446746D01*
X110464387Y-114345127D01*
X110464386Y-114345126D01*
X110459427Y-114342056D01*
X110402760Y-114320103D01*
X110273989Y-114270216D01*
X110273981Y-114270213D01*
X110268556Y-114268112D01*
X110262839Y-114267043D01*
X110262831Y-114267041D01*
X110073073Y-114231570D01*
X110073069Y-114231569D01*
X110067347Y-114230500D01*
X109862653Y-114230500D01*
X109856931Y-114231569D01*
X109856926Y-114231570D01*
X109667168Y-114267041D01*
X109667157Y-114267043D01*
X109661444Y-114268112D01*
X109656021Y-114270212D01*
X109656010Y-114270216D01*
X109476011Y-114339949D01*
X109476008Y-114339950D01*
X109470573Y-114342056D01*
X109465617Y-114345124D01*
X109465612Y-114345127D01*
X109301491Y-114446746D01*
X109301481Y-114446752D01*
X109296538Y-114449814D01*
X109292239Y-114453732D01*
X109292235Y-114453736D01*
X109149573Y-114583789D01*
X109149565Y-114583797D01*
X109145268Y-114587715D01*
X109141763Y-114592355D01*
X109141755Y-114592365D01*
X109025422Y-114746416D01*
X109025418Y-114746421D01*
X109021912Y-114751065D01*
X109019317Y-114756274D01*
X109019314Y-114756281D01*
X108933271Y-114929079D01*
X108930672Y-114934299D01*
X108929078Y-114939899D01*
X108929076Y-114939906D01*
X108888932Y-115081000D01*
X108874655Y-115131179D01*
X108874118Y-115136972D01*
X108874116Y-115136984D01*
X108856306Y-115329194D01*
X108855768Y-115335000D01*
X108534232Y-115335000D01*
X108517837Y-115158072D01*
X108515883Y-115136984D01*
X108515882Y-115136983D01*
X108515345Y-115131179D01*
X108459328Y-114934299D01*
X108368088Y-114751065D01*
X108299430Y-114660147D01*
X108248244Y-114592365D01*
X108248241Y-114592361D01*
X108244732Y-114587715D01*
X108240429Y-114583792D01*
X108240426Y-114583789D01*
X108098207Y-114454140D01*
X108093462Y-114449814D01*
X108088512Y-114446749D01*
X108088508Y-114446746D01*
X107924387Y-114345127D01*
X107924386Y-114345126D01*
X107919427Y-114342056D01*
X107862760Y-114320103D01*
X107733989Y-114270216D01*
X107733981Y-114270213D01*
X107728556Y-114268112D01*
X107722839Y-114267043D01*
X107722831Y-114267041D01*
X107533073Y-114231570D01*
X107533069Y-114231569D01*
X107527347Y-114230500D01*
X107322653Y-114230500D01*
X107316931Y-114231569D01*
X107316926Y-114231570D01*
X107127168Y-114267041D01*
X107127157Y-114267043D01*
X107121444Y-114268112D01*
X107116021Y-114270212D01*
X107116010Y-114270216D01*
X106936011Y-114339949D01*
X106936008Y-114339950D01*
X106930573Y-114342056D01*
X106925617Y-114345124D01*
X106925612Y-114345127D01*
X106761491Y-114446746D01*
X106761481Y-114446752D01*
X106756538Y-114449814D01*
X106752239Y-114453732D01*
X106752235Y-114453736D01*
X106609573Y-114583789D01*
X106609565Y-114583797D01*
X106605268Y-114587715D01*
X106601763Y-114592355D01*
X106601755Y-114592365D01*
X106485422Y-114746416D01*
X106485418Y-114746421D01*
X106481912Y-114751065D01*
X106479317Y-114756274D01*
X106479314Y-114756281D01*
X106393271Y-114929079D01*
X106390672Y-114934299D01*
X106389078Y-114939899D01*
X106389076Y-114939906D01*
X106348932Y-115081000D01*
X106334655Y-115131179D01*
X106334118Y-115136972D01*
X106334116Y-115136984D01*
X106316306Y-115329194D01*
X106315768Y-115335000D01*
X105994232Y-115335000D01*
X105977837Y-115158072D01*
X105975883Y-115136984D01*
X105975882Y-115136983D01*
X105975345Y-115131179D01*
X105919328Y-114934299D01*
X105828088Y-114751065D01*
X105759430Y-114660147D01*
X105708244Y-114592365D01*
X105708241Y-114592361D01*
X105704732Y-114587715D01*
X105700429Y-114583792D01*
X105700426Y-114583789D01*
X105558207Y-114454140D01*
X105553462Y-114449814D01*
X105548512Y-114446749D01*
X105548508Y-114446746D01*
X105384387Y-114345127D01*
X105384386Y-114345126D01*
X105379427Y-114342056D01*
X105322760Y-114320103D01*
X105193989Y-114270216D01*
X105193981Y-114270213D01*
X105188556Y-114268112D01*
X105182839Y-114267043D01*
X105182831Y-114267041D01*
X104993073Y-114231570D01*
X104993069Y-114231569D01*
X104987347Y-114230500D01*
X104782653Y-114230500D01*
X104776931Y-114231569D01*
X104776926Y-114231570D01*
X104587168Y-114267041D01*
X104587157Y-114267043D01*
X104581444Y-114268112D01*
X104576021Y-114270212D01*
X104576010Y-114270216D01*
X104396011Y-114339949D01*
X104396008Y-114339950D01*
X104390573Y-114342056D01*
X104385617Y-114345124D01*
X104385612Y-114345127D01*
X104221491Y-114446746D01*
X104221481Y-114446752D01*
X104216538Y-114449814D01*
X104212239Y-114453732D01*
X104212235Y-114453736D01*
X104069573Y-114583789D01*
X104069565Y-114583797D01*
X104065268Y-114587715D01*
X104061763Y-114592355D01*
X104061755Y-114592365D01*
X103945422Y-114746416D01*
X103945418Y-114746421D01*
X103941912Y-114751065D01*
X103939317Y-114756274D01*
X103939314Y-114756281D01*
X103853271Y-114929079D01*
X103850672Y-114934299D01*
X103849078Y-114939899D01*
X103849076Y-114939906D01*
X103808932Y-115081000D01*
X103794655Y-115131179D01*
X103794118Y-115136972D01*
X103794116Y-115136984D01*
X103776306Y-115329194D01*
X103775768Y-115335000D01*
X100909232Y-115335000D01*
X100892837Y-115158072D01*
X100890883Y-115136984D01*
X100890882Y-115136983D01*
X100890345Y-115131179D01*
X100834328Y-114934299D01*
X100743088Y-114751065D01*
X100674430Y-114660147D01*
X100623244Y-114592365D01*
X100623241Y-114592361D01*
X100619732Y-114587715D01*
X100615429Y-114583792D01*
X100615426Y-114583789D01*
X100473207Y-114454140D01*
X100468462Y-114449814D01*
X100463512Y-114446749D01*
X100463508Y-114446746D01*
X100299387Y-114345127D01*
X100299386Y-114345126D01*
X100294427Y-114342056D01*
X100237760Y-114320103D01*
X100108989Y-114270216D01*
X100108981Y-114270213D01*
X100103556Y-114268112D01*
X100097839Y-114267043D01*
X100097831Y-114267041D01*
X99908073Y-114231570D01*
X99908069Y-114231569D01*
X99902347Y-114230500D01*
X99697653Y-114230500D01*
X99691931Y-114231569D01*
X99691926Y-114231570D01*
X99502168Y-114267041D01*
X99502157Y-114267043D01*
X99496444Y-114268112D01*
X99491021Y-114270212D01*
X99491010Y-114270216D01*
X99311011Y-114339949D01*
X99311008Y-114339950D01*
X99305573Y-114342056D01*
X99300617Y-114345124D01*
X99300612Y-114345127D01*
X99136491Y-114446746D01*
X99136481Y-114446752D01*
X99131538Y-114449814D01*
X99127239Y-114453732D01*
X99127235Y-114453736D01*
X98984573Y-114583789D01*
X98984565Y-114583797D01*
X98980268Y-114587715D01*
X98976763Y-114592355D01*
X98976755Y-114592365D01*
X98860422Y-114746416D01*
X98860418Y-114746421D01*
X98856912Y-114751065D01*
X98854317Y-114756274D01*
X98854314Y-114756281D01*
X98768271Y-114929079D01*
X98765672Y-114934299D01*
X98764078Y-114939899D01*
X98764076Y-114939906D01*
X98723932Y-115081000D01*
X98709655Y-115131179D01*
X98709118Y-115136972D01*
X98709116Y-115136984D01*
X98691306Y-115329194D01*
X98690768Y-115335000D01*
X98369232Y-115335000D01*
X98352837Y-115158072D01*
X98350883Y-115136984D01*
X98350882Y-115136983D01*
X98350345Y-115131179D01*
X98294328Y-114934299D01*
X98203088Y-114751065D01*
X98134430Y-114660147D01*
X98083244Y-114592365D01*
X98083241Y-114592361D01*
X98079732Y-114587715D01*
X98075429Y-114583792D01*
X98075426Y-114583789D01*
X97933207Y-114454140D01*
X97928462Y-114449814D01*
X97923512Y-114446749D01*
X97923508Y-114446746D01*
X97759387Y-114345127D01*
X97759386Y-114345126D01*
X97754427Y-114342056D01*
X97697760Y-114320103D01*
X97568989Y-114270216D01*
X97568981Y-114270213D01*
X97563556Y-114268112D01*
X97557839Y-114267043D01*
X97557831Y-114267041D01*
X97368073Y-114231570D01*
X97368069Y-114231569D01*
X97362347Y-114230500D01*
X97157653Y-114230500D01*
X97151931Y-114231569D01*
X97151926Y-114231570D01*
X96962168Y-114267041D01*
X96962157Y-114267043D01*
X96956444Y-114268112D01*
X96951021Y-114270212D01*
X96951010Y-114270216D01*
X96771011Y-114339949D01*
X96771008Y-114339950D01*
X96765573Y-114342056D01*
X96760617Y-114345124D01*
X96760612Y-114345127D01*
X96596491Y-114446746D01*
X96596481Y-114446752D01*
X96591538Y-114449814D01*
X96587239Y-114453732D01*
X96587235Y-114453736D01*
X96444573Y-114583789D01*
X96444565Y-114583797D01*
X96440268Y-114587715D01*
X96436763Y-114592355D01*
X96436755Y-114592365D01*
X96320422Y-114746416D01*
X96320418Y-114746421D01*
X96316912Y-114751065D01*
X96314317Y-114756274D01*
X96314314Y-114756281D01*
X96228271Y-114929079D01*
X96225672Y-114934299D01*
X96224078Y-114939899D01*
X96224076Y-114939906D01*
X96183932Y-115081000D01*
X96169655Y-115131179D01*
X96169118Y-115136972D01*
X96169116Y-115136984D01*
X96151306Y-115329194D01*
X96150768Y-115335000D01*
X95829232Y-115335000D01*
X95812837Y-115158072D01*
X95810883Y-115136984D01*
X95810882Y-115136983D01*
X95810345Y-115131179D01*
X95754328Y-114934299D01*
X95663088Y-114751065D01*
X95594430Y-114660147D01*
X95543244Y-114592365D01*
X95543241Y-114592361D01*
X95539732Y-114587715D01*
X95535429Y-114583792D01*
X95535426Y-114583789D01*
X95393207Y-114454140D01*
X95388462Y-114449814D01*
X95383512Y-114446749D01*
X95383508Y-114446746D01*
X95219387Y-114345127D01*
X95219386Y-114345126D01*
X95214427Y-114342056D01*
X95157760Y-114320103D01*
X95028989Y-114270216D01*
X95028981Y-114270213D01*
X95023556Y-114268112D01*
X95017839Y-114267043D01*
X95017831Y-114267041D01*
X94828073Y-114231570D01*
X94828069Y-114231569D01*
X94822347Y-114230500D01*
X94617653Y-114230500D01*
X94611931Y-114231569D01*
X94611926Y-114231570D01*
X94422168Y-114267041D01*
X94422157Y-114267043D01*
X94416444Y-114268112D01*
X94411021Y-114270212D01*
X94411010Y-114270216D01*
X94231011Y-114339949D01*
X94231008Y-114339950D01*
X94225573Y-114342056D01*
X94220617Y-114345124D01*
X94220612Y-114345127D01*
X94056491Y-114446746D01*
X94056481Y-114446752D01*
X94051538Y-114449814D01*
X94047239Y-114453732D01*
X94047235Y-114453736D01*
X93904573Y-114583789D01*
X93904565Y-114583797D01*
X93900268Y-114587715D01*
X93896763Y-114592355D01*
X93896755Y-114592365D01*
X93780422Y-114746416D01*
X93780418Y-114746421D01*
X93776912Y-114751065D01*
X93774317Y-114756274D01*
X93774314Y-114756281D01*
X93688271Y-114929079D01*
X93685672Y-114934299D01*
X93684078Y-114939899D01*
X93684076Y-114939906D01*
X93643932Y-115081000D01*
X93629655Y-115131179D01*
X93629118Y-115136972D01*
X93629116Y-115136984D01*
X93611306Y-115329194D01*
X93610768Y-115335000D01*
X93289232Y-115335000D01*
X93272837Y-115158072D01*
X93270883Y-115136984D01*
X93270882Y-115136983D01*
X93270345Y-115131179D01*
X93214328Y-114934299D01*
X93123088Y-114751065D01*
X93054430Y-114660147D01*
X93003244Y-114592365D01*
X93003241Y-114592361D01*
X92999732Y-114587715D01*
X92995429Y-114583792D01*
X92995426Y-114583789D01*
X92853207Y-114454140D01*
X92848462Y-114449814D01*
X92843512Y-114446749D01*
X92843508Y-114446746D01*
X92679387Y-114345127D01*
X92679386Y-114345126D01*
X92674427Y-114342056D01*
X92617760Y-114320103D01*
X92488989Y-114270216D01*
X92488981Y-114270213D01*
X92483556Y-114268112D01*
X92477839Y-114267043D01*
X92477831Y-114267041D01*
X92288073Y-114231570D01*
X92288069Y-114231569D01*
X92282347Y-114230500D01*
X92077653Y-114230500D01*
X92071931Y-114231569D01*
X92071926Y-114231570D01*
X91882168Y-114267041D01*
X91882157Y-114267043D01*
X91876444Y-114268112D01*
X91871021Y-114270212D01*
X91871010Y-114270216D01*
X91691011Y-114339949D01*
X91691008Y-114339950D01*
X91685573Y-114342056D01*
X91680617Y-114345124D01*
X91680612Y-114345127D01*
X91516491Y-114446746D01*
X91516481Y-114446752D01*
X91511538Y-114449814D01*
X91507239Y-114453732D01*
X91507235Y-114453736D01*
X91364573Y-114583789D01*
X91364565Y-114583797D01*
X91360268Y-114587715D01*
X91356763Y-114592355D01*
X91356755Y-114592365D01*
X91240422Y-114746416D01*
X91240418Y-114746421D01*
X91236912Y-114751065D01*
X91234317Y-114756274D01*
X91234314Y-114756281D01*
X91148271Y-114929079D01*
X91145672Y-114934299D01*
X91144078Y-114939899D01*
X91144076Y-114939906D01*
X91103932Y-115081000D01*
X91089655Y-115131179D01*
X91089118Y-115136972D01*
X91089116Y-115136984D01*
X91071306Y-115329194D01*
X91070768Y-115335000D01*
X88714500Y-115335000D01*
X88714500Y-114060000D01*
X112490000Y-114060000D01*
X112490000Y-119140000D01*
X117570000Y-119140000D01*
X117570000Y-114060000D01*
X112490000Y-114060000D01*
X88714500Y-114060000D01*
X88714500Y-112189833D01*
X88716875Y-112166927D01*
X88716951Y-112165073D01*
X88719095Y-112154852D01*
X88715355Y-112124856D01*
X88714819Y-112119679D01*
X88714500Y-112115831D01*
X88714500Y-112110623D01*
X88711290Y-112091393D01*
X88710553Y-112086336D01*
X88704460Y-112037449D01*
X88701639Y-112031680D01*
X88700514Y-112026811D01*
X88699925Y-112023274D01*
X88702593Y-112022829D01*
X88698817Y-111982333D01*
X88720956Y-111927284D01*
X88765834Y-111888470D01*
X88823500Y-111874500D01*
X88935844Y-111874500D01*
X89024377Y-111874500D01*
X89788324Y-111874500D01*
X89811238Y-111876876D01*
X89813086Y-111876952D01*
X89823305Y-111879095D01*
X89853367Y-111875347D01*
X89858486Y-111874817D01*
X89862313Y-111874500D01*
X89867535Y-111874500D01*
X89886748Y-111871293D01*
X89891838Y-111870552D01*
X89940709Y-111864461D01*
X89947452Y-111861164D01*
X89954856Y-111859929D01*
X89998146Y-111836500D01*
X90002777Y-111834117D01*
X90046998Y-111812499D01*
X90052305Y-111807191D01*
X90058907Y-111803619D01*
X90092281Y-111767363D01*
X90095840Y-111763655D01*
X98387521Y-103471976D01*
X98387520Y-103471976D01*
X99473094Y-102386402D01*
X99513969Y-102359091D01*
X99562187Y-102349500D01*
X100481501Y-102349500D01*
X100544501Y-102366381D01*
X100590620Y-102412500D01*
X100607501Y-102475500D01*
X100607501Y-103020066D01*
X100608707Y-103026132D01*
X100608708Y-103026137D01*
X100613701Y-103051240D01*
X100622266Y-103094301D01*
X100678516Y-103178484D01*
X100762699Y-103234734D01*
X100836933Y-103249500D01*
X102887066Y-103249499D01*
X102961301Y-103234734D01*
X103045484Y-103178484D01*
X103101734Y-103094301D01*
X103111939Y-103042998D01*
X106176633Y-103042998D01*
X106184185Y-103051240D01*
X106228096Y-103081987D01*
X106237592Y-103087469D01*
X106426485Y-103175552D01*
X106436777Y-103179298D01*
X106638098Y-103233241D01*
X106648893Y-103235145D01*
X106856525Y-103253311D01*
X106867475Y-103253311D01*
X107075106Y-103235145D01*
X107085901Y-103233241D01*
X107287222Y-103179298D01*
X107297514Y-103175552D01*
X107486405Y-103087470D01*
X107495906Y-103081984D01*
X107539813Y-103051240D01*
X107547365Y-103042998D01*
X107541355Y-103033565D01*
X106873729Y-102365939D01*
X106861999Y-102359167D01*
X106850271Y-102365938D01*
X106182640Y-103033568D01*
X106176633Y-103042998D01*
X103111939Y-103042998D01*
X103116500Y-103020067D01*
X103116500Y-102000475D01*
X105603689Y-102000475D01*
X105621854Y-102208106D01*
X105623758Y-102218901D01*
X105677701Y-102420222D01*
X105681447Y-102430514D01*
X105769530Y-102619407D01*
X105775012Y-102628903D01*
X105805758Y-102672813D01*
X105814001Y-102680365D01*
X105823429Y-102674359D01*
X106491059Y-102006730D01*
X106497832Y-101994999D01*
X107226167Y-101994999D01*
X107232939Y-102006729D01*
X107900565Y-102674355D01*
X107909998Y-102680365D01*
X107918240Y-102672813D01*
X107948984Y-102628906D01*
X107954470Y-102619405D01*
X108042552Y-102430514D01*
X108046298Y-102420222D01*
X108100241Y-102218901D01*
X108102145Y-102208106D01*
X108120311Y-102000475D01*
X108120311Y-101989525D01*
X108102145Y-101781893D01*
X108100241Y-101771098D01*
X108046298Y-101569777D01*
X108042552Y-101559485D01*
X107954469Y-101370592D01*
X107948987Y-101361096D01*
X107918240Y-101317185D01*
X107909998Y-101309633D01*
X107900568Y-101315640D01*
X107232938Y-101983271D01*
X107226167Y-101994999D01*
X106497832Y-101994999D01*
X106491060Y-101983270D01*
X105823432Y-101315642D01*
X105814000Y-101309633D01*
X105805759Y-101317184D01*
X105775010Y-101361099D01*
X105769531Y-101370590D01*
X105681447Y-101559485D01*
X105677701Y-101569777D01*
X105623758Y-101771098D01*
X105621854Y-101781893D01*
X105603689Y-101989525D01*
X105603689Y-102000475D01*
X103116500Y-102000475D01*
X103116499Y-100969934D01*
X103111938Y-100947000D01*
X106176633Y-100947000D01*
X106182642Y-100956432D01*
X106850270Y-101624060D01*
X106861999Y-101630832D01*
X106873730Y-101624059D01*
X107541359Y-100956429D01*
X107547365Y-100947001D01*
X107539813Y-100938758D01*
X107495903Y-100908012D01*
X107486407Y-100902530D01*
X107297514Y-100814447D01*
X107287222Y-100810701D01*
X107085901Y-100756758D01*
X107075106Y-100754854D01*
X106867475Y-100736689D01*
X106856525Y-100736689D01*
X106648893Y-100754854D01*
X106638098Y-100756758D01*
X106436777Y-100810701D01*
X106426485Y-100814447D01*
X106237590Y-100902531D01*
X106228099Y-100908010D01*
X106184184Y-100938759D01*
X106176633Y-100947000D01*
X103111938Y-100947000D01*
X103101734Y-100895699D01*
X103045484Y-100811516D01*
X102961301Y-100755266D01*
X102949131Y-100752845D01*
X102949128Y-100752844D01*
X102893135Y-100741707D01*
X102887067Y-100740500D01*
X102880880Y-100740500D01*
X100843122Y-100740500D01*
X100843111Y-100740500D01*
X100836934Y-100740501D01*
X100830868Y-100741707D01*
X100830862Y-100741708D01*
X100774874Y-100752844D01*
X100774871Y-100752844D01*
X100762699Y-100755266D01*
X100752380Y-100762160D01*
X100752375Y-100762163D01*
X100697390Y-100798903D01*
X100674200Y-100807200D01*
X100665903Y-100830390D01*
X100629162Y-100885376D01*
X100629159Y-100885382D01*
X100622266Y-100895699D01*
X100619845Y-100907867D01*
X100619844Y-100907871D01*
X100608707Y-100963864D01*
X100607500Y-100969933D01*
X100607500Y-100976120D01*
X100607500Y-101514500D01*
X100590619Y-101577500D01*
X100544500Y-101623619D01*
X100481500Y-101640500D01*
X100021596Y-101640500D01*
X99966002Y-101627572D01*
X99921816Y-101591441D01*
X99898106Y-101539522D01*
X99899736Y-101482468D01*
X99926372Y-101431987D01*
X99931070Y-101426565D01*
X99968176Y-101383743D01*
X100028919Y-101250734D01*
X100045842Y-101133029D01*
X100057886Y-101094569D01*
X100081460Y-101061877D01*
X100472045Y-100671292D01*
X100513465Y-100646465D01*
X100538292Y-100605045D01*
X110180431Y-90962906D01*
X110198305Y-90948392D01*
X110199672Y-90947133D01*
X110208416Y-90941421D01*
X110227017Y-90917521D01*
X110230277Y-90913507D01*
X110232745Y-90910593D01*
X110236442Y-90906897D01*
X110247740Y-90891073D01*
X110250856Y-90886893D01*
X110281085Y-90848056D01*
X110283521Y-90840957D01*
X110287884Y-90834848D01*
X110301931Y-90787664D01*
X110303511Y-90782727D01*
X110319500Y-90736156D01*
X110319500Y-90728651D01*
X110321642Y-90721456D01*
X110319607Y-90672285D01*
X110319500Y-90667078D01*
X110319500Y-83448464D01*
X110329466Y-83399351D01*
X110357787Y-83358007D01*
X110399982Y-83330972D01*
X110459427Y-83307944D01*
X110633462Y-83200186D01*
X110784732Y-83062285D01*
X110908088Y-82898935D01*
X110999328Y-82715701D01*
X111055345Y-82518821D01*
X111074232Y-82315000D01*
X111055345Y-82111179D01*
X110999328Y-81914299D01*
X110908088Y-81731065D01*
X110859100Y-81666194D01*
X110788244Y-81572365D01*
X110788241Y-81572361D01*
X110784732Y-81567715D01*
X110780429Y-81563792D01*
X110780426Y-81563789D01*
X110644079Y-81439493D01*
X110633462Y-81429814D01*
X110628512Y-81426749D01*
X110628508Y-81426746D01*
X110464387Y-81325127D01*
X110464386Y-81325126D01*
X110459427Y-81322056D01*
X110433459Y-81311996D01*
X110273989Y-81250216D01*
X110273981Y-81250213D01*
X110268556Y-81248112D01*
X110262839Y-81247043D01*
X110262831Y-81247041D01*
X110073073Y-81211570D01*
X110073069Y-81211569D01*
X110067347Y-81210500D01*
X109862653Y-81210500D01*
X109856931Y-81211569D01*
X109856926Y-81211570D01*
X109667168Y-81247041D01*
X109667157Y-81247043D01*
X109661444Y-81248112D01*
X109656021Y-81250212D01*
X109656010Y-81250216D01*
X109476011Y-81319949D01*
X109476008Y-81319950D01*
X109470573Y-81322056D01*
X109465617Y-81325124D01*
X109465612Y-81325127D01*
X109301491Y-81426746D01*
X109301481Y-81426752D01*
X109296538Y-81429814D01*
X109292239Y-81433732D01*
X109292235Y-81433736D01*
X109149573Y-81563789D01*
X109149565Y-81563797D01*
X109145268Y-81567715D01*
X109141763Y-81572355D01*
X109141755Y-81572365D01*
X109025422Y-81726416D01*
X109025418Y-81726421D01*
X109021912Y-81731065D01*
X109019317Y-81736274D01*
X109019314Y-81736281D01*
X108933271Y-81909079D01*
X108930672Y-81914299D01*
X108929078Y-81919899D01*
X108929076Y-81919906D01*
X108881900Y-82085715D01*
X108874655Y-82111179D01*
X108874118Y-82116972D01*
X108874116Y-82116984D01*
X108863838Y-82227908D01*
X108855768Y-82315000D01*
X108856306Y-82320806D01*
X108874116Y-82513015D01*
X108874117Y-82513025D01*
X108874655Y-82518821D01*
X108930672Y-82715701D01*
X109021912Y-82898935D01*
X109025421Y-82903582D01*
X109025422Y-82903583D01*
X109141755Y-83057634D01*
X109141759Y-83057638D01*
X109145268Y-83062285D01*
X109149570Y-83066207D01*
X109149573Y-83066210D01*
X109217100Y-83127769D01*
X109296538Y-83200186D01*
X109301489Y-83203251D01*
X109301491Y-83203253D01*
X109465613Y-83304873D01*
X109470573Y-83307944D01*
X109530017Y-83330972D01*
X109572213Y-83358007D01*
X109600534Y-83399351D01*
X109610500Y-83448464D01*
X109610500Y-90477971D01*
X109600909Y-90526189D01*
X109573595Y-90567066D01*
X105845995Y-94294666D01*
X105795836Y-94325404D01*
X105737189Y-94330020D01*
X105682839Y-94307507D01*
X105644633Y-94262774D01*
X105630900Y-94205571D01*
X105630900Y-93798781D01*
X105638844Y-93754749D01*
X105661673Y-93716271D01*
X105708576Y-93662143D01*
X105769319Y-93529134D01*
X105790129Y-93384400D01*
X105769319Y-93239666D01*
X105746826Y-93190414D01*
X105730681Y-93155060D01*
X105708576Y-93106657D01*
X105612821Y-92996150D01*
X105489811Y-92917096D01*
X105349511Y-92875900D01*
X105203289Y-92875900D01*
X105194646Y-92878437D01*
X105194644Y-92878438D01*
X105071635Y-92914557D01*
X105071633Y-92914557D01*
X105062989Y-92917096D01*
X105055411Y-92921966D01*
X105055409Y-92921967D01*
X104947559Y-92991278D01*
X104947556Y-92991280D01*
X104939979Y-92996150D01*
X104934081Y-93002955D01*
X104934078Y-93002959D01*
X104850126Y-93099845D01*
X104850124Y-93099847D01*
X104844224Y-93106657D01*
X104840481Y-93114850D01*
X104840480Y-93114854D01*
X104787224Y-93231467D01*
X104787221Y-93231475D01*
X104783481Y-93239666D01*
X104762671Y-93384400D01*
X104783481Y-93529134D01*
X104787222Y-93537326D01*
X104787224Y-93537332D01*
X104835457Y-93642946D01*
X104844224Y-93662143D01*
X104891126Y-93716271D01*
X104913956Y-93754749D01*
X104921900Y-93798781D01*
X104921900Y-94385307D01*
X104912309Y-94433525D01*
X104884995Y-94474402D01*
X98002517Y-101356878D01*
X97955340Y-101386606D01*
X97899952Y-101393061D01*
X97847203Y-101374979D01*
X97810308Y-101338736D01*
X97809176Y-101336257D01*
X97713421Y-101225750D01*
X97590411Y-101146696D01*
X97450111Y-101105500D01*
X97303889Y-101105500D01*
X97295246Y-101108037D01*
X97295244Y-101108038D01*
X97172235Y-101144157D01*
X97172233Y-101144157D01*
X97163589Y-101146696D01*
X97156011Y-101151566D01*
X97156009Y-101151567D01*
X97048159Y-101220878D01*
X97048156Y-101220880D01*
X97040579Y-101225750D01*
X97034681Y-101232555D01*
X97034678Y-101232559D01*
X96950726Y-101329445D01*
X96950724Y-101329447D01*
X96944824Y-101336257D01*
X96941081Y-101344450D01*
X96941080Y-101344454D01*
X96887824Y-101461067D01*
X96887821Y-101461075D01*
X96884081Y-101469266D01*
X96882798Y-101478186D01*
X96882798Y-101478188D01*
X96867158Y-101586961D01*
X96855113Y-101625428D01*
X96831536Y-101658123D01*
X90917066Y-107572595D01*
X90876189Y-107599909D01*
X90827971Y-107609500D01*
X81185833Y-107609500D01*
X81162927Y-107607124D01*
X81161067Y-107607047D01*
X81150852Y-107604905D01*
X81140494Y-107606196D01*
X81140492Y-107606196D01*
X81120854Y-107608644D01*
X81115682Y-107609180D01*
X81111821Y-107609500D01*
X81106623Y-107609500D01*
X81087426Y-107612702D01*
X81082288Y-107613451D01*
X81043802Y-107618249D01*
X81043800Y-107618249D01*
X81033449Y-107619540D01*
X81026708Y-107622835D01*
X81019302Y-107624071D01*
X81010126Y-107629036D01*
X81010119Y-107629039D01*
X80975994Y-107647507D01*
X80971366Y-107649890D01*
X80936533Y-107666918D01*
X80936529Y-107666920D01*
X80927160Y-107671501D01*
X80921852Y-107676808D01*
X80915251Y-107680381D01*
X80908186Y-107688056D01*
X80881911Y-107716597D01*
X80878307Y-107720352D01*
X78044381Y-110554278D01*
X78002116Y-110582157D01*
X77952288Y-110591147D01*
X77902944Y-110579797D01*
X77867041Y-110563400D01*
X77867032Y-110563396D01*
X77862949Y-110561532D01*
X77858635Y-110560265D01*
X77858629Y-110560263D01*
X77729318Y-110522294D01*
X77729309Y-110522292D01*
X77724994Y-110521025D01*
X77720535Y-110520383D01*
X77720531Y-110520383D01*
X77656351Y-110511155D01*
X77656343Y-110511154D01*
X77651889Y-110510514D01*
X77080000Y-110510514D01*
X77073932Y-110511720D01*
X77073931Y-110511721D01*
X76992868Y-110527845D01*
X76992865Y-110527845D01*
X76980699Y-110530266D01*
X76973976Y-110534757D01*
X76929997Y-110543505D01*
X76886023Y-110534757D01*
X76879301Y-110530266D01*
X76867131Y-110527845D01*
X76867128Y-110527844D01*
X76786068Y-110511721D01*
X76780000Y-110510514D01*
X76208111Y-110510514D01*
X76203657Y-110511154D01*
X76203648Y-110511155D01*
X76139468Y-110520383D01*
X76139461Y-110520384D01*
X76135006Y-110521025D01*
X76130693Y-110522291D01*
X76130681Y-110522294D01*
X76001370Y-110560263D01*
X76001359Y-110560266D01*
X75997051Y-110561532D01*
X75992972Y-110563394D01*
X75992958Y-110563400D01*
X75933959Y-110590344D01*
X75933950Y-110590348D01*
X75929868Y-110592213D01*
X75926088Y-110594641D01*
X75926081Y-110594646D01*
X75812708Y-110667506D01*
X75812700Y-110667511D01*
X75808914Y-110669945D01*
X75805518Y-110672886D01*
X75805508Y-110672895D01*
X75756487Y-110715372D01*
X75756479Y-110715379D01*
X75753094Y-110718313D01*
X75750160Y-110721698D01*
X75750153Y-110721706D01*
X75661888Y-110823570D01*
X75661878Y-110823583D01*
X75658940Y-110826974D01*
X75656511Y-110830753D01*
X75656504Y-110830763D01*
X75621446Y-110885317D01*
X75619012Y-110889105D01*
X75617145Y-110893191D01*
X75617140Y-110893202D01*
X75561156Y-111015790D01*
X75559284Y-111019890D01*
X75558018Y-111024199D01*
X75558015Y-111024209D01*
X75539744Y-111086432D01*
X75539742Y-111086441D01*
X75538475Y-111090756D01*
X75537835Y-111095207D01*
X75537832Y-111095221D01*
X75518654Y-111228608D01*
X75518653Y-111228617D01*
X75518013Y-111233071D01*
X75518013Y-111306929D01*
X75518651Y-111311372D01*
X75518653Y-111311388D01*
X75519231Y-111315407D01*
X75520514Y-111333339D01*
X75520514Y-111706661D01*
X75519231Y-111724593D01*
X75518653Y-111728610D01*
X75518651Y-111728629D01*
X75518013Y-111733071D01*
X75518013Y-111737222D01*
X75506981Y-111780444D01*
X75481462Y-111817198D01*
X75444566Y-111854093D01*
X75426686Y-111868614D01*
X75425321Y-111869869D01*
X75416584Y-111875579D01*
X75410173Y-111883814D01*
X75410170Y-111883818D01*
X75398017Y-111899432D01*
X75394740Y-111903468D01*
X75392236Y-111906423D01*
X75388558Y-111910103D01*
X75385536Y-111914334D01*
X75385531Y-111914341D01*
X75377249Y-111925940D01*
X75374143Y-111930105D01*
X75350325Y-111960707D01*
X75350322Y-111960710D01*
X75343915Y-111968944D01*
X75341478Y-111976042D01*
X75337116Y-111982152D01*
X75334138Y-111992150D01*
X75334138Y-111992153D01*
X75323072Y-112029322D01*
X75321485Y-112034276D01*
X75308889Y-112070970D01*
X75308888Y-112070972D01*
X75305500Y-112080844D01*
X75305500Y-112088349D01*
X75303358Y-112095544D01*
X75303789Y-112105975D01*
X75303789Y-112105979D01*
X75305392Y-112144714D01*
X75305500Y-112149922D01*
X75305500Y-114381216D01*
X75292291Y-114437379D01*
X75255432Y-114481766D01*
X75202652Y-114505071D01*
X75145018Y-114502406D01*
X75094614Y-114474331D01*
X75072466Y-114454140D01*
X75063203Y-114447145D01*
X74899153Y-114345571D01*
X74888771Y-114340401D01*
X74708853Y-114270700D01*
X74697692Y-114267524D01*
X74667641Y-114261907D01*
X74656440Y-114262295D01*
X74654000Y-114273237D01*
X74654000Y-116396763D01*
X74656440Y-116407704D01*
X74667641Y-116408092D01*
X74697692Y-116402475D01*
X74708853Y-116399299D01*
X74888771Y-116329598D01*
X74899153Y-116324428D01*
X75063203Y-116222854D01*
X75072472Y-116215854D01*
X75166513Y-116130124D01*
X75217137Y-116101986D01*
X75275001Y-116099468D01*
X75327878Y-116123104D01*
X75355562Y-116156877D01*
X75356846Y-116155961D01*
X75362916Y-116164462D01*
X75367501Y-116173840D01*
X75372808Y-116179147D01*
X75376381Y-116185749D01*
X75384061Y-116192819D01*
X75384062Y-116192820D01*
X75412608Y-116219098D01*
X75416366Y-116222705D01*
X76132161Y-116938500D01*
X76165260Y-116996862D01*
X76163711Y-117063938D01*
X76127952Y-117120709D01*
X76124579Y-117123783D01*
X76124568Y-117123794D01*
X76120268Y-117127715D01*
X76116763Y-117132355D01*
X76116755Y-117132365D01*
X76000422Y-117286416D01*
X76000418Y-117286421D01*
X75996912Y-117291065D01*
X75994317Y-117296274D01*
X75994314Y-117296281D01*
X75908271Y-117469079D01*
X75905672Y-117474299D01*
X75904078Y-117479899D01*
X75904076Y-117479906D01*
X75863932Y-117621000D01*
X75849655Y-117671179D01*
X75849118Y-117676972D01*
X75849116Y-117676984D01*
X75838838Y-117787908D01*
X75830768Y-117875000D01*
X75831306Y-117880806D01*
X75849116Y-118073015D01*
X75849117Y-118073025D01*
X75849655Y-118078821D01*
X75851249Y-118084426D01*
X75851250Y-118084427D01*
X75904026Y-118269918D01*
X75905672Y-118275701D01*
X75987851Y-118440738D01*
X76000926Y-118502719D01*
X75982187Y-118563230D01*
X75936372Y-118606976D01*
X75875060Y-118622900D01*
X75464382Y-118622900D01*
X75403070Y-118606976D01*
X75357255Y-118563230D01*
X75338516Y-118502719D01*
X75351591Y-118440737D01*
X75431265Y-118280729D01*
X75435453Y-118269918D01*
X75471548Y-118143061D01*
X75472077Y-118131620D01*
X75460933Y-118129000D01*
X74272000Y-118129000D01*
X74209000Y-118112119D01*
X74162881Y-118066000D01*
X74146000Y-118003000D01*
X74146000Y-117604410D01*
X74654000Y-117604410D01*
X74657506Y-117617493D01*
X74670590Y-117621000D01*
X75460933Y-117621000D01*
X75472077Y-117618379D01*
X75471548Y-117606938D01*
X75435453Y-117480081D01*
X75431265Y-117469270D01*
X75345257Y-117296543D01*
X75339149Y-117286678D01*
X75222873Y-117132703D01*
X75215055Y-117124127D01*
X75072466Y-116994140D01*
X75063203Y-116987145D01*
X74899153Y-116885571D01*
X74888771Y-116880401D01*
X74708853Y-116810700D01*
X74697692Y-116807524D01*
X74667641Y-116801907D01*
X74656440Y-116802295D01*
X74654000Y-116813237D01*
X74654000Y-117604410D01*
X74146000Y-117604410D01*
X74146000Y-116813237D01*
X74143559Y-116802295D01*
X74132358Y-116801907D01*
X74102307Y-116807524D01*
X74091146Y-116810700D01*
X73911228Y-116880401D01*
X73900846Y-116885570D01*
X73759230Y-116973256D01*
X73695810Y-116992094D01*
X73631588Y-116976204D01*
X73584269Y-116929966D01*
X73566900Y-116866128D01*
X73566900Y-116627502D01*
X73568268Y-116614771D01*
X73568039Y-116614755D01*
X73568681Y-116605762D01*
X73570597Y-116596959D01*
X73567220Y-116549758D01*
X73566900Y-116540770D01*
X73566900Y-116532607D01*
X73566900Y-116528104D01*
X73565095Y-116515558D01*
X73564134Y-116506614D01*
X73560760Y-116459427D01*
X73557609Y-116450980D01*
X73555838Y-116442838D01*
X73553490Y-116434840D01*
X73552208Y-116425920D01*
X73532545Y-116382865D01*
X73529109Y-116374568D01*
X73525973Y-116366161D01*
X73519250Y-116348136D01*
X73513262Y-116281994D01*
X73541737Y-116221994D01*
X73596763Y-116184807D01*
X73663054Y-116180765D01*
X73722191Y-116210989D01*
X73727533Y-116215859D01*
X73736796Y-116222854D01*
X73900846Y-116324428D01*
X73911228Y-116329598D01*
X74091146Y-116399299D01*
X74102307Y-116402475D01*
X74132358Y-116408092D01*
X74143559Y-116407704D01*
X74146000Y-116396763D01*
X74146000Y-115605590D01*
X74142493Y-115592506D01*
X74129410Y-115589000D01*
X73339067Y-115589000D01*
X73327922Y-115591620D01*
X73328451Y-115603061D01*
X73364546Y-115729918D01*
X73368734Y-115740729D01*
X73445842Y-115895582D01*
X73458401Y-115964530D01*
X73432181Y-116029522D01*
X73375294Y-116070453D01*
X73305338Y-116074660D01*
X73243956Y-116040840D01*
X72956540Y-115753424D01*
X72923681Y-115696002D01*
X72924444Y-115629849D01*
X72950345Y-115538821D01*
X72969232Y-115335000D01*
X72952837Y-115158072D01*
X72950883Y-115136984D01*
X72950882Y-115136983D01*
X72950345Y-115131179D01*
X72935322Y-115078379D01*
X73327922Y-115078379D01*
X73339067Y-115081000D01*
X74129410Y-115081000D01*
X74142493Y-115077493D01*
X74146000Y-115064410D01*
X74146000Y-114273237D01*
X74143559Y-114262295D01*
X74132358Y-114261907D01*
X74102307Y-114267524D01*
X74091146Y-114270700D01*
X73911228Y-114340401D01*
X73900846Y-114345571D01*
X73736796Y-114447145D01*
X73727533Y-114454140D01*
X73584944Y-114584127D01*
X73577126Y-114592703D01*
X73460850Y-114746678D01*
X73454742Y-114756543D01*
X73368734Y-114929270D01*
X73364546Y-114940081D01*
X73328451Y-115066938D01*
X73327922Y-115078379D01*
X72935322Y-115078379D01*
X72894328Y-114934299D01*
X72803088Y-114751065D01*
X72734430Y-114660147D01*
X72683244Y-114592365D01*
X72683241Y-114592361D01*
X72679732Y-114587715D01*
X72675428Y-114583791D01*
X72675425Y-114583788D01*
X72655613Y-114565727D01*
X72625236Y-114523506D01*
X72614500Y-114472613D01*
X72614500Y-108818946D01*
X72615830Y-108800684D01*
X72618117Y-108785069D01*
X72619315Y-108776893D01*
X72614979Y-108727332D01*
X72614500Y-108716350D01*
X72614500Y-108714528D01*
X72614500Y-108710859D01*
X72610883Y-108679921D01*
X72610515Y-108676313D01*
X72604979Y-108613029D01*
X72604500Y-108602049D01*
X72604500Y-108074714D01*
X72614091Y-108026496D01*
X72641405Y-107985619D01*
X74665619Y-105961405D01*
X74706496Y-105934091D01*
X74754714Y-105924500D01*
X80143812Y-105924500D01*
X80275941Y-105924500D01*
X91597853Y-105924500D01*
X91616114Y-105925829D01*
X91639906Y-105929315D01*
X91689467Y-105924979D01*
X91700449Y-105924500D01*
X91702272Y-105924500D01*
X91705941Y-105924500D01*
X91736885Y-105920882D01*
X91740453Y-105920518D01*
X91815612Y-105913943D01*
X91822589Y-105911630D01*
X91825738Y-105910980D01*
X91826256Y-105910896D01*
X91826776Y-105910749D01*
X91829883Y-105910012D01*
X91837184Y-105909160D01*
X91908020Y-105883377D01*
X91911459Y-105882182D01*
X91976068Y-105860773D01*
X91976068Y-105860772D01*
X91983036Y-105858464D01*
X91989284Y-105854609D01*
X91992201Y-105853249D01*
X91992692Y-105853045D01*
X91993159Y-105852785D01*
X91996022Y-105851347D01*
X92002924Y-105848836D01*
X92009055Y-105844803D01*
X92009060Y-105844801D01*
X92065924Y-105807401D01*
X92069016Y-105805431D01*
X92093187Y-105790521D01*
X92133154Y-105765870D01*
X92138347Y-105760675D01*
X92140869Y-105758682D01*
X92141293Y-105758375D01*
X92141687Y-105758015D01*
X92144144Y-105755953D01*
X92150285Y-105751915D01*
X92202070Y-105697024D01*
X92204556Y-105694466D01*
X97814583Y-100084441D01*
X97896539Y-99980792D01*
X97971079Y-99820940D01*
X98006745Y-99648207D01*
X98001615Y-99471904D01*
X97955965Y-99301538D01*
X97932078Y-99257236D01*
X97875739Y-99152748D01*
X97875737Y-99152745D01*
X97872257Y-99146291D01*
X97755003Y-99014533D01*
X97748985Y-99010319D01*
X97616536Y-98917578D01*
X97616534Y-98917576D01*
X97610523Y-98913368D01*
X97603706Y-98910660D01*
X97603703Y-98910658D01*
X97453428Y-98850957D01*
X97453424Y-98850956D01*
X97446608Y-98848248D01*
X97439348Y-98847184D01*
X97439346Y-98847184D01*
X97279353Y-98823749D01*
X97279349Y-98823748D01*
X97272093Y-98822686D01*
X97264787Y-98823325D01*
X97264783Y-98823325D01*
X97103695Y-98837417D01*
X97103688Y-98837418D01*
X97096388Y-98838057D01*
X97089426Y-98840363D01*
X97089421Y-98840365D01*
X96935931Y-98891227D01*
X96935928Y-98891228D01*
X96928964Y-98893536D01*
X96922725Y-98897384D01*
X96922719Y-98897387D01*
X96785093Y-98982276D01*
X96785088Y-98982279D01*
X96778846Y-98986130D01*
X96773656Y-98991319D01*
X96773652Y-98991323D01*
X91386381Y-104378595D01*
X91345504Y-104405909D01*
X91297286Y-104415500D01*
X82762186Y-104415500D01*
X82704983Y-104401767D01*
X82660250Y-104363561D01*
X82637737Y-104309211D01*
X82642353Y-104250564D01*
X82673091Y-104200405D01*
X83492317Y-103381179D01*
X84417521Y-102455976D01*
X84417520Y-102455976D01*
X87320431Y-99553064D01*
X87338305Y-99538550D01*
X87339672Y-99537291D01*
X87348416Y-99531579D01*
X87367017Y-99507679D01*
X87370277Y-99503665D01*
X87372745Y-99500751D01*
X87376442Y-99497055D01*
X87387740Y-99481231D01*
X87390856Y-99477051D01*
X87400379Y-99464816D01*
X87421085Y-99438214D01*
X87423521Y-99431115D01*
X87427884Y-99425006D01*
X87441931Y-99377822D01*
X87443511Y-99372885D01*
X87459500Y-99326314D01*
X87459500Y-99318809D01*
X87461642Y-99311614D01*
X87459607Y-99262443D01*
X87459500Y-99257236D01*
X87459500Y-83448464D01*
X87469466Y-83399351D01*
X87497787Y-83358007D01*
X87539982Y-83330972D01*
X87599427Y-83307944D01*
X87773462Y-83200186D01*
X87924732Y-83062285D01*
X87961550Y-83013529D01*
X88010143Y-82974673D01*
X88071405Y-82963806D01*
X88130399Y-82983579D01*
X88172738Y-83029170D01*
X88188100Y-83089462D01*
X88188100Y-94058066D01*
X88185723Y-94080980D01*
X88185646Y-94082834D01*
X88183505Y-94093047D01*
X88184796Y-94103404D01*
X88184796Y-94103406D01*
X88187244Y-94123047D01*
X88187780Y-94128218D01*
X88188100Y-94132080D01*
X88188100Y-94137277D01*
X88188955Y-94142404D01*
X88188956Y-94142411D01*
X88191301Y-94156466D01*
X88192050Y-94161609D01*
X88198139Y-94210451D01*
X88201435Y-94217194D01*
X88202671Y-94224598D01*
X88207639Y-94233778D01*
X88226097Y-94267886D01*
X88228480Y-94272515D01*
X88250101Y-94316740D01*
X88255408Y-94322047D01*
X88258981Y-94328649D01*
X88266661Y-94335719D01*
X88266662Y-94335720D01*
X88295208Y-94361998D01*
X88298966Y-94365605D01*
X93453336Y-99519975D01*
X93476913Y-99552670D01*
X93488958Y-99591137D01*
X93501960Y-99681561D01*
X93505881Y-99708834D01*
X93509622Y-99717026D01*
X93509624Y-99717032D01*
X93553796Y-99813754D01*
X93566624Y-99841843D01*
X93662379Y-99952350D01*
X93785389Y-100031404D01*
X93925689Y-100072600D01*
X94062902Y-100072600D01*
X94071911Y-100072600D01*
X94212211Y-100031404D01*
X94335221Y-99952350D01*
X94430976Y-99841843D01*
X94471071Y-99754046D01*
X94503172Y-99711164D01*
X94550188Y-99685492D01*
X94603298Y-99681694D01*
X94611489Y-99684100D01*
X94748702Y-99684100D01*
X94757711Y-99684100D01*
X94898011Y-99642904D01*
X95021021Y-99563850D01*
X95116776Y-99453343D01*
X95177519Y-99320334D01*
X95198329Y-99175600D01*
X95177519Y-99030866D01*
X95159460Y-98991323D01*
X95125782Y-98917578D01*
X95116776Y-98897857D01*
X95021021Y-98787350D01*
X94898011Y-98708296D01*
X94889367Y-98705757D01*
X94889363Y-98705756D01*
X94818759Y-98685025D01*
X94765163Y-98653224D01*
X90036405Y-93924466D01*
X90009091Y-93883589D01*
X89999500Y-93835371D01*
X89999500Y-83448464D01*
X90009466Y-83399351D01*
X90037787Y-83358007D01*
X90079982Y-83330972D01*
X90139427Y-83307944D01*
X90313462Y-83200186D01*
X90464732Y-83062285D01*
X90588088Y-82898935D01*
X90679328Y-82715701D01*
X90735345Y-82518821D01*
X90754232Y-82315000D01*
X91075768Y-82315000D01*
X91076306Y-82320806D01*
X91094116Y-82513015D01*
X91094117Y-82513025D01*
X91094655Y-82518821D01*
X91150672Y-82715701D01*
X91241912Y-82898935D01*
X91245421Y-82903582D01*
X91245422Y-82903583D01*
X91361755Y-83057634D01*
X91361759Y-83057638D01*
X91365268Y-83062285D01*
X91369570Y-83066207D01*
X91369573Y-83066210D01*
X91437100Y-83127769D01*
X91516538Y-83200186D01*
X91690573Y-83307944D01*
X91819800Y-83358007D01*
X91875261Y-83379493D01*
X91881444Y-83381888D01*
X92082653Y-83419500D01*
X92281519Y-83419500D01*
X92287347Y-83419500D01*
X92488556Y-83381888D01*
X92679427Y-83307944D01*
X92853462Y-83200186D01*
X93004732Y-83062285D01*
X93128088Y-82898935D01*
X93219328Y-82715701D01*
X93275345Y-82518821D01*
X93294232Y-82315000D01*
X93615768Y-82315000D01*
X93616306Y-82320806D01*
X93634116Y-82513015D01*
X93634117Y-82513025D01*
X93634655Y-82518821D01*
X93690672Y-82715701D01*
X93781912Y-82898935D01*
X93785421Y-82903582D01*
X93785422Y-82903583D01*
X93901755Y-83057634D01*
X93901759Y-83057638D01*
X93905268Y-83062285D01*
X93909570Y-83066207D01*
X93909573Y-83066210D01*
X93977100Y-83127769D01*
X94056538Y-83200186D01*
X94230573Y-83307944D01*
X94359800Y-83358007D01*
X94415261Y-83379493D01*
X94421444Y-83381888D01*
X94622653Y-83419500D01*
X94821519Y-83419500D01*
X94827347Y-83419500D01*
X95028556Y-83381888D01*
X95219427Y-83307944D01*
X95393462Y-83200186D01*
X95544732Y-83062285D01*
X95668088Y-82898935D01*
X95759328Y-82715701D01*
X95815345Y-82518821D01*
X95834232Y-82315000D01*
X96155768Y-82315000D01*
X96156306Y-82320806D01*
X96174116Y-82513015D01*
X96174117Y-82513025D01*
X96174655Y-82518821D01*
X96230672Y-82715701D01*
X96321912Y-82898935D01*
X96325421Y-82903582D01*
X96325422Y-82903583D01*
X96441755Y-83057634D01*
X96441759Y-83057638D01*
X96445268Y-83062285D01*
X96449570Y-83066207D01*
X96449573Y-83066210D01*
X96517100Y-83127769D01*
X96596538Y-83200186D01*
X96770573Y-83307944D01*
X96899800Y-83358007D01*
X96955261Y-83379493D01*
X96961444Y-83381888D01*
X97162653Y-83419500D01*
X97361519Y-83419500D01*
X97367347Y-83419500D01*
X97568556Y-83381888D01*
X97759427Y-83307944D01*
X97933462Y-83200186D01*
X98084732Y-83062285D01*
X98208088Y-82898935D01*
X98299328Y-82715701D01*
X98355345Y-82518821D01*
X98374232Y-82315000D01*
X98695768Y-82315000D01*
X98696306Y-82320806D01*
X98714116Y-82513015D01*
X98714117Y-82513025D01*
X98714655Y-82518821D01*
X98770672Y-82715701D01*
X98861912Y-82898935D01*
X98865421Y-82903582D01*
X98865422Y-82903583D01*
X98981755Y-83057634D01*
X98981759Y-83057638D01*
X98985268Y-83062285D01*
X98989570Y-83066207D01*
X98989573Y-83066210D01*
X99057100Y-83127769D01*
X99136538Y-83200186D01*
X99310573Y-83307944D01*
X99439800Y-83358007D01*
X99495261Y-83379493D01*
X99501444Y-83381888D01*
X99702653Y-83419500D01*
X99901519Y-83419500D01*
X99907347Y-83419500D01*
X100108556Y-83381888D01*
X100299427Y-83307944D01*
X100473462Y-83200186D01*
X100624732Y-83062285D01*
X100748088Y-82898935D01*
X100839328Y-82715701D01*
X100895345Y-82518821D01*
X100914232Y-82315000D01*
X101235768Y-82315000D01*
X101236306Y-82320806D01*
X101254116Y-82513015D01*
X101254117Y-82513025D01*
X101254655Y-82518821D01*
X101310672Y-82715701D01*
X101401912Y-82898935D01*
X101405421Y-82903582D01*
X101405422Y-82903583D01*
X101521755Y-83057634D01*
X101521759Y-83057638D01*
X101525268Y-83062285D01*
X101529570Y-83066207D01*
X101529573Y-83066210D01*
X101597100Y-83127769D01*
X101676538Y-83200186D01*
X101850573Y-83307944D01*
X101979800Y-83358007D01*
X102035261Y-83379493D01*
X102041444Y-83381888D01*
X102242653Y-83419500D01*
X102441519Y-83419500D01*
X102447347Y-83419500D01*
X102648556Y-83381888D01*
X102839427Y-83307944D01*
X103013462Y-83200186D01*
X103164732Y-83062285D01*
X103288088Y-82898935D01*
X103379328Y-82715701D01*
X103435345Y-82518821D01*
X103454232Y-82315000D01*
X103775768Y-82315000D01*
X103776306Y-82320806D01*
X103794116Y-82513015D01*
X103794117Y-82513025D01*
X103794655Y-82518821D01*
X103850672Y-82715701D01*
X103941912Y-82898935D01*
X103945421Y-82903582D01*
X103945422Y-82903583D01*
X104061755Y-83057634D01*
X104061759Y-83057638D01*
X104065268Y-83062285D01*
X104069570Y-83066207D01*
X104069573Y-83066210D01*
X104137100Y-83127769D01*
X104216538Y-83200186D01*
X104390573Y-83307944D01*
X104519800Y-83358007D01*
X104575261Y-83379493D01*
X104581444Y-83381888D01*
X104782653Y-83419500D01*
X104981519Y-83419500D01*
X104987347Y-83419500D01*
X105188556Y-83381888D01*
X105379427Y-83307944D01*
X105553462Y-83200186D01*
X105704732Y-83062285D01*
X105828088Y-82898935D01*
X105919328Y-82715701D01*
X105975345Y-82518821D01*
X105994232Y-82315000D01*
X106315768Y-82315000D01*
X106316306Y-82320806D01*
X106334116Y-82513015D01*
X106334117Y-82513025D01*
X106334655Y-82518821D01*
X106390672Y-82715701D01*
X106481912Y-82898935D01*
X106485421Y-82903582D01*
X106485422Y-82903583D01*
X106601755Y-83057634D01*
X106601759Y-83057638D01*
X106605268Y-83062285D01*
X106609570Y-83066207D01*
X106609573Y-83066210D01*
X106677100Y-83127769D01*
X106756538Y-83200186D01*
X106930573Y-83307944D01*
X107059800Y-83358007D01*
X107115261Y-83379493D01*
X107121444Y-83381888D01*
X107322653Y-83419500D01*
X107521519Y-83419500D01*
X107527347Y-83419500D01*
X107728556Y-83381888D01*
X107919427Y-83307944D01*
X108093462Y-83200186D01*
X108244732Y-83062285D01*
X108368088Y-82898935D01*
X108459328Y-82715701D01*
X108515345Y-82518821D01*
X108534232Y-82315000D01*
X108515345Y-82111179D01*
X108459328Y-81914299D01*
X108368088Y-81731065D01*
X108319100Y-81666194D01*
X108248244Y-81572365D01*
X108248241Y-81572361D01*
X108244732Y-81567715D01*
X108240429Y-81563792D01*
X108240426Y-81563789D01*
X108104079Y-81439493D01*
X108093462Y-81429814D01*
X108088512Y-81426749D01*
X108088508Y-81426746D01*
X107924387Y-81325127D01*
X107924386Y-81325126D01*
X107919427Y-81322056D01*
X107893459Y-81311996D01*
X107733989Y-81250216D01*
X107733981Y-81250213D01*
X107728556Y-81248112D01*
X107722839Y-81247043D01*
X107722831Y-81247041D01*
X107533073Y-81211570D01*
X107533069Y-81211569D01*
X107527347Y-81210500D01*
X107322653Y-81210500D01*
X107316931Y-81211569D01*
X107316926Y-81211570D01*
X107127168Y-81247041D01*
X107127157Y-81247043D01*
X107121444Y-81248112D01*
X107116021Y-81250212D01*
X107116010Y-81250216D01*
X106936011Y-81319949D01*
X106936008Y-81319950D01*
X106930573Y-81322056D01*
X106925617Y-81325124D01*
X106925612Y-81325127D01*
X106761491Y-81426746D01*
X106761481Y-81426752D01*
X106756538Y-81429814D01*
X106752239Y-81433732D01*
X106752235Y-81433736D01*
X106609573Y-81563789D01*
X106609565Y-81563797D01*
X106605268Y-81567715D01*
X106601763Y-81572355D01*
X106601755Y-81572365D01*
X106485422Y-81726416D01*
X106485418Y-81726421D01*
X106481912Y-81731065D01*
X106479317Y-81736274D01*
X106479314Y-81736281D01*
X106393271Y-81909079D01*
X106390672Y-81914299D01*
X106389078Y-81919899D01*
X106389076Y-81919906D01*
X106341900Y-82085715D01*
X106334655Y-82111179D01*
X106334118Y-82116972D01*
X106334116Y-82116984D01*
X106323838Y-82227908D01*
X106315768Y-82315000D01*
X105994232Y-82315000D01*
X105975345Y-82111179D01*
X105919328Y-81914299D01*
X105828088Y-81731065D01*
X105779100Y-81666194D01*
X105708244Y-81572365D01*
X105708241Y-81572361D01*
X105704732Y-81567715D01*
X105700429Y-81563792D01*
X105700426Y-81563789D01*
X105564079Y-81439493D01*
X105553462Y-81429814D01*
X105548512Y-81426749D01*
X105548508Y-81426746D01*
X105384387Y-81325127D01*
X105384386Y-81325126D01*
X105379427Y-81322056D01*
X105353459Y-81311996D01*
X105193989Y-81250216D01*
X105193981Y-81250213D01*
X105188556Y-81248112D01*
X105182839Y-81247043D01*
X105182831Y-81247041D01*
X104993073Y-81211570D01*
X104993069Y-81211569D01*
X104987347Y-81210500D01*
X104782653Y-81210500D01*
X104776931Y-81211569D01*
X104776926Y-81211570D01*
X104587168Y-81247041D01*
X104587157Y-81247043D01*
X104581444Y-81248112D01*
X104576021Y-81250212D01*
X104576010Y-81250216D01*
X104396011Y-81319949D01*
X104396008Y-81319950D01*
X104390573Y-81322056D01*
X104385617Y-81325124D01*
X104385612Y-81325127D01*
X104221491Y-81426746D01*
X104221481Y-81426752D01*
X104216538Y-81429814D01*
X104212239Y-81433732D01*
X104212235Y-81433736D01*
X104069573Y-81563789D01*
X104069565Y-81563797D01*
X104065268Y-81567715D01*
X104061763Y-81572355D01*
X104061755Y-81572365D01*
X103945422Y-81726416D01*
X103945418Y-81726421D01*
X103941912Y-81731065D01*
X103939317Y-81736274D01*
X103939314Y-81736281D01*
X103853271Y-81909079D01*
X103850672Y-81914299D01*
X103849078Y-81919899D01*
X103849076Y-81919906D01*
X103801900Y-82085715D01*
X103794655Y-82111179D01*
X103794118Y-82116972D01*
X103794116Y-82116984D01*
X103783838Y-82227908D01*
X103775768Y-82315000D01*
X103454232Y-82315000D01*
X103435345Y-82111179D01*
X103379328Y-81914299D01*
X103288088Y-81731065D01*
X103239100Y-81666194D01*
X103168244Y-81572365D01*
X103168241Y-81572361D01*
X103164732Y-81567715D01*
X103160429Y-81563792D01*
X103160426Y-81563789D01*
X103024079Y-81439493D01*
X103013462Y-81429814D01*
X103008512Y-81426749D01*
X103008508Y-81426746D01*
X102844387Y-81325127D01*
X102844386Y-81325126D01*
X102839427Y-81322056D01*
X102813459Y-81311996D01*
X102653989Y-81250216D01*
X102653981Y-81250213D01*
X102648556Y-81248112D01*
X102642839Y-81247043D01*
X102642831Y-81247041D01*
X102453073Y-81211570D01*
X102453069Y-81211569D01*
X102447347Y-81210500D01*
X102242653Y-81210500D01*
X102236931Y-81211569D01*
X102236926Y-81211570D01*
X102047168Y-81247041D01*
X102047157Y-81247043D01*
X102041444Y-81248112D01*
X102036021Y-81250212D01*
X102036010Y-81250216D01*
X101856011Y-81319949D01*
X101856008Y-81319950D01*
X101850573Y-81322056D01*
X101845617Y-81325124D01*
X101845612Y-81325127D01*
X101681491Y-81426746D01*
X101681481Y-81426752D01*
X101676538Y-81429814D01*
X101672239Y-81433732D01*
X101672235Y-81433736D01*
X101529573Y-81563789D01*
X101529565Y-81563797D01*
X101525268Y-81567715D01*
X101521763Y-81572355D01*
X101521755Y-81572365D01*
X101405422Y-81726416D01*
X101405418Y-81726421D01*
X101401912Y-81731065D01*
X101399317Y-81736274D01*
X101399314Y-81736281D01*
X101313271Y-81909079D01*
X101310672Y-81914299D01*
X101309078Y-81919899D01*
X101309076Y-81919906D01*
X101261900Y-82085715D01*
X101254655Y-82111179D01*
X101254118Y-82116972D01*
X101254116Y-82116984D01*
X101243838Y-82227908D01*
X101235768Y-82315000D01*
X100914232Y-82315000D01*
X100895345Y-82111179D01*
X100839328Y-81914299D01*
X100748088Y-81731065D01*
X100699100Y-81666194D01*
X100628244Y-81572365D01*
X100628241Y-81572361D01*
X100624732Y-81567715D01*
X100620429Y-81563792D01*
X100620426Y-81563789D01*
X100484079Y-81439493D01*
X100473462Y-81429814D01*
X100468512Y-81426749D01*
X100468508Y-81426746D01*
X100304387Y-81325127D01*
X100304386Y-81325126D01*
X100299427Y-81322056D01*
X100273459Y-81311996D01*
X100113989Y-81250216D01*
X100113981Y-81250213D01*
X100108556Y-81248112D01*
X100102839Y-81247043D01*
X100102831Y-81247041D01*
X99913073Y-81211570D01*
X99913069Y-81211569D01*
X99907347Y-81210500D01*
X99702653Y-81210500D01*
X99696931Y-81211569D01*
X99696926Y-81211570D01*
X99507168Y-81247041D01*
X99507157Y-81247043D01*
X99501444Y-81248112D01*
X99496021Y-81250212D01*
X99496010Y-81250216D01*
X99316011Y-81319949D01*
X99316008Y-81319950D01*
X99310573Y-81322056D01*
X99305617Y-81325124D01*
X99305612Y-81325127D01*
X99141491Y-81426746D01*
X99141481Y-81426752D01*
X99136538Y-81429814D01*
X99132239Y-81433732D01*
X99132235Y-81433736D01*
X98989573Y-81563789D01*
X98989565Y-81563797D01*
X98985268Y-81567715D01*
X98981763Y-81572355D01*
X98981755Y-81572365D01*
X98865422Y-81726416D01*
X98865418Y-81726421D01*
X98861912Y-81731065D01*
X98859317Y-81736274D01*
X98859314Y-81736281D01*
X98773271Y-81909079D01*
X98770672Y-81914299D01*
X98769078Y-81919899D01*
X98769076Y-81919906D01*
X98721900Y-82085715D01*
X98714655Y-82111179D01*
X98714118Y-82116972D01*
X98714116Y-82116984D01*
X98703838Y-82227908D01*
X98695768Y-82315000D01*
X98374232Y-82315000D01*
X98355345Y-82111179D01*
X98299328Y-81914299D01*
X98208088Y-81731065D01*
X98159100Y-81666194D01*
X98088244Y-81572365D01*
X98088241Y-81572361D01*
X98084732Y-81567715D01*
X98080429Y-81563792D01*
X98080426Y-81563789D01*
X97944079Y-81439493D01*
X97933462Y-81429814D01*
X97928512Y-81426749D01*
X97928508Y-81426746D01*
X97764387Y-81325127D01*
X97764386Y-81325126D01*
X97759427Y-81322056D01*
X97733459Y-81311996D01*
X97573989Y-81250216D01*
X97573981Y-81250213D01*
X97568556Y-81248112D01*
X97562839Y-81247043D01*
X97562831Y-81247041D01*
X97373073Y-81211570D01*
X97373069Y-81211569D01*
X97367347Y-81210500D01*
X97162653Y-81210500D01*
X97156931Y-81211569D01*
X97156926Y-81211570D01*
X96967168Y-81247041D01*
X96967157Y-81247043D01*
X96961444Y-81248112D01*
X96956021Y-81250212D01*
X96956010Y-81250216D01*
X96776011Y-81319949D01*
X96776008Y-81319950D01*
X96770573Y-81322056D01*
X96765617Y-81325124D01*
X96765612Y-81325127D01*
X96601491Y-81426746D01*
X96601481Y-81426752D01*
X96596538Y-81429814D01*
X96592239Y-81433732D01*
X96592235Y-81433736D01*
X96449573Y-81563789D01*
X96449565Y-81563797D01*
X96445268Y-81567715D01*
X96441763Y-81572355D01*
X96441755Y-81572365D01*
X96325422Y-81726416D01*
X96325418Y-81726421D01*
X96321912Y-81731065D01*
X96319317Y-81736274D01*
X96319314Y-81736281D01*
X96233271Y-81909079D01*
X96230672Y-81914299D01*
X96229078Y-81919899D01*
X96229076Y-81919906D01*
X96181900Y-82085715D01*
X96174655Y-82111179D01*
X96174118Y-82116972D01*
X96174116Y-82116984D01*
X96163838Y-82227908D01*
X96155768Y-82315000D01*
X95834232Y-82315000D01*
X95815345Y-82111179D01*
X95759328Y-81914299D01*
X95668088Y-81731065D01*
X95619100Y-81666194D01*
X95548244Y-81572365D01*
X95548241Y-81572361D01*
X95544732Y-81567715D01*
X95540429Y-81563792D01*
X95540426Y-81563789D01*
X95404079Y-81439493D01*
X95393462Y-81429814D01*
X95388512Y-81426749D01*
X95388508Y-81426746D01*
X95224387Y-81325127D01*
X95224386Y-81325126D01*
X95219427Y-81322056D01*
X95193459Y-81311996D01*
X95033989Y-81250216D01*
X95033981Y-81250213D01*
X95028556Y-81248112D01*
X95022839Y-81247043D01*
X95022831Y-81247041D01*
X94833073Y-81211570D01*
X94833069Y-81211569D01*
X94827347Y-81210500D01*
X94622653Y-81210500D01*
X94616931Y-81211569D01*
X94616926Y-81211570D01*
X94427168Y-81247041D01*
X94427157Y-81247043D01*
X94421444Y-81248112D01*
X94416021Y-81250212D01*
X94416010Y-81250216D01*
X94236011Y-81319949D01*
X94236008Y-81319950D01*
X94230573Y-81322056D01*
X94225617Y-81325124D01*
X94225612Y-81325127D01*
X94061491Y-81426746D01*
X94061481Y-81426752D01*
X94056538Y-81429814D01*
X94052239Y-81433732D01*
X94052235Y-81433736D01*
X93909573Y-81563789D01*
X93909565Y-81563797D01*
X93905268Y-81567715D01*
X93901763Y-81572355D01*
X93901755Y-81572365D01*
X93785422Y-81726416D01*
X93785418Y-81726421D01*
X93781912Y-81731065D01*
X93779317Y-81736274D01*
X93779314Y-81736281D01*
X93693271Y-81909079D01*
X93690672Y-81914299D01*
X93689078Y-81919899D01*
X93689076Y-81919906D01*
X93641900Y-82085715D01*
X93634655Y-82111179D01*
X93634118Y-82116972D01*
X93634116Y-82116984D01*
X93623838Y-82227908D01*
X93615768Y-82315000D01*
X93294232Y-82315000D01*
X93275345Y-82111179D01*
X93219328Y-81914299D01*
X93128088Y-81731065D01*
X93079100Y-81666194D01*
X93008244Y-81572365D01*
X93008241Y-81572361D01*
X93004732Y-81567715D01*
X93000429Y-81563792D01*
X93000426Y-81563789D01*
X92864079Y-81439493D01*
X92853462Y-81429814D01*
X92848512Y-81426749D01*
X92848508Y-81426746D01*
X92684387Y-81325127D01*
X92684386Y-81325126D01*
X92679427Y-81322056D01*
X92653459Y-81311996D01*
X92493989Y-81250216D01*
X92493981Y-81250213D01*
X92488556Y-81248112D01*
X92482839Y-81247043D01*
X92482831Y-81247041D01*
X92293073Y-81211570D01*
X92293069Y-81211569D01*
X92287347Y-81210500D01*
X92082653Y-81210500D01*
X92076931Y-81211569D01*
X92076926Y-81211570D01*
X91887168Y-81247041D01*
X91887157Y-81247043D01*
X91881444Y-81248112D01*
X91876021Y-81250212D01*
X91876010Y-81250216D01*
X91696011Y-81319949D01*
X91696008Y-81319950D01*
X91690573Y-81322056D01*
X91685617Y-81325124D01*
X91685612Y-81325127D01*
X91521491Y-81426746D01*
X91521481Y-81426752D01*
X91516538Y-81429814D01*
X91512239Y-81433732D01*
X91512235Y-81433736D01*
X91369573Y-81563789D01*
X91369565Y-81563797D01*
X91365268Y-81567715D01*
X91361763Y-81572355D01*
X91361755Y-81572365D01*
X91245422Y-81726416D01*
X91245418Y-81726421D01*
X91241912Y-81731065D01*
X91239317Y-81736274D01*
X91239314Y-81736281D01*
X91153271Y-81909079D01*
X91150672Y-81914299D01*
X91149078Y-81919899D01*
X91149076Y-81919906D01*
X91101900Y-82085715D01*
X91094655Y-82111179D01*
X91094118Y-82116972D01*
X91094116Y-82116984D01*
X91083838Y-82227908D01*
X91075768Y-82315000D01*
X90754232Y-82315000D01*
X90735345Y-82111179D01*
X90679328Y-81914299D01*
X90588088Y-81731065D01*
X90539100Y-81666194D01*
X90468244Y-81572365D01*
X90468241Y-81572361D01*
X90464732Y-81567715D01*
X90460429Y-81563792D01*
X90460426Y-81563789D01*
X90324079Y-81439493D01*
X90313462Y-81429814D01*
X90308512Y-81426749D01*
X90308508Y-81426746D01*
X90144387Y-81325127D01*
X90144386Y-81325126D01*
X90139427Y-81322056D01*
X90113459Y-81311996D01*
X89953989Y-81250216D01*
X89953981Y-81250213D01*
X89948556Y-81248112D01*
X89942839Y-81247043D01*
X89942831Y-81247041D01*
X89753073Y-81211570D01*
X89753069Y-81211569D01*
X89747347Y-81210500D01*
X89542653Y-81210500D01*
X89536931Y-81211569D01*
X89536926Y-81211570D01*
X89347168Y-81247041D01*
X89347157Y-81247043D01*
X89341444Y-81248112D01*
X89336021Y-81250212D01*
X89336010Y-81250216D01*
X89156011Y-81319949D01*
X89156008Y-81319950D01*
X89150573Y-81322056D01*
X89145613Y-81325126D01*
X89145615Y-81325126D01*
X89091414Y-81358685D01*
X89026692Y-81377547D01*
X88961510Y-81360342D01*
X88914527Y-81311996D01*
X88899193Y-81246349D01*
X88899551Y-81237673D01*
X88901695Y-81227452D01*
X88897955Y-81197456D01*
X88897419Y-81192279D01*
X88897100Y-81188431D01*
X88897100Y-81183223D01*
X88893890Y-81163993D01*
X88893153Y-81158936D01*
X88887060Y-81110049D01*
X88883764Y-81103308D01*
X88882529Y-81095902D01*
X88871990Y-81076429D01*
X88859092Y-81052596D01*
X88856707Y-81047962D01*
X88850124Y-81034496D01*
X88835099Y-81003760D01*
X88829791Y-80998452D01*
X88826219Y-80991851D01*
X88790003Y-80958512D01*
X88786245Y-80954906D01*
X88159457Y-80328118D01*
X88131058Y-80284534D01*
X88122687Y-80233192D01*
X88134837Y-80186427D01*
X88134627Y-80186346D01*
X88135331Y-80184527D01*
X88135766Y-80182853D01*
X88139328Y-80175701D01*
X88195345Y-79978821D01*
X88214232Y-79775000D01*
X88535768Y-79775000D01*
X88536306Y-79780806D01*
X88554116Y-79973015D01*
X88554117Y-79973025D01*
X88554655Y-79978821D01*
X88556249Y-79984426D01*
X88556250Y-79984427D01*
X88609026Y-80169918D01*
X88610672Y-80175701D01*
X88701912Y-80358935D01*
X88705421Y-80363582D01*
X88705422Y-80363583D01*
X88821755Y-80517634D01*
X88821759Y-80517638D01*
X88825268Y-80522285D01*
X88829570Y-80526207D01*
X88829573Y-80526210D01*
X88917466Y-80606335D01*
X88976538Y-80660186D01*
X88981489Y-80663251D01*
X88981491Y-80663253D01*
X89055992Y-80709382D01*
X89150573Y-80767944D01*
X89341444Y-80841888D01*
X89542653Y-80879500D01*
X89741519Y-80879500D01*
X89747347Y-80879500D01*
X89948556Y-80841888D01*
X90139427Y-80767944D01*
X90313462Y-80660186D01*
X90464732Y-80522285D01*
X90588088Y-80358935D01*
X90679328Y-80175701D01*
X90735345Y-79978821D01*
X90754232Y-79775000D01*
X91075768Y-79775000D01*
X91076306Y-79780806D01*
X91094116Y-79973015D01*
X91094117Y-79973025D01*
X91094655Y-79978821D01*
X91096249Y-79984426D01*
X91096250Y-79984427D01*
X91149026Y-80169918D01*
X91150672Y-80175701D01*
X91241912Y-80358935D01*
X91245421Y-80363582D01*
X91245422Y-80363583D01*
X91361755Y-80517634D01*
X91361759Y-80517638D01*
X91365268Y-80522285D01*
X91369570Y-80526207D01*
X91369573Y-80526210D01*
X91457466Y-80606335D01*
X91516538Y-80660186D01*
X91521489Y-80663251D01*
X91521491Y-80663253D01*
X91595992Y-80709382D01*
X91690573Y-80767944D01*
X91881444Y-80841888D01*
X92082653Y-80879500D01*
X92281519Y-80879500D01*
X92287347Y-80879500D01*
X92488556Y-80841888D01*
X92679427Y-80767944D01*
X92853462Y-80660186D01*
X93004732Y-80522285D01*
X93128088Y-80358935D01*
X93219328Y-80175701D01*
X93275345Y-79978821D01*
X93294232Y-79775000D01*
X93615768Y-79775000D01*
X93616306Y-79780806D01*
X93634116Y-79973015D01*
X93634117Y-79973025D01*
X93634655Y-79978821D01*
X93636249Y-79984426D01*
X93636250Y-79984427D01*
X93689026Y-80169918D01*
X93690672Y-80175701D01*
X93781912Y-80358935D01*
X93785421Y-80363582D01*
X93785422Y-80363583D01*
X93901755Y-80517634D01*
X93901759Y-80517638D01*
X93905268Y-80522285D01*
X93909570Y-80526207D01*
X93909573Y-80526210D01*
X93997466Y-80606335D01*
X94056538Y-80660186D01*
X94061489Y-80663251D01*
X94061491Y-80663253D01*
X94135992Y-80709382D01*
X94230573Y-80767944D01*
X94421444Y-80841888D01*
X94622653Y-80879500D01*
X94821519Y-80879500D01*
X94827347Y-80879500D01*
X95028556Y-80841888D01*
X95219427Y-80767944D01*
X95393462Y-80660186D01*
X95544732Y-80522285D01*
X95668088Y-80358935D01*
X95759328Y-80175701D01*
X95815345Y-79978821D01*
X95834232Y-79775000D01*
X96155768Y-79775000D01*
X96156306Y-79780806D01*
X96174116Y-79973015D01*
X96174117Y-79973025D01*
X96174655Y-79978821D01*
X96176249Y-79984426D01*
X96176250Y-79984427D01*
X96229026Y-80169918D01*
X96230672Y-80175701D01*
X96321912Y-80358935D01*
X96325421Y-80363582D01*
X96325422Y-80363583D01*
X96441755Y-80517634D01*
X96441759Y-80517638D01*
X96445268Y-80522285D01*
X96449570Y-80526207D01*
X96449573Y-80526210D01*
X96537466Y-80606335D01*
X96596538Y-80660186D01*
X96601489Y-80663251D01*
X96601491Y-80663253D01*
X96675992Y-80709382D01*
X96770573Y-80767944D01*
X96961444Y-80841888D01*
X97162653Y-80879500D01*
X97361519Y-80879500D01*
X97367347Y-80879500D01*
X97568556Y-80841888D01*
X97759427Y-80767944D01*
X97933462Y-80660186D01*
X98084732Y-80522285D01*
X98208088Y-80358935D01*
X98299328Y-80175701D01*
X98355345Y-79978821D01*
X98374232Y-79775000D01*
X98695768Y-79775000D01*
X98696306Y-79780806D01*
X98714116Y-79973015D01*
X98714117Y-79973025D01*
X98714655Y-79978821D01*
X98716249Y-79984426D01*
X98716250Y-79984427D01*
X98769026Y-80169918D01*
X98770672Y-80175701D01*
X98861912Y-80358935D01*
X98865421Y-80363582D01*
X98865422Y-80363583D01*
X98981755Y-80517634D01*
X98981759Y-80517638D01*
X98985268Y-80522285D01*
X98989570Y-80526207D01*
X98989573Y-80526210D01*
X99077466Y-80606335D01*
X99136538Y-80660186D01*
X99141489Y-80663251D01*
X99141491Y-80663253D01*
X99215992Y-80709382D01*
X99310573Y-80767944D01*
X99501444Y-80841888D01*
X99702653Y-80879500D01*
X99901519Y-80879500D01*
X99907347Y-80879500D01*
X100108556Y-80841888D01*
X100299427Y-80767944D01*
X100473462Y-80660186D01*
X100624732Y-80522285D01*
X100748088Y-80358935D01*
X100839328Y-80175701D01*
X100895345Y-79978821D01*
X100914232Y-79775000D01*
X101235768Y-79775000D01*
X101236306Y-79780806D01*
X101254116Y-79973015D01*
X101254117Y-79973025D01*
X101254655Y-79978821D01*
X101256249Y-79984426D01*
X101256250Y-79984427D01*
X101309026Y-80169918D01*
X101310672Y-80175701D01*
X101401912Y-80358935D01*
X101405421Y-80363582D01*
X101405422Y-80363583D01*
X101521755Y-80517634D01*
X101521759Y-80517638D01*
X101525268Y-80522285D01*
X101529570Y-80526207D01*
X101529573Y-80526210D01*
X101617466Y-80606335D01*
X101676538Y-80660186D01*
X101681489Y-80663251D01*
X101681491Y-80663253D01*
X101755992Y-80709382D01*
X101850573Y-80767944D01*
X102041444Y-80841888D01*
X102242653Y-80879500D01*
X102441519Y-80879500D01*
X102447347Y-80879500D01*
X102648556Y-80841888D01*
X102839427Y-80767944D01*
X103013462Y-80660186D01*
X103164732Y-80522285D01*
X103288088Y-80358935D01*
X103379328Y-80175701D01*
X103435345Y-79978821D01*
X103454232Y-79775000D01*
X103775768Y-79775000D01*
X103776306Y-79780806D01*
X103794116Y-79973015D01*
X103794117Y-79973025D01*
X103794655Y-79978821D01*
X103796249Y-79984426D01*
X103796250Y-79984427D01*
X103849026Y-80169918D01*
X103850672Y-80175701D01*
X103941912Y-80358935D01*
X103945421Y-80363582D01*
X103945422Y-80363583D01*
X104061755Y-80517634D01*
X104061759Y-80517638D01*
X104065268Y-80522285D01*
X104069570Y-80526207D01*
X104069573Y-80526210D01*
X104157466Y-80606335D01*
X104216538Y-80660186D01*
X104221489Y-80663251D01*
X104221491Y-80663253D01*
X104295992Y-80709382D01*
X104390573Y-80767944D01*
X104581444Y-80841888D01*
X104782653Y-80879500D01*
X104981519Y-80879500D01*
X104987347Y-80879500D01*
X105188556Y-80841888D01*
X105379427Y-80767944D01*
X105553462Y-80660186D01*
X105704732Y-80522285D01*
X105828088Y-80358935D01*
X105919328Y-80175701D01*
X105975345Y-79978821D01*
X105994232Y-79775000D01*
X106315768Y-79775000D01*
X106316306Y-79780806D01*
X106334116Y-79973015D01*
X106334117Y-79973025D01*
X106334655Y-79978821D01*
X106336249Y-79984426D01*
X106336250Y-79984427D01*
X106389026Y-80169918D01*
X106390672Y-80175701D01*
X106481912Y-80358935D01*
X106485421Y-80363582D01*
X106485422Y-80363583D01*
X106601755Y-80517634D01*
X106601759Y-80517638D01*
X106605268Y-80522285D01*
X106609570Y-80526207D01*
X106609573Y-80526210D01*
X106697466Y-80606335D01*
X106756538Y-80660186D01*
X106761489Y-80663251D01*
X106761491Y-80663253D01*
X106835992Y-80709382D01*
X106930573Y-80767944D01*
X107121444Y-80841888D01*
X107322653Y-80879500D01*
X107521519Y-80879500D01*
X107527347Y-80879500D01*
X107728556Y-80841888D01*
X107919427Y-80767944D01*
X108093462Y-80660186D01*
X108244732Y-80522285D01*
X108368088Y-80358935D01*
X108459328Y-80175701D01*
X108500322Y-80031620D01*
X108892922Y-80031620D01*
X108893451Y-80043061D01*
X108929546Y-80169918D01*
X108933734Y-80180729D01*
X109019742Y-80353456D01*
X109025850Y-80363321D01*
X109142126Y-80517296D01*
X109149944Y-80525872D01*
X109292533Y-80655859D01*
X109301796Y-80662854D01*
X109465846Y-80764428D01*
X109476228Y-80769598D01*
X109656146Y-80839299D01*
X109667307Y-80842475D01*
X109697358Y-80848092D01*
X109708559Y-80847704D01*
X109711000Y-80836763D01*
X110219000Y-80836763D01*
X110221440Y-80847704D01*
X110232641Y-80848092D01*
X110262692Y-80842475D01*
X110273853Y-80839299D01*
X110453771Y-80769598D01*
X110464153Y-80764428D01*
X110628203Y-80662854D01*
X110637466Y-80655859D01*
X110780055Y-80525872D01*
X110787873Y-80517296D01*
X110904149Y-80363321D01*
X110910257Y-80353456D01*
X110996265Y-80180729D01*
X111000453Y-80169918D01*
X111036548Y-80043061D01*
X111037077Y-80031620D01*
X111025933Y-80029000D01*
X110235590Y-80029000D01*
X110222506Y-80032506D01*
X110219000Y-80045590D01*
X110219000Y-80836763D01*
X109711000Y-80836763D01*
X109711000Y-80045590D01*
X109707493Y-80032506D01*
X109694410Y-80029000D01*
X108904067Y-80029000D01*
X108892922Y-80031620D01*
X108500322Y-80031620D01*
X108515345Y-79978821D01*
X108534232Y-79775000D01*
X108517837Y-79598072D01*
X108515883Y-79576984D01*
X108515882Y-79576983D01*
X108515345Y-79571179D01*
X108500322Y-79518379D01*
X108892922Y-79518379D01*
X108904067Y-79521000D01*
X109694410Y-79521000D01*
X109707493Y-79517493D01*
X109711000Y-79504410D01*
X110219000Y-79504410D01*
X110222506Y-79517493D01*
X110235590Y-79521000D01*
X111025933Y-79521000D01*
X111037077Y-79518379D01*
X111036548Y-79506938D01*
X111000453Y-79380081D01*
X110996265Y-79369270D01*
X110910257Y-79196543D01*
X110904149Y-79186678D01*
X110787873Y-79032703D01*
X110780055Y-79024127D01*
X110637466Y-78894140D01*
X110628203Y-78887145D01*
X110464153Y-78785571D01*
X110453771Y-78780401D01*
X110273853Y-78710700D01*
X110262692Y-78707524D01*
X110232641Y-78701907D01*
X110221440Y-78702295D01*
X110219000Y-78713237D01*
X110219000Y-79504410D01*
X109711000Y-79504410D01*
X109711000Y-78713237D01*
X109708559Y-78702295D01*
X109697358Y-78701907D01*
X109667307Y-78707524D01*
X109656146Y-78710700D01*
X109476228Y-78780401D01*
X109465846Y-78785571D01*
X109301796Y-78887145D01*
X109292533Y-78894140D01*
X109149944Y-79024127D01*
X109142126Y-79032703D01*
X109025850Y-79186678D01*
X109019742Y-79196543D01*
X108933734Y-79369270D01*
X108929546Y-79380081D01*
X108893451Y-79506938D01*
X108892922Y-79518379D01*
X108500322Y-79518379D01*
X108459328Y-79374299D01*
X108368088Y-79191065D01*
X108244732Y-79027715D01*
X108240429Y-79023792D01*
X108240426Y-79023789D01*
X108097764Y-78893736D01*
X108097765Y-78893736D01*
X108093462Y-78889814D01*
X108088512Y-78886749D01*
X108088508Y-78886746D01*
X107924387Y-78785127D01*
X107924386Y-78785126D01*
X107919427Y-78782056D01*
X107895898Y-78772941D01*
X107733989Y-78710216D01*
X107733981Y-78710213D01*
X107728556Y-78708112D01*
X107722839Y-78707043D01*
X107722831Y-78707041D01*
X107533073Y-78671570D01*
X107533069Y-78671569D01*
X107527347Y-78670500D01*
X107322653Y-78670500D01*
X107316931Y-78671569D01*
X107316926Y-78671570D01*
X107127168Y-78707041D01*
X107127157Y-78707043D01*
X107121444Y-78708112D01*
X107116021Y-78710212D01*
X107116010Y-78710216D01*
X106936011Y-78779949D01*
X106936008Y-78779950D01*
X106930573Y-78782056D01*
X106925617Y-78785124D01*
X106925612Y-78785127D01*
X106761491Y-78886746D01*
X106761481Y-78886752D01*
X106756538Y-78889814D01*
X106752239Y-78893732D01*
X106752235Y-78893736D01*
X106609573Y-79023789D01*
X106609565Y-79023797D01*
X106605268Y-79027715D01*
X106601763Y-79032355D01*
X106601755Y-79032365D01*
X106485422Y-79186416D01*
X106485418Y-79186421D01*
X106481912Y-79191065D01*
X106479317Y-79196274D01*
X106479314Y-79196281D01*
X106479184Y-79196543D01*
X106390672Y-79374299D01*
X106389078Y-79379899D01*
X106389076Y-79379906D01*
X106348932Y-79521000D01*
X106334655Y-79571179D01*
X106334118Y-79576972D01*
X106334116Y-79576984D01*
X106316306Y-79769194D01*
X106315768Y-79775000D01*
X105994232Y-79775000D01*
X105977837Y-79598072D01*
X105975883Y-79576984D01*
X105975882Y-79576983D01*
X105975345Y-79571179D01*
X105919328Y-79374299D01*
X105828088Y-79191065D01*
X105704732Y-79027715D01*
X105700429Y-79023792D01*
X105700426Y-79023789D01*
X105557764Y-78893736D01*
X105557765Y-78893736D01*
X105553462Y-78889814D01*
X105548512Y-78886749D01*
X105548508Y-78886746D01*
X105384387Y-78785127D01*
X105384386Y-78785126D01*
X105379427Y-78782056D01*
X105355898Y-78772941D01*
X105193989Y-78710216D01*
X105193981Y-78710213D01*
X105188556Y-78708112D01*
X105182839Y-78707043D01*
X105182831Y-78707041D01*
X104993073Y-78671570D01*
X104993069Y-78671569D01*
X104987347Y-78670500D01*
X104782653Y-78670500D01*
X104776931Y-78671569D01*
X104776926Y-78671570D01*
X104587168Y-78707041D01*
X104587157Y-78707043D01*
X104581444Y-78708112D01*
X104576021Y-78710212D01*
X104576010Y-78710216D01*
X104396011Y-78779949D01*
X104396008Y-78779950D01*
X104390573Y-78782056D01*
X104385617Y-78785124D01*
X104385612Y-78785127D01*
X104221491Y-78886746D01*
X104221481Y-78886752D01*
X104216538Y-78889814D01*
X104212239Y-78893732D01*
X104212235Y-78893736D01*
X104069573Y-79023789D01*
X104069565Y-79023797D01*
X104065268Y-79027715D01*
X104061763Y-79032355D01*
X104061755Y-79032365D01*
X103945422Y-79186416D01*
X103945418Y-79186421D01*
X103941912Y-79191065D01*
X103939317Y-79196274D01*
X103939314Y-79196281D01*
X103939184Y-79196543D01*
X103850672Y-79374299D01*
X103849078Y-79379899D01*
X103849076Y-79379906D01*
X103808932Y-79521000D01*
X103794655Y-79571179D01*
X103794118Y-79576972D01*
X103794116Y-79576984D01*
X103776306Y-79769194D01*
X103775768Y-79775000D01*
X103454232Y-79775000D01*
X103437837Y-79598072D01*
X103435883Y-79576984D01*
X103435882Y-79576983D01*
X103435345Y-79571179D01*
X103379328Y-79374299D01*
X103288088Y-79191065D01*
X103164732Y-79027715D01*
X103160429Y-79023792D01*
X103160426Y-79023789D01*
X103017764Y-78893736D01*
X103017765Y-78893736D01*
X103013462Y-78889814D01*
X103008512Y-78886749D01*
X103008508Y-78886746D01*
X102844387Y-78785127D01*
X102844386Y-78785126D01*
X102839427Y-78782056D01*
X102815898Y-78772941D01*
X102653989Y-78710216D01*
X102653981Y-78710213D01*
X102648556Y-78708112D01*
X102642839Y-78707043D01*
X102642831Y-78707041D01*
X102453073Y-78671570D01*
X102453069Y-78671569D01*
X102447347Y-78670500D01*
X102242653Y-78670500D01*
X102236931Y-78671569D01*
X102236926Y-78671570D01*
X102047168Y-78707041D01*
X102047157Y-78707043D01*
X102041444Y-78708112D01*
X102036021Y-78710212D01*
X102036010Y-78710216D01*
X101856011Y-78779949D01*
X101856008Y-78779950D01*
X101850573Y-78782056D01*
X101845617Y-78785124D01*
X101845612Y-78785127D01*
X101681491Y-78886746D01*
X101681481Y-78886752D01*
X101676538Y-78889814D01*
X101672239Y-78893732D01*
X101672235Y-78893736D01*
X101529573Y-79023789D01*
X101529565Y-79023797D01*
X101525268Y-79027715D01*
X101521763Y-79032355D01*
X101521755Y-79032365D01*
X101405422Y-79186416D01*
X101405418Y-79186421D01*
X101401912Y-79191065D01*
X101399317Y-79196274D01*
X101399314Y-79196281D01*
X101399184Y-79196543D01*
X101310672Y-79374299D01*
X101309078Y-79379899D01*
X101309076Y-79379906D01*
X101268932Y-79521000D01*
X101254655Y-79571179D01*
X101254118Y-79576972D01*
X101254116Y-79576984D01*
X101236306Y-79769194D01*
X101235768Y-79775000D01*
X100914232Y-79775000D01*
X100897837Y-79598072D01*
X100895883Y-79576984D01*
X100895882Y-79576983D01*
X100895345Y-79571179D01*
X100839328Y-79374299D01*
X100748088Y-79191065D01*
X100624732Y-79027715D01*
X100620429Y-79023792D01*
X100620426Y-79023789D01*
X100477764Y-78893736D01*
X100477765Y-78893736D01*
X100473462Y-78889814D01*
X100468512Y-78886749D01*
X100468508Y-78886746D01*
X100304387Y-78785127D01*
X100304386Y-78785126D01*
X100299427Y-78782056D01*
X100275898Y-78772941D01*
X100113989Y-78710216D01*
X100113981Y-78710213D01*
X100108556Y-78708112D01*
X100102839Y-78707043D01*
X100102831Y-78707041D01*
X99913073Y-78671570D01*
X99913069Y-78671569D01*
X99907347Y-78670500D01*
X99702653Y-78670500D01*
X99696931Y-78671569D01*
X99696926Y-78671570D01*
X99507168Y-78707041D01*
X99507157Y-78707043D01*
X99501444Y-78708112D01*
X99496021Y-78710212D01*
X99496010Y-78710216D01*
X99316011Y-78779949D01*
X99316008Y-78779950D01*
X99310573Y-78782056D01*
X99305617Y-78785124D01*
X99305612Y-78785127D01*
X99141491Y-78886746D01*
X99141481Y-78886752D01*
X99136538Y-78889814D01*
X99132239Y-78893732D01*
X99132235Y-78893736D01*
X98989573Y-79023789D01*
X98989565Y-79023797D01*
X98985268Y-79027715D01*
X98981763Y-79032355D01*
X98981755Y-79032365D01*
X98865422Y-79186416D01*
X98865418Y-79186421D01*
X98861912Y-79191065D01*
X98859317Y-79196274D01*
X98859314Y-79196281D01*
X98859184Y-79196543D01*
X98770672Y-79374299D01*
X98769078Y-79379899D01*
X98769076Y-79379906D01*
X98728932Y-79521000D01*
X98714655Y-79571179D01*
X98714118Y-79576972D01*
X98714116Y-79576984D01*
X98696306Y-79769194D01*
X98695768Y-79775000D01*
X98374232Y-79775000D01*
X98357837Y-79598072D01*
X98355883Y-79576984D01*
X98355882Y-79576983D01*
X98355345Y-79571179D01*
X98299328Y-79374299D01*
X98208088Y-79191065D01*
X98084732Y-79027715D01*
X98080429Y-79023792D01*
X98080426Y-79023789D01*
X97937764Y-78893736D01*
X97937765Y-78893736D01*
X97933462Y-78889814D01*
X97928512Y-78886749D01*
X97928508Y-78886746D01*
X97764387Y-78785127D01*
X97764386Y-78785126D01*
X97759427Y-78782056D01*
X97735898Y-78772941D01*
X97573989Y-78710216D01*
X97573981Y-78710213D01*
X97568556Y-78708112D01*
X97562839Y-78707043D01*
X97562831Y-78707041D01*
X97373073Y-78671570D01*
X97373069Y-78671569D01*
X97367347Y-78670500D01*
X97162653Y-78670500D01*
X97156931Y-78671569D01*
X97156926Y-78671570D01*
X96967168Y-78707041D01*
X96967157Y-78707043D01*
X96961444Y-78708112D01*
X96956021Y-78710212D01*
X96956010Y-78710216D01*
X96776011Y-78779949D01*
X96776008Y-78779950D01*
X96770573Y-78782056D01*
X96765617Y-78785124D01*
X96765612Y-78785127D01*
X96601491Y-78886746D01*
X96601481Y-78886752D01*
X96596538Y-78889814D01*
X96592239Y-78893732D01*
X96592235Y-78893736D01*
X96449573Y-79023789D01*
X96449565Y-79023797D01*
X96445268Y-79027715D01*
X96441763Y-79032355D01*
X96441755Y-79032365D01*
X96325422Y-79186416D01*
X96325418Y-79186421D01*
X96321912Y-79191065D01*
X96319317Y-79196274D01*
X96319314Y-79196281D01*
X96319184Y-79196543D01*
X96230672Y-79374299D01*
X96229078Y-79379899D01*
X96229076Y-79379906D01*
X96188932Y-79521000D01*
X96174655Y-79571179D01*
X96174118Y-79576972D01*
X96174116Y-79576984D01*
X96156306Y-79769194D01*
X96155768Y-79775000D01*
X95834232Y-79775000D01*
X95817837Y-79598072D01*
X95815883Y-79576984D01*
X95815882Y-79576983D01*
X95815345Y-79571179D01*
X95759328Y-79374299D01*
X95668088Y-79191065D01*
X95544732Y-79027715D01*
X95540429Y-79023792D01*
X95540426Y-79023789D01*
X95397764Y-78893736D01*
X95397765Y-78893736D01*
X95393462Y-78889814D01*
X95388512Y-78886749D01*
X95388508Y-78886746D01*
X95224387Y-78785127D01*
X95224386Y-78785126D01*
X95219427Y-78782056D01*
X95195898Y-78772941D01*
X95033989Y-78710216D01*
X95033981Y-78710213D01*
X95028556Y-78708112D01*
X95022839Y-78707043D01*
X95022831Y-78707041D01*
X94833073Y-78671570D01*
X94833069Y-78671569D01*
X94827347Y-78670500D01*
X94622653Y-78670500D01*
X94616931Y-78671569D01*
X94616926Y-78671570D01*
X94427168Y-78707041D01*
X94427157Y-78707043D01*
X94421444Y-78708112D01*
X94416021Y-78710212D01*
X94416010Y-78710216D01*
X94236011Y-78779949D01*
X94236008Y-78779950D01*
X94230573Y-78782056D01*
X94225617Y-78785124D01*
X94225612Y-78785127D01*
X94061491Y-78886746D01*
X94061481Y-78886752D01*
X94056538Y-78889814D01*
X94052239Y-78893732D01*
X94052235Y-78893736D01*
X93909573Y-79023789D01*
X93909565Y-79023797D01*
X93905268Y-79027715D01*
X93901763Y-79032355D01*
X93901755Y-79032365D01*
X93785422Y-79186416D01*
X93785418Y-79186421D01*
X93781912Y-79191065D01*
X93779317Y-79196274D01*
X93779314Y-79196281D01*
X93779184Y-79196543D01*
X93690672Y-79374299D01*
X93689078Y-79379899D01*
X93689076Y-79379906D01*
X93648932Y-79521000D01*
X93634655Y-79571179D01*
X93634118Y-79576972D01*
X93634116Y-79576984D01*
X93616306Y-79769194D01*
X93615768Y-79775000D01*
X93294232Y-79775000D01*
X93277837Y-79598072D01*
X93275883Y-79576984D01*
X93275882Y-79576983D01*
X93275345Y-79571179D01*
X93219328Y-79374299D01*
X93128088Y-79191065D01*
X93004732Y-79027715D01*
X93000429Y-79023792D01*
X93000426Y-79023789D01*
X92857764Y-78893736D01*
X92857765Y-78893736D01*
X92853462Y-78889814D01*
X92848512Y-78886749D01*
X92848508Y-78886746D01*
X92684387Y-78785127D01*
X92684386Y-78785126D01*
X92679427Y-78782056D01*
X92655898Y-78772941D01*
X92493989Y-78710216D01*
X92493981Y-78710213D01*
X92488556Y-78708112D01*
X92482839Y-78707043D01*
X92482831Y-78707041D01*
X92293073Y-78671570D01*
X92293069Y-78671569D01*
X92287347Y-78670500D01*
X92082653Y-78670500D01*
X92076931Y-78671569D01*
X92076926Y-78671570D01*
X91887168Y-78707041D01*
X91887157Y-78707043D01*
X91881444Y-78708112D01*
X91876021Y-78710212D01*
X91876010Y-78710216D01*
X91696011Y-78779949D01*
X91696008Y-78779950D01*
X91690573Y-78782056D01*
X91685617Y-78785124D01*
X91685612Y-78785127D01*
X91521491Y-78886746D01*
X91521481Y-78886752D01*
X91516538Y-78889814D01*
X91512239Y-78893732D01*
X91512235Y-78893736D01*
X91369573Y-79023789D01*
X91369565Y-79023797D01*
X91365268Y-79027715D01*
X91361763Y-79032355D01*
X91361755Y-79032365D01*
X91245422Y-79186416D01*
X91245418Y-79186421D01*
X91241912Y-79191065D01*
X91239317Y-79196274D01*
X91239314Y-79196281D01*
X91239184Y-79196543D01*
X91150672Y-79374299D01*
X91149078Y-79379899D01*
X91149076Y-79379906D01*
X91108932Y-79521000D01*
X91094655Y-79571179D01*
X91094118Y-79576972D01*
X91094116Y-79576984D01*
X91076306Y-79769194D01*
X91075768Y-79775000D01*
X90754232Y-79775000D01*
X90737837Y-79598072D01*
X90735883Y-79576984D01*
X90735882Y-79576983D01*
X90735345Y-79571179D01*
X90679328Y-79374299D01*
X90588088Y-79191065D01*
X90464732Y-79027715D01*
X90460429Y-79023792D01*
X90460426Y-79023789D01*
X90317764Y-78893736D01*
X90317765Y-78893736D01*
X90313462Y-78889814D01*
X90308512Y-78886749D01*
X90308508Y-78886746D01*
X90144387Y-78785127D01*
X90144386Y-78785126D01*
X90139427Y-78782056D01*
X90115898Y-78772941D01*
X89953989Y-78710216D01*
X89953981Y-78710213D01*
X89948556Y-78708112D01*
X89942839Y-78707043D01*
X89942831Y-78707041D01*
X89753073Y-78671570D01*
X89753069Y-78671569D01*
X89747347Y-78670500D01*
X89542653Y-78670500D01*
X89536931Y-78671569D01*
X89536926Y-78671570D01*
X89347168Y-78707041D01*
X89347157Y-78707043D01*
X89341444Y-78708112D01*
X89336021Y-78710212D01*
X89336010Y-78710216D01*
X89156011Y-78779949D01*
X89156008Y-78779950D01*
X89150573Y-78782056D01*
X89145617Y-78785124D01*
X89145612Y-78785127D01*
X88981491Y-78886746D01*
X88981481Y-78886752D01*
X88976538Y-78889814D01*
X88972239Y-78893732D01*
X88972235Y-78893736D01*
X88829573Y-79023789D01*
X88829565Y-79023797D01*
X88825268Y-79027715D01*
X88821763Y-79032355D01*
X88821755Y-79032365D01*
X88705422Y-79186416D01*
X88705418Y-79186421D01*
X88701912Y-79191065D01*
X88699317Y-79196274D01*
X88699314Y-79196281D01*
X88699184Y-79196543D01*
X88610672Y-79374299D01*
X88609078Y-79379899D01*
X88609076Y-79379906D01*
X88568932Y-79521000D01*
X88554655Y-79571179D01*
X88554118Y-79576972D01*
X88554116Y-79576984D01*
X88536306Y-79769194D01*
X88535768Y-79775000D01*
X88214232Y-79775000D01*
X88197837Y-79598072D01*
X88195883Y-79576984D01*
X88195882Y-79576983D01*
X88195345Y-79571179D01*
X88139328Y-79374299D01*
X88048088Y-79191065D01*
X87924732Y-79027715D01*
X87920429Y-79023792D01*
X87920426Y-79023789D01*
X87777764Y-78893736D01*
X87777765Y-78893736D01*
X87773462Y-78889814D01*
X87768512Y-78886749D01*
X87768508Y-78886746D01*
X87604387Y-78785127D01*
X87604386Y-78785126D01*
X87599427Y-78782056D01*
X87575898Y-78772941D01*
X87413989Y-78710216D01*
X87413981Y-78710213D01*
X87408556Y-78708112D01*
X87402839Y-78707043D01*
X87402831Y-78707041D01*
X87213073Y-78671570D01*
X87213069Y-78671569D01*
X87207347Y-78670500D01*
X87002653Y-78670500D01*
X86996931Y-78671569D01*
X86996926Y-78671570D01*
X86807168Y-78707041D01*
X86807157Y-78707043D01*
X86801444Y-78708112D01*
X86796021Y-78710212D01*
X86796010Y-78710216D01*
X86616011Y-78779949D01*
X86616008Y-78779950D01*
X86610573Y-78782056D01*
X86605617Y-78785124D01*
X86605612Y-78785127D01*
X86441491Y-78886746D01*
X86441481Y-78886752D01*
X86436538Y-78889814D01*
X86432239Y-78893732D01*
X86432235Y-78893736D01*
X86289573Y-79023789D01*
X86289565Y-79023797D01*
X86285268Y-79027715D01*
X86281763Y-79032355D01*
X86281755Y-79032365D01*
X86165422Y-79186416D01*
X86165418Y-79186421D01*
X86161912Y-79191065D01*
X86159317Y-79196274D01*
X86159314Y-79196281D01*
X86159184Y-79196543D01*
X86070672Y-79374299D01*
X86069078Y-79379899D01*
X86069076Y-79379906D01*
X86028932Y-79521000D01*
X86014655Y-79571179D01*
X86014118Y-79576972D01*
X86014116Y-79576984D01*
X85996306Y-79769194D01*
X85995768Y-79775000D01*
X85996306Y-79780806D01*
X86014116Y-79973015D01*
X86014117Y-79973025D01*
X86014655Y-79978821D01*
X86016249Y-79984426D01*
X86016250Y-79984427D01*
X86069026Y-80169918D01*
X86070672Y-80175701D01*
X86161912Y-80358935D01*
X86165421Y-80363582D01*
X86165422Y-80363583D01*
X86281755Y-80517634D01*
X86281759Y-80517638D01*
X86285268Y-80522285D01*
X86289570Y-80526207D01*
X86289573Y-80526210D01*
X86377466Y-80606335D01*
X86436538Y-80660186D01*
X86441489Y-80663251D01*
X86441491Y-80663253D01*
X86515992Y-80709382D01*
X86610573Y-80767944D01*
X86801444Y-80841888D01*
X87002653Y-80879500D01*
X87201519Y-80879500D01*
X87207347Y-80879500D01*
X87408556Y-80841888D01*
X87520842Y-80798387D01*
X87568290Y-80789895D01*
X87615463Y-80799846D01*
X87655446Y-80826785D01*
X88151195Y-81322534D01*
X88178509Y-81363411D01*
X88188100Y-81411629D01*
X88188100Y-81540538D01*
X88172738Y-81600830D01*
X88130399Y-81646421D01*
X88071405Y-81666194D01*
X88010143Y-81655327D01*
X87961550Y-81616470D01*
X87928244Y-81572365D01*
X87928241Y-81572361D01*
X87924732Y-81567715D01*
X87920429Y-81563792D01*
X87920426Y-81563789D01*
X87784079Y-81439493D01*
X87773462Y-81429814D01*
X87768512Y-81426749D01*
X87768508Y-81426746D01*
X87604387Y-81325127D01*
X87604386Y-81325126D01*
X87599427Y-81322056D01*
X87573459Y-81311996D01*
X87413989Y-81250216D01*
X87413981Y-81250213D01*
X87408556Y-81248112D01*
X87402839Y-81247043D01*
X87402831Y-81247041D01*
X87213073Y-81211570D01*
X87213069Y-81211569D01*
X87207347Y-81210500D01*
X87002653Y-81210500D01*
X86996931Y-81211569D01*
X86996926Y-81211570D01*
X86807168Y-81247041D01*
X86807157Y-81247043D01*
X86801444Y-81248112D01*
X86796021Y-81250212D01*
X86796010Y-81250216D01*
X86616011Y-81319949D01*
X86616008Y-81319950D01*
X86610573Y-81322056D01*
X86605617Y-81325124D01*
X86605612Y-81325127D01*
X86441491Y-81426746D01*
X86441481Y-81426752D01*
X86436538Y-81429814D01*
X86432239Y-81433732D01*
X86432235Y-81433736D01*
X86289573Y-81563789D01*
X86289565Y-81563797D01*
X86285268Y-81567715D01*
X86281763Y-81572355D01*
X86281755Y-81572365D01*
X86248450Y-81616470D01*
X86199857Y-81655327D01*
X86138595Y-81666194D01*
X86079601Y-81646421D01*
X86037262Y-81600830D01*
X86021900Y-81540538D01*
X86021900Y-80927234D01*
X86024276Y-80904319D01*
X86024352Y-80902471D01*
X86026495Y-80892253D01*
X86022749Y-80862200D01*
X86022217Y-80857072D01*
X86021900Y-80853248D01*
X86021900Y-80848023D01*
X86018703Y-80828865D01*
X86017951Y-80823709D01*
X86013152Y-80785208D01*
X86011861Y-80774849D01*
X86008564Y-80768105D01*
X86007329Y-80760702D01*
X86002358Y-80751517D01*
X86002357Y-80751513D01*
X85983892Y-80717393D01*
X85981508Y-80712762D01*
X85964486Y-80677943D01*
X85959899Y-80668560D01*
X85954591Y-80663252D01*
X85951019Y-80656651D01*
X85914803Y-80623312D01*
X85911045Y-80619706D01*
X85619457Y-80328118D01*
X85591058Y-80284534D01*
X85582687Y-80233192D01*
X85594837Y-80186427D01*
X85594627Y-80186346D01*
X85595331Y-80184527D01*
X85595766Y-80182853D01*
X85599328Y-80175701D01*
X85655345Y-79978821D01*
X85674232Y-79775000D01*
X85657837Y-79598072D01*
X85655883Y-79576984D01*
X85655882Y-79576983D01*
X85655345Y-79571179D01*
X85599328Y-79374299D01*
X85508088Y-79191065D01*
X85384732Y-79027715D01*
X85380429Y-79023792D01*
X85380426Y-79023789D01*
X85237764Y-78893736D01*
X85237765Y-78893736D01*
X85233462Y-78889814D01*
X85228512Y-78886749D01*
X85228508Y-78886746D01*
X85064387Y-78785127D01*
X85064386Y-78785126D01*
X85059427Y-78782056D01*
X85035898Y-78772941D01*
X84873989Y-78710216D01*
X84873981Y-78710213D01*
X84868556Y-78708112D01*
X84862839Y-78707043D01*
X84862831Y-78707041D01*
X84673073Y-78671570D01*
X84673069Y-78671569D01*
X84667347Y-78670500D01*
X84462653Y-78670500D01*
X84456931Y-78671569D01*
X84456926Y-78671570D01*
X84267168Y-78707041D01*
X84267157Y-78707043D01*
X84261444Y-78708112D01*
X84256021Y-78710212D01*
X84256010Y-78710216D01*
X84076011Y-78779949D01*
X84076008Y-78779950D01*
X84070573Y-78782056D01*
X84065617Y-78785124D01*
X84065612Y-78785127D01*
X83901491Y-78886746D01*
X83901481Y-78886752D01*
X83896538Y-78889814D01*
X83892239Y-78893732D01*
X83892235Y-78893736D01*
X83749573Y-79023789D01*
X83749565Y-79023797D01*
X83745268Y-79027715D01*
X83741763Y-79032355D01*
X83741755Y-79032365D01*
X83625422Y-79186416D01*
X83625418Y-79186421D01*
X83621912Y-79191065D01*
X83619317Y-79196274D01*
X83619314Y-79196281D01*
X83619184Y-79196543D01*
X83530672Y-79374299D01*
X83529078Y-79379899D01*
X83529076Y-79379906D01*
X83488932Y-79521000D01*
X83474655Y-79571179D01*
X83474118Y-79576972D01*
X83474116Y-79576984D01*
X83456306Y-79769194D01*
X83455768Y-79775000D01*
X83456306Y-79780806D01*
X83474116Y-79973015D01*
X83474117Y-79973025D01*
X83474655Y-79978821D01*
X83476249Y-79984426D01*
X83476250Y-79984427D01*
X83529026Y-80169918D01*
X83530672Y-80175701D01*
X83621912Y-80358935D01*
X83625421Y-80363582D01*
X83625422Y-80363583D01*
X83741755Y-80517634D01*
X83741759Y-80517638D01*
X83745268Y-80522285D01*
X83749570Y-80526207D01*
X83749573Y-80526210D01*
X83837466Y-80606335D01*
X83896538Y-80660186D01*
X83901489Y-80663251D01*
X83901491Y-80663253D01*
X83975992Y-80709382D01*
X84070573Y-80767944D01*
X84261444Y-80841888D01*
X84462653Y-80879500D01*
X84661519Y-80879500D01*
X84667347Y-80879500D01*
X84868556Y-80841888D01*
X84980842Y-80798387D01*
X85028290Y-80789895D01*
X85075463Y-80799846D01*
X85115446Y-80826785D01*
X85275995Y-80987334D01*
X85303309Y-81028211D01*
X85312900Y-81076429D01*
X85312900Y-81252787D01*
X85295531Y-81316625D01*
X85248212Y-81362863D01*
X85183990Y-81378753D01*
X85120570Y-81359914D01*
X85064387Y-81325127D01*
X85064386Y-81325126D01*
X85059427Y-81322056D01*
X85033459Y-81311996D01*
X84873989Y-81250216D01*
X84873981Y-81250213D01*
X84868556Y-81248112D01*
X84862839Y-81247043D01*
X84862831Y-81247041D01*
X84673073Y-81211570D01*
X84673069Y-81211569D01*
X84667347Y-81210500D01*
X84462653Y-81210500D01*
X84456931Y-81211569D01*
X84456926Y-81211570D01*
X84267168Y-81247041D01*
X84267157Y-81247043D01*
X84261444Y-81248112D01*
X84256021Y-81250212D01*
X84256010Y-81250216D01*
X84076011Y-81319949D01*
X84076008Y-81319950D01*
X84070573Y-81322056D01*
X84065617Y-81325124D01*
X84065612Y-81325127D01*
X83901491Y-81426746D01*
X83901481Y-81426752D01*
X83896538Y-81429814D01*
X83892239Y-81433732D01*
X83892235Y-81433736D01*
X83749573Y-81563789D01*
X83749565Y-81563797D01*
X83745268Y-81567715D01*
X83741763Y-81572355D01*
X83741755Y-81572365D01*
X83625422Y-81726416D01*
X83625418Y-81726421D01*
X83621912Y-81731065D01*
X83619317Y-81736274D01*
X83619314Y-81736281D01*
X83533271Y-81909079D01*
X83530672Y-81914299D01*
X83529078Y-81919899D01*
X83529076Y-81919906D01*
X83481900Y-82085715D01*
X83474655Y-82111179D01*
X83474118Y-82116972D01*
X83474116Y-82116984D01*
X83463838Y-82227908D01*
X83455768Y-82315000D01*
X83456306Y-82320806D01*
X83474116Y-82513015D01*
X83474117Y-82513025D01*
X83474655Y-82518821D01*
X83530672Y-82715701D01*
X83621912Y-82898935D01*
X83625421Y-82903582D01*
X83625422Y-82903583D01*
X83741755Y-83057634D01*
X83741759Y-83057638D01*
X83745268Y-83062285D01*
X83749570Y-83066207D01*
X83749573Y-83066210D01*
X83817100Y-83127769D01*
X83896538Y-83200186D01*
X83901489Y-83203251D01*
X83901491Y-83203253D01*
X84065613Y-83304873D01*
X84070573Y-83307944D01*
X84130017Y-83330972D01*
X84172213Y-83358007D01*
X84200534Y-83399351D01*
X84210500Y-83448464D01*
X84210500Y-99746871D01*
X84200909Y-99795089D01*
X84173597Y-99835963D01*
X83338266Y-100671294D01*
X83064432Y-100945128D01*
X83012987Y-100976275D01*
X82952965Y-100980030D01*
X82898039Y-100955536D01*
X82860723Y-100908374D01*
X82858054Y-100902530D01*
X82823176Y-100826157D01*
X82727421Y-100715650D01*
X82719841Y-100710778D01*
X82719838Y-100710776D01*
X82707657Y-100702948D01*
X82665190Y-100657336D01*
X82649777Y-100596950D01*
X82665190Y-100536564D01*
X82707657Y-100490952D01*
X82719838Y-100483123D01*
X82727421Y-100478250D01*
X82823176Y-100367743D01*
X82883919Y-100234734D01*
X82904729Y-100090000D01*
X82883919Y-99945266D01*
X82823176Y-99812257D01*
X82727421Y-99701750D01*
X82604411Y-99622696D01*
X82594950Y-99619918D01*
X82472755Y-99584038D01*
X82472754Y-99584037D01*
X82464111Y-99581500D01*
X82317889Y-99581500D01*
X82309246Y-99584037D01*
X82309244Y-99584038D01*
X82186235Y-99620157D01*
X82186233Y-99620157D01*
X82177589Y-99622696D01*
X82170011Y-99627566D01*
X82170009Y-99627567D01*
X82062159Y-99696878D01*
X82062156Y-99696880D01*
X82054579Y-99701750D01*
X82050834Y-99706071D01*
X82014625Y-99727556D01*
X81970592Y-99735500D01*
X81464771Y-99735500D01*
X81416553Y-99725909D01*
X81375676Y-99698595D01*
X80829705Y-99152624D01*
X80797904Y-99099027D01*
X80795680Y-99036745D01*
X80823574Y-98981018D01*
X80918176Y-98871843D01*
X80978919Y-98738834D01*
X80999729Y-98594100D01*
X80978919Y-98449366D01*
X80918176Y-98316357D01*
X80822421Y-98205850D01*
X80699411Y-98126796D01*
X80640721Y-98109563D01*
X80567755Y-98088138D01*
X80567754Y-98088137D01*
X80559111Y-98085600D01*
X80550102Y-98085600D01*
X80531029Y-98085600D01*
X80482811Y-98076009D01*
X80441934Y-98048695D01*
X77336405Y-94943166D01*
X77309091Y-94902289D01*
X77299500Y-94854071D01*
X77299500Y-83448464D01*
X77309466Y-83399351D01*
X77337787Y-83358007D01*
X77379982Y-83330972D01*
X77439427Y-83307944D01*
X77613462Y-83200186D01*
X77764732Y-83062285D01*
X77801550Y-83013529D01*
X77850143Y-82974673D01*
X77911405Y-82963806D01*
X77970399Y-82983579D01*
X78012738Y-83029170D01*
X78028100Y-83089462D01*
X78028100Y-93620032D01*
X78025723Y-93642946D01*
X78025646Y-93644800D01*
X78023505Y-93655013D01*
X78024796Y-93665370D01*
X78024796Y-93665372D01*
X78027244Y-93685013D01*
X78027780Y-93690184D01*
X78028100Y-93694046D01*
X78028100Y-93699243D01*
X78028955Y-93704370D01*
X78028956Y-93704377D01*
X78031301Y-93718432D01*
X78032050Y-93723575D01*
X78036848Y-93762062D01*
X78038139Y-93772417D01*
X78041435Y-93779160D01*
X78042671Y-93786564D01*
X78062171Y-93822597D01*
X78066097Y-93829852D01*
X78068480Y-93834481D01*
X78090101Y-93878706D01*
X78095408Y-93884013D01*
X78098981Y-93890615D01*
X78106661Y-93897685D01*
X78106662Y-93897686D01*
X78135208Y-93923964D01*
X78138966Y-93927571D01*
X81589347Y-97377951D01*
X81612924Y-97410646D01*
X81624969Y-97449114D01*
X81640608Y-97557887D01*
X81640609Y-97557892D01*
X81641892Y-97566811D01*
X81645633Y-97575003D01*
X81645635Y-97575009D01*
X81696763Y-97686962D01*
X81702635Y-97699820D01*
X81798390Y-97810327D01*
X81921400Y-97889381D01*
X82061700Y-97930577D01*
X82198913Y-97930577D01*
X82207922Y-97930577D01*
X82348222Y-97889381D01*
X82471232Y-97810327D01*
X82566987Y-97699820D01*
X82627730Y-97566811D01*
X82648540Y-97422077D01*
X82627730Y-97277343D01*
X82596406Y-97208754D01*
X82585163Y-97162406D01*
X82591951Y-97115199D01*
X82615793Y-97073903D01*
X82641578Y-97044147D01*
X82702321Y-96911138D01*
X82723131Y-96766404D01*
X82716932Y-96723291D01*
X82722097Y-96665571D01*
X82752554Y-96616265D01*
X82801860Y-96585808D01*
X82859584Y-96580644D01*
X82868037Y-96581859D01*
X82876689Y-96584400D01*
X83013902Y-96584400D01*
X83022911Y-96584400D01*
X83163211Y-96543204D01*
X83286221Y-96464150D01*
X83381976Y-96353643D01*
X83442719Y-96220634D01*
X83463529Y-96075900D01*
X83442719Y-95931166D01*
X83381976Y-95798157D01*
X83286221Y-95687650D01*
X83163211Y-95608596D01*
X83022911Y-95567400D01*
X83013902Y-95567400D01*
X82994829Y-95567400D01*
X82946611Y-95557809D01*
X82905734Y-95530495D01*
X82416405Y-95041166D01*
X82389091Y-95000289D01*
X82379500Y-94952071D01*
X82379500Y-83448464D01*
X82389466Y-83399351D01*
X82417787Y-83358007D01*
X82459982Y-83330972D01*
X82519427Y-83307944D01*
X82693462Y-83200186D01*
X82844732Y-83062285D01*
X82968088Y-82898935D01*
X83059328Y-82715701D01*
X83115345Y-82518821D01*
X83134232Y-82315000D01*
X83115345Y-82111179D01*
X83059328Y-81914299D01*
X82968088Y-81731065D01*
X82919100Y-81666194D01*
X82848244Y-81572365D01*
X82848241Y-81572361D01*
X82844732Y-81567715D01*
X82840429Y-81563792D01*
X82840426Y-81563789D01*
X82704079Y-81439493D01*
X82693462Y-81429814D01*
X82688512Y-81426749D01*
X82688508Y-81426746D01*
X82524387Y-81325127D01*
X82524386Y-81325126D01*
X82519427Y-81322056D01*
X82493459Y-81311996D01*
X82333989Y-81250216D01*
X82333981Y-81250213D01*
X82328556Y-81248112D01*
X82322839Y-81247043D01*
X82322831Y-81247041D01*
X82133073Y-81211570D01*
X82133069Y-81211569D01*
X82127347Y-81210500D01*
X81922653Y-81210500D01*
X81916931Y-81211569D01*
X81916926Y-81211570D01*
X81727168Y-81247041D01*
X81727157Y-81247043D01*
X81721444Y-81248112D01*
X81716021Y-81250212D01*
X81716010Y-81250216D01*
X81536011Y-81319949D01*
X81536008Y-81319950D01*
X81530573Y-81322056D01*
X81525613Y-81325126D01*
X81525615Y-81325126D01*
X81471414Y-81358685D01*
X81406692Y-81377547D01*
X81341510Y-81360342D01*
X81294527Y-81311996D01*
X81279193Y-81246349D01*
X81279551Y-81237673D01*
X81281695Y-81227452D01*
X81277955Y-81197456D01*
X81277419Y-81192279D01*
X81277100Y-81188431D01*
X81277100Y-81183223D01*
X81273890Y-81163993D01*
X81273153Y-81158936D01*
X81267060Y-81110049D01*
X81263764Y-81103308D01*
X81262529Y-81095902D01*
X81251990Y-81076429D01*
X81239092Y-81052596D01*
X81236707Y-81047962D01*
X81230124Y-81034496D01*
X81215099Y-81003760D01*
X81209791Y-80998452D01*
X81206219Y-80991851D01*
X81170003Y-80958512D01*
X81166245Y-80954906D01*
X80539457Y-80328118D01*
X80511058Y-80284534D01*
X80502687Y-80233192D01*
X80514837Y-80186427D01*
X80514627Y-80186346D01*
X80515331Y-80184527D01*
X80515766Y-80182853D01*
X80519328Y-80175701D01*
X80575345Y-79978821D01*
X80594232Y-79775000D01*
X80915768Y-79775000D01*
X80916306Y-79780806D01*
X80934116Y-79973015D01*
X80934117Y-79973025D01*
X80934655Y-79978821D01*
X80936249Y-79984426D01*
X80936250Y-79984427D01*
X80989026Y-80169918D01*
X80990672Y-80175701D01*
X81081912Y-80358935D01*
X81085421Y-80363582D01*
X81085422Y-80363583D01*
X81201755Y-80517634D01*
X81201759Y-80517638D01*
X81205268Y-80522285D01*
X81209570Y-80526207D01*
X81209573Y-80526210D01*
X81297466Y-80606335D01*
X81356538Y-80660186D01*
X81361489Y-80663251D01*
X81361491Y-80663253D01*
X81435992Y-80709382D01*
X81530573Y-80767944D01*
X81721444Y-80841888D01*
X81922653Y-80879500D01*
X82121519Y-80879500D01*
X82127347Y-80879500D01*
X82328556Y-80841888D01*
X82519427Y-80767944D01*
X82693462Y-80660186D01*
X82844732Y-80522285D01*
X82968088Y-80358935D01*
X83059328Y-80175701D01*
X83115345Y-79978821D01*
X83134232Y-79775000D01*
X83117837Y-79598072D01*
X83115883Y-79576984D01*
X83115882Y-79576983D01*
X83115345Y-79571179D01*
X83059328Y-79374299D01*
X82968088Y-79191065D01*
X82844732Y-79027715D01*
X82840429Y-79023792D01*
X82840426Y-79023789D01*
X82697764Y-78893736D01*
X82697765Y-78893736D01*
X82693462Y-78889814D01*
X82688512Y-78886749D01*
X82688508Y-78886746D01*
X82524387Y-78785127D01*
X82524386Y-78785126D01*
X82519427Y-78782056D01*
X82495898Y-78772941D01*
X82333989Y-78710216D01*
X82333981Y-78710213D01*
X82328556Y-78708112D01*
X82322839Y-78707043D01*
X82322831Y-78707041D01*
X82133073Y-78671570D01*
X82133069Y-78671569D01*
X82127347Y-78670500D01*
X81922653Y-78670500D01*
X81916931Y-78671569D01*
X81916926Y-78671570D01*
X81727168Y-78707041D01*
X81727157Y-78707043D01*
X81721444Y-78708112D01*
X81716021Y-78710212D01*
X81716010Y-78710216D01*
X81536011Y-78779949D01*
X81536008Y-78779950D01*
X81530573Y-78782056D01*
X81525617Y-78785124D01*
X81525612Y-78785127D01*
X81361491Y-78886746D01*
X81361481Y-78886752D01*
X81356538Y-78889814D01*
X81352239Y-78893732D01*
X81352235Y-78893736D01*
X81209573Y-79023789D01*
X81209565Y-79023797D01*
X81205268Y-79027715D01*
X81201763Y-79032355D01*
X81201755Y-79032365D01*
X81085422Y-79186416D01*
X81085418Y-79186421D01*
X81081912Y-79191065D01*
X81079317Y-79196274D01*
X81079314Y-79196281D01*
X81079184Y-79196543D01*
X80990672Y-79374299D01*
X80989078Y-79379899D01*
X80989076Y-79379906D01*
X80948932Y-79521000D01*
X80934655Y-79571179D01*
X80934118Y-79576972D01*
X80934116Y-79576984D01*
X80916306Y-79769194D01*
X80915768Y-79775000D01*
X80594232Y-79775000D01*
X80577837Y-79598072D01*
X80575883Y-79576984D01*
X80575882Y-79576983D01*
X80575345Y-79571179D01*
X80519328Y-79374299D01*
X80428088Y-79191065D01*
X80304732Y-79027715D01*
X80300429Y-79023792D01*
X80300426Y-79023789D01*
X80157764Y-78893736D01*
X80157765Y-78893736D01*
X80153462Y-78889814D01*
X80148512Y-78886749D01*
X80148508Y-78886746D01*
X79984387Y-78785127D01*
X79984386Y-78785126D01*
X79979427Y-78782056D01*
X79955898Y-78772941D01*
X79793989Y-78710216D01*
X79793981Y-78710213D01*
X79788556Y-78708112D01*
X79782839Y-78707043D01*
X79782831Y-78707041D01*
X79593073Y-78671570D01*
X79593069Y-78671569D01*
X79587347Y-78670500D01*
X79382653Y-78670500D01*
X79376931Y-78671569D01*
X79376926Y-78671570D01*
X79187168Y-78707041D01*
X79187157Y-78707043D01*
X79181444Y-78708112D01*
X79176021Y-78710212D01*
X79176010Y-78710216D01*
X78996011Y-78779949D01*
X78996008Y-78779950D01*
X78990573Y-78782056D01*
X78985617Y-78785124D01*
X78985612Y-78785127D01*
X78821491Y-78886746D01*
X78821481Y-78886752D01*
X78816538Y-78889814D01*
X78812239Y-78893732D01*
X78812235Y-78893736D01*
X78669573Y-79023789D01*
X78669565Y-79023797D01*
X78665268Y-79027715D01*
X78661763Y-79032355D01*
X78661755Y-79032365D01*
X78545422Y-79186416D01*
X78545418Y-79186421D01*
X78541912Y-79191065D01*
X78539317Y-79196274D01*
X78539314Y-79196281D01*
X78539184Y-79196543D01*
X78450672Y-79374299D01*
X78449078Y-79379899D01*
X78449076Y-79379906D01*
X78408932Y-79521000D01*
X78394655Y-79571179D01*
X78394118Y-79576972D01*
X78394116Y-79576984D01*
X78376306Y-79769194D01*
X78375768Y-79775000D01*
X78376306Y-79780806D01*
X78394116Y-79973015D01*
X78394117Y-79973025D01*
X78394655Y-79978821D01*
X78396249Y-79984426D01*
X78396250Y-79984427D01*
X78449026Y-80169918D01*
X78450672Y-80175701D01*
X78541912Y-80358935D01*
X78545421Y-80363582D01*
X78545422Y-80363583D01*
X78661755Y-80517634D01*
X78661759Y-80517638D01*
X78665268Y-80522285D01*
X78669570Y-80526207D01*
X78669573Y-80526210D01*
X78757466Y-80606335D01*
X78816538Y-80660186D01*
X78821489Y-80663251D01*
X78821491Y-80663253D01*
X78895992Y-80709382D01*
X78990573Y-80767944D01*
X79181444Y-80841888D01*
X79382653Y-80879500D01*
X79581519Y-80879500D01*
X79587347Y-80879500D01*
X79788556Y-80841888D01*
X79900842Y-80798387D01*
X79948290Y-80789895D01*
X79995463Y-80799846D01*
X80035446Y-80826785D01*
X80531195Y-81322534D01*
X80558509Y-81363411D01*
X80568100Y-81411629D01*
X80568100Y-81540538D01*
X80552738Y-81600830D01*
X80510399Y-81646421D01*
X80451405Y-81666194D01*
X80390143Y-81655327D01*
X80341550Y-81616470D01*
X80308244Y-81572365D01*
X80308241Y-81572361D01*
X80304732Y-81567715D01*
X80300429Y-81563792D01*
X80300426Y-81563789D01*
X80164079Y-81439493D01*
X80153462Y-81429814D01*
X80148512Y-81426749D01*
X80148508Y-81426746D01*
X79984387Y-81325127D01*
X79984386Y-81325126D01*
X79979427Y-81322056D01*
X79953459Y-81311996D01*
X79793989Y-81250216D01*
X79793981Y-81250213D01*
X79788556Y-81248112D01*
X79782839Y-81247043D01*
X79782831Y-81247041D01*
X79593073Y-81211570D01*
X79593069Y-81211569D01*
X79587347Y-81210500D01*
X79382653Y-81210500D01*
X79376931Y-81211569D01*
X79376926Y-81211570D01*
X79187168Y-81247041D01*
X79187157Y-81247043D01*
X79181444Y-81248112D01*
X79176021Y-81250212D01*
X79176010Y-81250216D01*
X78996011Y-81319949D01*
X78996008Y-81319950D01*
X78990573Y-81322056D01*
X78985613Y-81325126D01*
X78985615Y-81325126D01*
X78931414Y-81358685D01*
X78866692Y-81377547D01*
X78801510Y-81360342D01*
X78754527Y-81311996D01*
X78739193Y-81246349D01*
X78739551Y-81237673D01*
X78741695Y-81227452D01*
X78737955Y-81197456D01*
X78737419Y-81192279D01*
X78737100Y-81188431D01*
X78737100Y-81183223D01*
X78733890Y-81163993D01*
X78733153Y-81158936D01*
X78727060Y-81110049D01*
X78723764Y-81103308D01*
X78722529Y-81095902D01*
X78711990Y-81076429D01*
X78699092Y-81052596D01*
X78696707Y-81047962D01*
X78690124Y-81034496D01*
X78675099Y-81003760D01*
X78669791Y-80998452D01*
X78666219Y-80991851D01*
X78630003Y-80958512D01*
X78626245Y-80954906D01*
X77999457Y-80328118D01*
X77971058Y-80284534D01*
X77962687Y-80233192D01*
X77974837Y-80186427D01*
X77974627Y-80186346D01*
X77975331Y-80184527D01*
X77975766Y-80182853D01*
X77979328Y-80175701D01*
X78035345Y-79978821D01*
X78054232Y-79775000D01*
X78037837Y-79598072D01*
X78035883Y-79576984D01*
X78035882Y-79576983D01*
X78035345Y-79571179D01*
X77979328Y-79374299D01*
X77888088Y-79191065D01*
X77764732Y-79027715D01*
X77760429Y-79023792D01*
X77760426Y-79023789D01*
X77617764Y-78893736D01*
X77617765Y-78893736D01*
X77613462Y-78889814D01*
X77608512Y-78886749D01*
X77608508Y-78886746D01*
X77444387Y-78785127D01*
X77444386Y-78785126D01*
X77439427Y-78782056D01*
X77415898Y-78772941D01*
X77253989Y-78710216D01*
X77253981Y-78710213D01*
X77248556Y-78708112D01*
X77242839Y-78707043D01*
X77242831Y-78707041D01*
X77053073Y-78671570D01*
X77053069Y-78671569D01*
X77047347Y-78670500D01*
X76842653Y-78670500D01*
X76836931Y-78671569D01*
X76836926Y-78671570D01*
X76647168Y-78707041D01*
X76647157Y-78707043D01*
X76641444Y-78708112D01*
X76636021Y-78710212D01*
X76636010Y-78710216D01*
X76456011Y-78779949D01*
X76456008Y-78779950D01*
X76450573Y-78782056D01*
X76445617Y-78785124D01*
X76445612Y-78785127D01*
X76281491Y-78886746D01*
X76281481Y-78886752D01*
X76276538Y-78889814D01*
X76272239Y-78893732D01*
X76272235Y-78893736D01*
X76129573Y-79023789D01*
X76129565Y-79023797D01*
X76125268Y-79027715D01*
X76121763Y-79032355D01*
X76121755Y-79032365D01*
X76005422Y-79186416D01*
X76005418Y-79186421D01*
X76001912Y-79191065D01*
X75999317Y-79196274D01*
X75999314Y-79196281D01*
X75999184Y-79196543D01*
X75910672Y-79374299D01*
X75909078Y-79379899D01*
X75909076Y-79379906D01*
X75868932Y-79521000D01*
X75854655Y-79571179D01*
X75854118Y-79576972D01*
X75854116Y-79576984D01*
X75836306Y-79769194D01*
X75835768Y-79775000D01*
X75836306Y-79780806D01*
X75854116Y-79973015D01*
X75854117Y-79973025D01*
X75854655Y-79978821D01*
X75856249Y-79984426D01*
X75856250Y-79984427D01*
X75909026Y-80169918D01*
X75910672Y-80175701D01*
X76001912Y-80358935D01*
X76005421Y-80363582D01*
X76005422Y-80363583D01*
X76121755Y-80517634D01*
X76121759Y-80517638D01*
X76125268Y-80522285D01*
X76129570Y-80526207D01*
X76129573Y-80526210D01*
X76217466Y-80606335D01*
X76276538Y-80660186D01*
X76281489Y-80663251D01*
X76281491Y-80663253D01*
X76355992Y-80709382D01*
X76450573Y-80767944D01*
X76641444Y-80841888D01*
X76842653Y-80879500D01*
X77041519Y-80879500D01*
X77047347Y-80879500D01*
X77248556Y-80841888D01*
X77360842Y-80798387D01*
X77408290Y-80789895D01*
X77455463Y-80799846D01*
X77495446Y-80826785D01*
X77991195Y-81322534D01*
X78018509Y-81363411D01*
X78028100Y-81411629D01*
X78028100Y-81540538D01*
X78012738Y-81600830D01*
X77970399Y-81646421D01*
X77911405Y-81666194D01*
X77850143Y-81655327D01*
X77801550Y-81616470D01*
X77768244Y-81572365D01*
X77768241Y-81572361D01*
X77764732Y-81567715D01*
X77760429Y-81563792D01*
X77760426Y-81563789D01*
X77624079Y-81439493D01*
X77613462Y-81429814D01*
X77608512Y-81426749D01*
X77608508Y-81426746D01*
X77444387Y-81325127D01*
X77444386Y-81325126D01*
X77439427Y-81322056D01*
X77413459Y-81311996D01*
X77253989Y-81250216D01*
X77253981Y-81250213D01*
X77248556Y-81248112D01*
X77242839Y-81247043D01*
X77242831Y-81247041D01*
X77053073Y-81211570D01*
X77053069Y-81211569D01*
X77047347Y-81210500D01*
X76842653Y-81210500D01*
X76836931Y-81211569D01*
X76836926Y-81211570D01*
X76647168Y-81247041D01*
X76647157Y-81247043D01*
X76641444Y-81248112D01*
X76636021Y-81250212D01*
X76636010Y-81250216D01*
X76456011Y-81319949D01*
X76456008Y-81319950D01*
X76450573Y-81322056D01*
X76445617Y-81325124D01*
X76445612Y-81325127D01*
X76281491Y-81426746D01*
X76281481Y-81426752D01*
X76276538Y-81429814D01*
X76272236Y-81433735D01*
X76272229Y-81433741D01*
X76225385Y-81476445D01*
X76174981Y-81504520D01*
X76117347Y-81507185D01*
X76064568Y-81483880D01*
X76027709Y-81439493D01*
X76014500Y-81383330D01*
X76014500Y-81079834D01*
X76016876Y-81056919D01*
X76016952Y-81055071D01*
X76019095Y-81044853D01*
X76015349Y-81014800D01*
X76014817Y-81009672D01*
X76014500Y-81005848D01*
X76014500Y-81000623D01*
X76011303Y-80981465D01*
X76010551Y-80976309D01*
X76005752Y-80937808D01*
X76004461Y-80927449D01*
X76001164Y-80920705D01*
X75999929Y-80913302D01*
X75994958Y-80904117D01*
X75994957Y-80904113D01*
X75976492Y-80869993D01*
X75974108Y-80865362D01*
X75969232Y-80855389D01*
X75952499Y-80821160D01*
X75947191Y-80815852D01*
X75943619Y-80809251D01*
X75907403Y-80775912D01*
X75903645Y-80772306D01*
X75459457Y-80328118D01*
X75431058Y-80284534D01*
X75422687Y-80233192D01*
X75434837Y-80186427D01*
X75434627Y-80186346D01*
X75435331Y-80184527D01*
X75435766Y-80182853D01*
X75439328Y-80175701D01*
X75495345Y-79978821D01*
X75514232Y-79775000D01*
X75497837Y-79598072D01*
X75495883Y-79576984D01*
X75495882Y-79576983D01*
X75495345Y-79571179D01*
X75439328Y-79374299D01*
X75348088Y-79191065D01*
X75224732Y-79027715D01*
X75220429Y-79023792D01*
X75220426Y-79023789D01*
X75077764Y-78893736D01*
X75077765Y-78893736D01*
X75073462Y-78889814D01*
X75068512Y-78886749D01*
X75068508Y-78886746D01*
X74904387Y-78785127D01*
X74904386Y-78785126D01*
X74899427Y-78782056D01*
X74875898Y-78772941D01*
X74713989Y-78710216D01*
X74713981Y-78710213D01*
X74708556Y-78708112D01*
X74702839Y-78707043D01*
X74702831Y-78707041D01*
X74513073Y-78671570D01*
X74513069Y-78671569D01*
X74507347Y-78670500D01*
X74302653Y-78670500D01*
X74296931Y-78671569D01*
X74296926Y-78671570D01*
X74107168Y-78707041D01*
X74107157Y-78707043D01*
X74101444Y-78708112D01*
X74096021Y-78710212D01*
X74096010Y-78710216D01*
X73916011Y-78779949D01*
X73916008Y-78779950D01*
X73910573Y-78782056D01*
X73905617Y-78785124D01*
X73905612Y-78785127D01*
X73741491Y-78886746D01*
X73741481Y-78886752D01*
X73736538Y-78889814D01*
X73732239Y-78893732D01*
X73732235Y-78893736D01*
X73589573Y-79023789D01*
X73589565Y-79023797D01*
X73585268Y-79027715D01*
X73581763Y-79032355D01*
X73581755Y-79032365D01*
X73465422Y-79186416D01*
X73465418Y-79186421D01*
X73461912Y-79191065D01*
X73459317Y-79196274D01*
X73459314Y-79196281D01*
X73459184Y-79196543D01*
X73370672Y-79374299D01*
X73369078Y-79379899D01*
X73369076Y-79379906D01*
X73328932Y-79521000D01*
X73314655Y-79571179D01*
X73314118Y-79576972D01*
X73314116Y-79576984D01*
X73296306Y-79769194D01*
X73295768Y-79775000D01*
X73296306Y-79780806D01*
X73314116Y-79973015D01*
X73314117Y-79973025D01*
X73314655Y-79978821D01*
X73316249Y-79984426D01*
X73316250Y-79984427D01*
X73369026Y-80169918D01*
X73370672Y-80175701D01*
X73461912Y-80358935D01*
X73465421Y-80363582D01*
X73465422Y-80363583D01*
X73581755Y-80517634D01*
X73581759Y-80517638D01*
X73585268Y-80522285D01*
X73589570Y-80526207D01*
X73589573Y-80526210D01*
X73677466Y-80606335D01*
X73736538Y-80660186D01*
X73741489Y-80663251D01*
X73741491Y-80663253D01*
X73815992Y-80709382D01*
X73910573Y-80767944D01*
X74101444Y-80841888D01*
X74302653Y-80879500D01*
X74501519Y-80879500D01*
X74507347Y-80879500D01*
X74708556Y-80841888D01*
X74820842Y-80798387D01*
X74868290Y-80789895D01*
X74915463Y-80799846D01*
X74955446Y-80826785D01*
X75268595Y-81139934D01*
X75295909Y-81180811D01*
X75305500Y-81229029D01*
X75305500Y-81355982D01*
X75292290Y-81412145D01*
X75255432Y-81456532D01*
X75202652Y-81479837D01*
X75145017Y-81477172D01*
X75094613Y-81449096D01*
X75091347Y-81446119D01*
X75073462Y-81429814D01*
X75068512Y-81426749D01*
X75068508Y-81426746D01*
X74904387Y-81325127D01*
X74904386Y-81325126D01*
X74899427Y-81322056D01*
X74873459Y-81311996D01*
X74713989Y-81250216D01*
X74713981Y-81250213D01*
X74708556Y-81248112D01*
X74702839Y-81247043D01*
X74702831Y-81247041D01*
X74513073Y-81211570D01*
X74513069Y-81211569D01*
X74507347Y-81210500D01*
X74302653Y-81210500D01*
X74296931Y-81211569D01*
X74296926Y-81211570D01*
X74107168Y-81247041D01*
X74107157Y-81247043D01*
X74101444Y-81248112D01*
X74096021Y-81250212D01*
X74096010Y-81250216D01*
X73916011Y-81319949D01*
X73916008Y-81319950D01*
X73910573Y-81322056D01*
X73905617Y-81325124D01*
X73905612Y-81325127D01*
X73741491Y-81426746D01*
X73741481Y-81426752D01*
X73736538Y-81429814D01*
X73732236Y-81433735D01*
X73732229Y-81433741D01*
X73685385Y-81476445D01*
X73634981Y-81504520D01*
X73577347Y-81507185D01*
X73524568Y-81483880D01*
X73487709Y-81439493D01*
X73474500Y-81383330D01*
X73474500Y-81079834D01*
X73476876Y-81056919D01*
X73476952Y-81055071D01*
X73479095Y-81044853D01*
X73475349Y-81014800D01*
X73474817Y-81009672D01*
X73474500Y-81005848D01*
X73474500Y-81000623D01*
X73471303Y-80981465D01*
X73470551Y-80976309D01*
X73465752Y-80937808D01*
X73464461Y-80927449D01*
X73461164Y-80920705D01*
X73459929Y-80913302D01*
X73454958Y-80904117D01*
X73454957Y-80904113D01*
X73436492Y-80869993D01*
X73434108Y-80865362D01*
X73429232Y-80855389D01*
X73412499Y-80821160D01*
X73407191Y-80815852D01*
X73403619Y-80809251D01*
X73367403Y-80775912D01*
X73363645Y-80772306D01*
X72919457Y-80328118D01*
X72891058Y-80284534D01*
X72882687Y-80233192D01*
X72894837Y-80186427D01*
X72894627Y-80186346D01*
X72895331Y-80184527D01*
X72895766Y-80182853D01*
X72899328Y-80175701D01*
X72955345Y-79978821D01*
X72974232Y-79775000D01*
X72957837Y-79598072D01*
X72955883Y-79576984D01*
X72955882Y-79576983D01*
X72955345Y-79571179D01*
X72899328Y-79374299D01*
X72808088Y-79191065D01*
X72684732Y-79027715D01*
X72680429Y-79023792D01*
X72680426Y-79023789D01*
X72537764Y-78893736D01*
X72537765Y-78893736D01*
X72533462Y-78889814D01*
X72528512Y-78886749D01*
X72528508Y-78886746D01*
X72364387Y-78785127D01*
X72364386Y-78785126D01*
X72359427Y-78782056D01*
X72335898Y-78772941D01*
X72173989Y-78710216D01*
X72173981Y-78710213D01*
X72168556Y-78708112D01*
X72162839Y-78707043D01*
X72162831Y-78707041D01*
X71973073Y-78671570D01*
X71973069Y-78671569D01*
X71967347Y-78670500D01*
X71762653Y-78670500D01*
X71756931Y-78671569D01*
X71756926Y-78671570D01*
X71567168Y-78707041D01*
X71567157Y-78707043D01*
X71561444Y-78708112D01*
X71556021Y-78710212D01*
X71556010Y-78710216D01*
X71376011Y-78779949D01*
X71376008Y-78779950D01*
X71370573Y-78782056D01*
X71365617Y-78785124D01*
X71365612Y-78785127D01*
X71201491Y-78886746D01*
X71201481Y-78886752D01*
X71196538Y-78889814D01*
X71192239Y-78893732D01*
X71192235Y-78893736D01*
X71049573Y-79023789D01*
X71049565Y-79023797D01*
X71045268Y-79027715D01*
X71041763Y-79032355D01*
X71041755Y-79032365D01*
X70925422Y-79186416D01*
X70925418Y-79186421D01*
X70921912Y-79191065D01*
X70919317Y-79196274D01*
X70919314Y-79196281D01*
X70919184Y-79196543D01*
X70830672Y-79374299D01*
X70829078Y-79379899D01*
X70829076Y-79379906D01*
X70788932Y-79521000D01*
X70774655Y-79571179D01*
X70774118Y-79576972D01*
X70774116Y-79576984D01*
X70756306Y-79769194D01*
X70755768Y-79775000D01*
X70756306Y-79780806D01*
X70774116Y-79973015D01*
X70774117Y-79973025D01*
X70774655Y-79978821D01*
X70776249Y-79984426D01*
X70776250Y-79984427D01*
X70829026Y-80169918D01*
X70830672Y-80175701D01*
X70921912Y-80358935D01*
X70925421Y-80363582D01*
X70925422Y-80363583D01*
X71041755Y-80517634D01*
X71041759Y-80517638D01*
X71045268Y-80522285D01*
X71049570Y-80526207D01*
X71049573Y-80526210D01*
X71137466Y-80606335D01*
X71196538Y-80660186D01*
X71201489Y-80663251D01*
X71201491Y-80663253D01*
X71275992Y-80709382D01*
X71370573Y-80767944D01*
X71561444Y-80841888D01*
X71762653Y-80879500D01*
X71961519Y-80879500D01*
X71967347Y-80879500D01*
X72168556Y-80841888D01*
X72280842Y-80798387D01*
X72328290Y-80789895D01*
X72375463Y-80799846D01*
X72415446Y-80826785D01*
X72728595Y-81139934D01*
X72755909Y-81180811D01*
X72765500Y-81229029D01*
X72765500Y-81355982D01*
X72752290Y-81412145D01*
X72715432Y-81456532D01*
X72662652Y-81479837D01*
X72605017Y-81477172D01*
X72554613Y-81449096D01*
X72551347Y-81446119D01*
X72533462Y-81429814D01*
X72528512Y-81426749D01*
X72528508Y-81426746D01*
X72364387Y-81325127D01*
X72364386Y-81325126D01*
X72359427Y-81322056D01*
X72333459Y-81311996D01*
X72173989Y-81250216D01*
X72173981Y-81250213D01*
X72168556Y-81248112D01*
X72162839Y-81247043D01*
X72162831Y-81247041D01*
X71973073Y-81211570D01*
X71973069Y-81211569D01*
X71967347Y-81210500D01*
X71762653Y-81210500D01*
X71756931Y-81211569D01*
X71756926Y-81211570D01*
X71567168Y-81247041D01*
X71567157Y-81247043D01*
X71561444Y-81248112D01*
X71556021Y-81250212D01*
X71556010Y-81250216D01*
X71376011Y-81319949D01*
X71376008Y-81319950D01*
X71370573Y-81322056D01*
X71365617Y-81325124D01*
X71365612Y-81325127D01*
X71201491Y-81426746D01*
X71201481Y-81426752D01*
X71196538Y-81429814D01*
X71192239Y-81433732D01*
X71192235Y-81433736D01*
X71049573Y-81563789D01*
X71049565Y-81563797D01*
X71045268Y-81567715D01*
X71041763Y-81572355D01*
X71041755Y-81572365D01*
X70925422Y-81726416D01*
X70925418Y-81726421D01*
X70921912Y-81731065D01*
X70919317Y-81736274D01*
X70919314Y-81736281D01*
X70833271Y-81909079D01*
X70830672Y-81914299D01*
X70829078Y-81919899D01*
X70829076Y-81919906D01*
X70781900Y-82085715D01*
X70774655Y-82111179D01*
X70774118Y-82116972D01*
X70774116Y-82116984D01*
X70763838Y-82227908D01*
X70755768Y-82315000D01*
X70756306Y-82320806D01*
X70774116Y-82513015D01*
X70774117Y-82513025D01*
X70774655Y-82518821D01*
X70830672Y-82715701D01*
X70921912Y-82898935D01*
X70925421Y-82903582D01*
X70925422Y-82903583D01*
X71041755Y-83057634D01*
X71041759Y-83057638D01*
X71045268Y-83062285D01*
X71049570Y-83066207D01*
X71049573Y-83066210D01*
X71117100Y-83127769D01*
X71196538Y-83200186D01*
X71201489Y-83203251D01*
X71201491Y-83203253D01*
X71365613Y-83304873D01*
X71370573Y-83307944D01*
X71430017Y-83330972D01*
X71472213Y-83358007D01*
X71500534Y-83399351D01*
X71510500Y-83448464D01*
X71510500Y-91522701D01*
X71496767Y-91579904D01*
X71458561Y-91624637D01*
X71404211Y-91647150D01*
X71345564Y-91642534D01*
X71295405Y-91611796D01*
X70795178Y-91111569D01*
X70780662Y-91093694D01*
X70779401Y-91092325D01*
X70773691Y-91083584D01*
X70749825Y-91065008D01*
X70745783Y-91061726D01*
X70742855Y-91059246D01*
X70739167Y-91055558D01*
X70723314Y-91044239D01*
X70719192Y-91041165D01*
X70680326Y-91010915D01*
X70673227Y-91008478D01*
X70667118Y-91004116D01*
X70657114Y-91001137D01*
X70657113Y-91001137D01*
X70619947Y-90990072D01*
X70614991Y-90988485D01*
X70578296Y-90975888D01*
X70578294Y-90975887D01*
X70568426Y-90972500D01*
X70560921Y-90972500D01*
X70553726Y-90970358D01*
X70543294Y-90970789D01*
X70543290Y-90970789D01*
X70504556Y-90972392D01*
X70499348Y-90972500D01*
X65158408Y-90972500D01*
X65114375Y-90964556D01*
X65078165Y-90943071D01*
X65074421Y-90938750D01*
X64951411Y-90859696D01*
X64851029Y-90830221D01*
X64819755Y-90821038D01*
X64819754Y-90821037D01*
X64811111Y-90818500D01*
X64664889Y-90818500D01*
X64656246Y-90821037D01*
X64656244Y-90821038D01*
X64533235Y-90857157D01*
X64533233Y-90857157D01*
X64524589Y-90859696D01*
X64517011Y-90864566D01*
X64517009Y-90864567D01*
X64409159Y-90933878D01*
X64409156Y-90933880D01*
X64401579Y-90938750D01*
X64395681Y-90945555D01*
X64395678Y-90945559D01*
X64311726Y-91042445D01*
X64311724Y-91042447D01*
X64305824Y-91049257D01*
X64302081Y-91057450D01*
X64302080Y-91057454D01*
X64248824Y-91174067D01*
X64248821Y-91174075D01*
X64245081Y-91182266D01*
X64224271Y-91327000D01*
X58261500Y-91327000D01*
X58261500Y-78500000D01*
X59150000Y-78500000D01*
X59150000Y-83580000D01*
X64230000Y-83580000D01*
X64230000Y-83183887D01*
X65680500Y-83183887D01*
X65680501Y-83190066D01*
X65681707Y-83196132D01*
X65681708Y-83196137D01*
X65692844Y-83252125D01*
X65695266Y-83264301D01*
X65702162Y-83274621D01*
X65739814Y-83330972D01*
X65751516Y-83348484D01*
X65835699Y-83404734D01*
X65909933Y-83419500D01*
X67660066Y-83419499D01*
X67734301Y-83404734D01*
X67818484Y-83348484D01*
X67874734Y-83264301D01*
X67889500Y-83190067D01*
X67889499Y-82315000D01*
X68215768Y-82315000D01*
X68216306Y-82320806D01*
X68234116Y-82513015D01*
X68234117Y-82513025D01*
X68234655Y-82518821D01*
X68290672Y-82715701D01*
X68381912Y-82898935D01*
X68385421Y-82903582D01*
X68385422Y-82903583D01*
X68501755Y-83057634D01*
X68501759Y-83057638D01*
X68505268Y-83062285D01*
X68509570Y-83066207D01*
X68509573Y-83066210D01*
X68577100Y-83127769D01*
X68656538Y-83200186D01*
X68830573Y-83307944D01*
X68959800Y-83358007D01*
X69015261Y-83379493D01*
X69021444Y-83381888D01*
X69222653Y-83419500D01*
X69421519Y-83419500D01*
X69427347Y-83419500D01*
X69628556Y-83381888D01*
X69819427Y-83307944D01*
X69993462Y-83200186D01*
X70144732Y-83062285D01*
X70268088Y-82898935D01*
X70359328Y-82715701D01*
X70415345Y-82518821D01*
X70434232Y-82315000D01*
X70415345Y-82111179D01*
X70359328Y-81914299D01*
X70268088Y-81731065D01*
X70219100Y-81666194D01*
X70148244Y-81572365D01*
X70148241Y-81572361D01*
X70144732Y-81567715D01*
X70140429Y-81563792D01*
X70140426Y-81563789D01*
X70004079Y-81439493D01*
X69993462Y-81429814D01*
X69988512Y-81426749D01*
X69988508Y-81426746D01*
X69824387Y-81325127D01*
X69824386Y-81325126D01*
X69819427Y-81322056D01*
X69793459Y-81311996D01*
X69633989Y-81250216D01*
X69633981Y-81250213D01*
X69628556Y-81248112D01*
X69622839Y-81247043D01*
X69622831Y-81247041D01*
X69433073Y-81211570D01*
X69433069Y-81211569D01*
X69427347Y-81210500D01*
X69222653Y-81210500D01*
X69216931Y-81211569D01*
X69216926Y-81211570D01*
X69027168Y-81247041D01*
X69027157Y-81247043D01*
X69021444Y-81248112D01*
X69016021Y-81250212D01*
X69016010Y-81250216D01*
X68836011Y-81319949D01*
X68836008Y-81319950D01*
X68830573Y-81322056D01*
X68825617Y-81325124D01*
X68825612Y-81325127D01*
X68661491Y-81426746D01*
X68661481Y-81426752D01*
X68656538Y-81429814D01*
X68652239Y-81433732D01*
X68652235Y-81433736D01*
X68509573Y-81563789D01*
X68509565Y-81563797D01*
X68505268Y-81567715D01*
X68501763Y-81572355D01*
X68501755Y-81572365D01*
X68385422Y-81726416D01*
X68385418Y-81726421D01*
X68381912Y-81731065D01*
X68379317Y-81736274D01*
X68379314Y-81736281D01*
X68293271Y-81909079D01*
X68290672Y-81914299D01*
X68289078Y-81919899D01*
X68289076Y-81919906D01*
X68241900Y-82085715D01*
X68234655Y-82111179D01*
X68234118Y-82116972D01*
X68234116Y-82116984D01*
X68223838Y-82227908D01*
X68215768Y-82315000D01*
X67889499Y-82315000D01*
X67889499Y-81439934D01*
X67874734Y-81365699D01*
X67818484Y-81281516D01*
X67734301Y-81225266D01*
X67722131Y-81222845D01*
X67722128Y-81222844D01*
X67666135Y-81211707D01*
X67660067Y-81210500D01*
X67653880Y-81210500D01*
X65916122Y-81210500D01*
X65916111Y-81210500D01*
X65909934Y-81210501D01*
X65903868Y-81211707D01*
X65903862Y-81211708D01*
X65847874Y-81222844D01*
X65847871Y-81222844D01*
X65835699Y-81225266D01*
X65825379Y-81232161D01*
X65825378Y-81232162D01*
X65761832Y-81274622D01*
X65761829Y-81274624D01*
X65751516Y-81281516D01*
X65744624Y-81291829D01*
X65744622Y-81291832D01*
X65702161Y-81355379D01*
X65702159Y-81355381D01*
X65695266Y-81365699D01*
X65692845Y-81377867D01*
X65692844Y-81377871D01*
X65681707Y-81433864D01*
X65680500Y-81439933D01*
X65680500Y-81446118D01*
X65680500Y-81446119D01*
X65680500Y-83183877D01*
X65680500Y-83183887D01*
X64230000Y-83183887D01*
X64230000Y-79775000D01*
X65675768Y-79775000D01*
X65676306Y-79780806D01*
X65694116Y-79973015D01*
X65694117Y-79973025D01*
X65694655Y-79978821D01*
X65696249Y-79984426D01*
X65696250Y-79984427D01*
X65749026Y-80169918D01*
X65750672Y-80175701D01*
X65841912Y-80358935D01*
X65845421Y-80363582D01*
X65845422Y-80363583D01*
X65961755Y-80517634D01*
X65961759Y-80517638D01*
X65965268Y-80522285D01*
X65969570Y-80526207D01*
X65969573Y-80526210D01*
X66057466Y-80606335D01*
X66116538Y-80660186D01*
X66121489Y-80663251D01*
X66121491Y-80663253D01*
X66195992Y-80709382D01*
X66290573Y-80767944D01*
X66481444Y-80841888D01*
X66682653Y-80879500D01*
X66881519Y-80879500D01*
X66887347Y-80879500D01*
X67088556Y-80841888D01*
X67279427Y-80767944D01*
X67453462Y-80660186D01*
X67604732Y-80522285D01*
X67728088Y-80358935D01*
X67819328Y-80175701D01*
X67875345Y-79978821D01*
X67894232Y-79775000D01*
X68215768Y-79775000D01*
X68216306Y-79780806D01*
X68234116Y-79973015D01*
X68234117Y-79973025D01*
X68234655Y-79978821D01*
X68236249Y-79984426D01*
X68236250Y-79984427D01*
X68289026Y-80169918D01*
X68290672Y-80175701D01*
X68381912Y-80358935D01*
X68385421Y-80363582D01*
X68385422Y-80363583D01*
X68501755Y-80517634D01*
X68501759Y-80517638D01*
X68505268Y-80522285D01*
X68509570Y-80526207D01*
X68509573Y-80526210D01*
X68597466Y-80606335D01*
X68656538Y-80660186D01*
X68661489Y-80663251D01*
X68661491Y-80663253D01*
X68735992Y-80709382D01*
X68830573Y-80767944D01*
X69021444Y-80841888D01*
X69222653Y-80879500D01*
X69421519Y-80879500D01*
X69427347Y-80879500D01*
X69628556Y-80841888D01*
X69819427Y-80767944D01*
X69993462Y-80660186D01*
X70144732Y-80522285D01*
X70268088Y-80358935D01*
X70359328Y-80175701D01*
X70415345Y-79978821D01*
X70434232Y-79775000D01*
X70417837Y-79598072D01*
X70415883Y-79576984D01*
X70415882Y-79576983D01*
X70415345Y-79571179D01*
X70359328Y-79374299D01*
X70268088Y-79191065D01*
X70144732Y-79027715D01*
X70140429Y-79023792D01*
X70140426Y-79023789D01*
X69997764Y-78893736D01*
X69997765Y-78893736D01*
X69993462Y-78889814D01*
X69988512Y-78886749D01*
X69988508Y-78886746D01*
X69824387Y-78785127D01*
X69824386Y-78785126D01*
X69819427Y-78782056D01*
X69795898Y-78772941D01*
X69633989Y-78710216D01*
X69633981Y-78710213D01*
X69628556Y-78708112D01*
X69622839Y-78707043D01*
X69622831Y-78707041D01*
X69433073Y-78671570D01*
X69433069Y-78671569D01*
X69427347Y-78670500D01*
X69222653Y-78670500D01*
X69216931Y-78671569D01*
X69216926Y-78671570D01*
X69027168Y-78707041D01*
X69027157Y-78707043D01*
X69021444Y-78708112D01*
X69016021Y-78710212D01*
X69016010Y-78710216D01*
X68836011Y-78779949D01*
X68836008Y-78779950D01*
X68830573Y-78782056D01*
X68825617Y-78785124D01*
X68825612Y-78785127D01*
X68661491Y-78886746D01*
X68661481Y-78886752D01*
X68656538Y-78889814D01*
X68652239Y-78893732D01*
X68652235Y-78893736D01*
X68509573Y-79023789D01*
X68509565Y-79023797D01*
X68505268Y-79027715D01*
X68501763Y-79032355D01*
X68501755Y-79032365D01*
X68385422Y-79186416D01*
X68385418Y-79186421D01*
X68381912Y-79191065D01*
X68379317Y-79196274D01*
X68379314Y-79196281D01*
X68379184Y-79196543D01*
X68290672Y-79374299D01*
X68289078Y-79379899D01*
X68289076Y-79379906D01*
X68248932Y-79521000D01*
X68234655Y-79571179D01*
X68234118Y-79576972D01*
X68234116Y-79576984D01*
X68216306Y-79769194D01*
X68215768Y-79775000D01*
X67894232Y-79775000D01*
X67877837Y-79598072D01*
X67875883Y-79576984D01*
X67875882Y-79576983D01*
X67875345Y-79571179D01*
X67819328Y-79374299D01*
X67728088Y-79191065D01*
X67604732Y-79027715D01*
X67600429Y-79023792D01*
X67600426Y-79023789D01*
X67457764Y-78893736D01*
X67457765Y-78893736D01*
X67453462Y-78889814D01*
X67448512Y-78886749D01*
X67448508Y-78886746D01*
X67284387Y-78785127D01*
X67284386Y-78785126D01*
X67279427Y-78782056D01*
X67255898Y-78772941D01*
X67093989Y-78710216D01*
X67093981Y-78710213D01*
X67088556Y-78708112D01*
X67082839Y-78707043D01*
X67082831Y-78707041D01*
X66893073Y-78671570D01*
X66893069Y-78671569D01*
X66887347Y-78670500D01*
X66682653Y-78670500D01*
X66676931Y-78671569D01*
X66676926Y-78671570D01*
X66487168Y-78707041D01*
X66487157Y-78707043D01*
X66481444Y-78708112D01*
X66476021Y-78710212D01*
X66476010Y-78710216D01*
X66296011Y-78779949D01*
X66296008Y-78779950D01*
X66290573Y-78782056D01*
X66285617Y-78785124D01*
X66285612Y-78785127D01*
X66121491Y-78886746D01*
X66121481Y-78886752D01*
X66116538Y-78889814D01*
X66112239Y-78893732D01*
X66112235Y-78893736D01*
X65969573Y-79023789D01*
X65969565Y-79023797D01*
X65965268Y-79027715D01*
X65961763Y-79032355D01*
X65961755Y-79032365D01*
X65845422Y-79186416D01*
X65845418Y-79186421D01*
X65841912Y-79191065D01*
X65839317Y-79196274D01*
X65839314Y-79196281D01*
X65839184Y-79196543D01*
X65750672Y-79374299D01*
X65749078Y-79379899D01*
X65749076Y-79379906D01*
X65708932Y-79521000D01*
X65694655Y-79571179D01*
X65694118Y-79576972D01*
X65694116Y-79576984D01*
X65676306Y-79769194D01*
X65675768Y-79775000D01*
X64230000Y-79775000D01*
X64230000Y-78500000D01*
X112490000Y-78500000D01*
X112490000Y-83580000D01*
X117570000Y-83580000D01*
X117570000Y-78500000D01*
X112490000Y-78500000D01*
X64230000Y-78500000D01*
X59150000Y-78500000D01*
X58261500Y-78500000D01*
X58261500Y-77737500D01*
X58278381Y-77674500D01*
X58324500Y-77628381D01*
X58387500Y-77611500D01*
X118332500Y-77611500D01*
X118395500Y-77628381D01*
G37*
%TD.AperFunction*%
%TD*%
%TA.AperFunction,Conductor*%
%TO.N,GND*%
G36*
X64230000Y-83580000D02*
G01*
X59404000Y-83580000D01*
X59150000Y-83580000D01*
X59150000Y-78500000D01*
X64230000Y-78500000D01*
X64230000Y-83580000D01*
G37*
%TD.AperFunction*%
%TD*%
%TA.AperFunction,Conductor*%
%TO.N,GND*%
G36*
X64230000Y-119140000D02*
G01*
X59404000Y-119140000D01*
X59150000Y-119140000D01*
X59150000Y-114060000D01*
X64230000Y-114060000D01*
X64230000Y-119140000D01*
G37*
%TD.AperFunction*%
%TD*%
%TA.AperFunction,Conductor*%
%TO.N,GND*%
G36*
X117570000Y-119140000D02*
G01*
X112744000Y-119140000D01*
X112490000Y-119140000D01*
X112490000Y-114060000D01*
X117570000Y-114060000D01*
X117570000Y-119140000D01*
G37*
%TD.AperFunction*%
%TD*%
%TA.AperFunction,Conductor*%
%TO.N,GND*%
G36*
X117570000Y-83580000D02*
G01*
X112744000Y-83580000D01*
X112490000Y-83580000D01*
X112490000Y-78500000D01*
X117570000Y-78500000D01*
X117570000Y-83580000D01*
G37*
%TD.AperFunction*%
%TD*%
M02*
